<svg xmlns="http://www.w3.org/2000/svg" viewBox="0 0 500 500"><g id="freepik--background-complete--inject-20"><path d="M201.17,216.8a10.52,10.52,0,0,1-.26-2.36,20.53,20.53,0,0,0-.32-2.83,27.65,27.65,0,0,0-.74-3.8A35.67,35.67,0,0,0,195.9,198a36.7,36.7,0,0,0-9.1-10.48,36.21,36.21,0,0,0-34.16-5.87,33.92,33.92,0,0,0-9.24,4.71,33.21,33.21,0,0,0-7.8,7.49,36,36,0,0,0-1,42.62,39.48,39.48,0,0,0,3.42,4.27,40.9,40.9,0,0,0,4,3.59,34.43,34.43,0,0,0,9,5.16,36.5,36.5,0,0,0,44-14.24,35.43,35.43,0,0,0,4.42-9.57,28.42,28.42,0,0,0,.93-3.76,20,20,0,0,0,.45-2.81,10.22,10.22,0,0,1,.38-2.34,10.19,10.19,0,0,1,0,2.37,17.54,17.54,0,0,1-.26,2.88,26.2,26.2,0,0,1-.76,3.87,35.09,35.09,0,0,1-4.22,10,37.58,37.58,0,0,1-25.75,17.4,37.82,37.82,0,0,1-19.9-2,35.29,35.29,0,0,1-9.51-5.37,41.62,41.62,0,0,1-4.24-3.76,42.88,42.88,0,0,1-3.63-4.49,37.78,37.78,0,0,1,1.09-45,42.86,42.86,0,0,1,3.85-4.31,43.36,43.36,0,0,1,4.41-3.55,35.69,35.69,0,0,1,9.77-4.9,37.84,37.84,0,0,1,20-1.06,37.62,37.62,0,0,1,24.87,18.63,34.82,34.82,0,0,1,3.73,10.16,25.61,25.61,0,0,1,.57,3.91,16.77,16.77,0,0,1,.13,2.88A10.49,10.49,0,0,1,201.17,216.8Z" style="fill:#ebebeb"></path><path d="M193.76,193.64c.08.12-.59.7-1.88,1.66-.71.5-1.5,1.07-2.38,1.71-.48.32-1,.69-1.52,1l-1.83,1a41.81,41.81,0,0,1-21.78,5.48l-3.3-.14-3.17-.5c-.52-.09-1-.15-1.54-.26l-1.47-.39c-1-.27-1.94-.5-2.85-.79a48.14,48.14,0,0,1-9.25-4.26c-5-3-7.38-5.74-7.19-5.91s2.9,2.06,7.9,4.65a55.49,55.49,0,0,0,9.1,3.73c.89.25,1.81.45,2.75.69l1.42.35,1.47.22,3,.45,3.14.13a45.23,45.23,0,0,0,21.1-4.74l1.84-.8c.57-.3,1.08-.61,1.57-.88l2.53-1.4C192.85,193.89,193.68,193.53,193.76,193.64Z" style="fill:#ebebeb"></path><path d="M134.47,238.7c-.08-.11.58-.69,1.87-1.65l2.39-1.72c.47-.32,1-.68,1.52-1l1.82-1a41.75,41.75,0,0,1,21.79-5.49l3.3.15,3.16.49c.52.09,1,.16,1.54.26l1.48.39c1,.27,1.93.5,2.85.79a47.75,47.75,0,0,1,9.24,4.26c5,3,7.39,5.74,7.2,5.91s-2.9-2.05-7.9-4.65a55.9,55.9,0,0,0-9.1-3.72c-.89-.26-1.82-.46-2.75-.7l-1.42-.35-1.48-.22-3-.45-3.14-.12a45.11,45.11,0,0,0-21.1,4.73l-1.85.81c-.56.29-1.07.61-1.56.88l-2.53,1.39C135.37,238.45,134.55,238.82,134.47,238.7Z" style="fill:#ebebeb"></path><path d="M201.15,217.66c0,.56-16.61.61-37.07.12s-37.05-1.36-37-1.92,16.61-.62,37.08-.12S201.17,217.09,201.15,217.66Z" style="fill:#ebebeb"></path><path d="M162.39,252.91c-.56,0-.62-16.6-.12-37.06s1.36-37,1.92-37,.62,16.61.12,37.07S163,252.93,162.39,252.91Z" style="fill:#ebebeb"></path><path d="M162.39,252.86c-.14.21-4.22-2.55-8.93-8.82a49.9,49.9,0,0,1-6.63-12,44.57,44.57,0,0,1-2.86-16.6A42.29,42.29,0,0,1,147.71,199a51.64,51.64,0,0,1,7.23-11.66c5-6,9.11-8.7,9.25-8.49s-3.53,3.27-8.11,9.38a55.46,55.46,0,0,0-6.65,11.51A42.88,42.88,0,0,0,146,215.45a45,45,0,0,0,2.6,15.92,53.69,53.69,0,0,0,6,11.84C158.92,249.52,162.6,252.63,162.39,252.86Z" style="fill:#ebebeb"></path><path d="M165,178.84c.14-.21,4.22,2.56,8.93,8.82a49.9,49.9,0,0,1,6.63,12,44.79,44.79,0,0,1,2.87,16.61,42.42,42.42,0,0,1-3.75,16.43,51.64,51.64,0,0,1-7.23,11.66c-5,6-9.11,8.7-9.25,8.49s3.53-3.27,8.11-9.38A55.2,55.2,0,0,0,178,232a42.68,42.68,0,0,0,3.43-15.73,44.89,44.89,0,0,0-2.6-15.92,53.24,53.24,0,0,0-6-11.84C168.49,182.18,164.81,179.07,165,178.84Z" style="fill:#ebebeb"></path><rect x="45.2" y="418.14" width="40.83" height="60.57" transform="translate(-387.1 427.34) rotate(-79.01)" style="fill:#ebebeb"></rect><path d="M99.33,434.68a3.22,3.22,0,0,1-.65.43l-1.94,1.13-7.18,4.06c-6.14,3.42-14.54,8.1-23.85,13.27l-.19.11-.15-.17L65,453.1,47.15,432l-5.36-6.44-1.44-1.76a3.52,3.52,0,0,1-.47-.65,6.09,6.09,0,0,1,.55.57L42,425.41l5.5,6.32,18,21,.35.41-.34-.06L89.37,440l7.27-3.92,2-1A6.49,6.49,0,0,1,99.33,434.68Z" style="fill:#e0e0e0"></path><path d="M32.09,463.21c-.09-.12,5.45-4.74,12.37-10.33s12.62-10,12.72-9.9-5.45,4.74-12.37,10.33S32.19,463.33,32.09,463.21Z" style="fill:#e0e0e0"></path><path d="M77,446.32c.13-.07,3.49,6.24,7.5,14.09s7.15,14.28,7,14.35-3.49-6.24-7.5-14.1S76.9,446.39,77,446.32Z" style="fill:#e0e0e0"></path><path d="M470.67,299a18.5,18.5,0,1,0-34.44,9.35h0l0,.07c.71,1.2,1.6,2.05,2.49,3.31L449.51,326a3.33,3.33,0,0,0,5.33,0l10.56-14a40.47,40.47,0,0,0,2.69-3.56l0-.05h0A18.39,18.39,0,0,0,470.67,299Zm-18.5,8.06a8.14,8.14,0,1,1,8.14-8.14A8.15,8.15,0,0,1,452.17,307.07Z" style="fill:#f5f5f5"></path><path d="M467.82,63.63a38.88,38.88,0,1,1-37.61-40A38.83,38.83,0,0,1,467.82,63.63Z" style="fill:#f5f5f5"></path><path d="M459.63,63.77A29.63,29.63,0,1,1,431,33.27,29.59,29.59,0,0,1,459.63,63.77Z" style="fill:#f5f5f5"></path><path d="M458.58,63.33a2.2,2.2,0,0,1,0-.48c0-.35,0-.81-.06-1.4,0-.32,0-.66,0-1s-.09-.79-.15-1.24a20.54,20.54,0,0,0-.53-3.06,27.94,27.94,0,0,0-3-7.93,29.51,29.51,0,0,0-7.24-8.55A29.78,29.78,0,0,0,416,36.13c-.63.31-1.23.69-1.86,1a15.84,15.84,0,0,0-1.81,1.16A33.48,33.48,0,0,0,408.91,41a33.49,33.49,0,0,0-3,3.3,28.27,28.27,0,0,0-4.46,7.92,31.44,31.44,0,0,0-1.81,9.19,31,31,0,0,0,1.22,9.28,28.37,28.37,0,0,0,3.93,8.2,33.56,33.56,0,0,0,2.77,3.48,34.17,34.17,0,0,0,3.23,2.93,27.28,27.28,0,0,0,7.29,4.21A29.45,29.45,0,0,0,453.75,78.2a27.9,27.9,0,0,0,3.55-7.71,21,21,0,0,0,.72-3c.09-.44.18-.85.24-1.22s.07-.72.1-1c.06-.59.11-1.06.15-1.4a2.25,2.25,0,0,1,.07-.48,4.32,4.32,0,0,1,0,.48c0,.35-.05.81-.09,1.41,0,.31,0,.66-.07,1s-.13.79-.2,1.24a21.35,21.35,0,0,1-.68,3.06A27.88,27.88,0,0,1,454,78.39a29.77,29.77,0,0,1-20.51,13.44A30.62,30.62,0,0,1,414,88.25a31.7,31.7,0,0,1-3.59-2.46,33.11,33.11,0,0,1-3.31-3,33.89,33.89,0,0,1-2.83-3.55,28.48,28.48,0,0,1-4-8.36A31.65,31.65,0,0,1,399,61.41,32,32,0,0,1,400.89,52,29,29,0,0,1,405.45,44a33.61,33.61,0,0,1,3.05-3.36A31.55,31.55,0,0,1,412,37.83a15.08,15.08,0,0,1,1.84-1.18c.64-.35,1.26-.73,1.9-1a30.4,30.4,0,0,1,19.68-2.33A29.83,29.83,0,0,1,455,48a28.27,28.27,0,0,1,3,8,20.39,20.39,0,0,1,.47,3.1c0,.45.11.87.13,1.25v2.45A4.34,4.34,0,0,1,458.58,63.33Z" style="fill:#e0e0e0"></path><path d="M431.75,80.15l-.09,5.16-4.61-.08.09-5c-4.56-.36-8.91-1.86-11.41-3.89l2.63-5.58a18.6,18.6,0,0,0,8.88,3.43l.14-7.69c-5.09-1.34-10.78-3.14-10.66-9.73.09-4.88,3.71-9,11-9.71l.09-5.12,4.61.08-.09,5a20.68,20.68,0,0,1,9.3,3l-2.4,5.63a18.72,18.72,0,0,0-7-2.52l-.13,7.83c5.09,1.29,10.68,3.09,10.56,9.59C442.57,75.32,439,79.4,431.75,80.15ZM427.5,59.71l.11-6.55c-2.45.51-3.44,1.83-3.47,3.35S425.48,59,427.5,59.71ZM435.23,71c0-1.61-1.29-2.51-3.26-3.24l-.12,6.36C434.17,73.6,435.2,72.42,435.23,71Z" style="fill:#e0e0e0"></path><path d="M373.83,59a20.44,20.44,0,0,1-28.47,4.95,20.66,20.66,0,0,1-2.76-2.32A20.42,20.42,0,1,1,373.83,59Z" style="fill:#f5f5f5"></path><path d="M370.19,56.65A15.59,15.59,0,1,1,366.37,35,15.57,15.57,0,0,1,370.19,56.65Z" style="fill:#f5f5f5"></path><path d="M369.85,56.15a.75.75,0,0,1,.12-.22l.38-.64.28-.46c.1-.18.19-.38.29-.59a10.84,10.84,0,0,0,.65-1.5,15.12,15.12,0,0,0,.95-4.37,15.48,15.48,0,0,0-11.42-16A15.17,15.17,0,0,0,359,31.9c-.37,0-.74,0-1.12-.08a7.1,7.1,0,0,0-1.13,0,16.11,16.11,0,0,0-2.28.21,16.71,16.71,0,0,0-2.26.59,14.83,14.83,0,0,0-4.25,2.2,15.32,15.32,0,0,0-5.59,8,15.09,15.09,0,0,0-.63,4.74,14.37,14.37,0,0,0,.8,4.55,15.12,15.12,0,0,0,.85,2.08,15.48,15.48,0,0,0,14.35,8.48,15.6,15.6,0,0,0,5.75-1.31,14.58,14.58,0,0,0,3.78-2.38,10.11,10.11,0,0,0,1.19-1.12c.17-.17.33-.32.46-.47s.24-.3.34-.42l.47-.58a1.37,1.37,0,0,1,.17-.19l-.14.21-.45.6-.33.43c-.13.16-.28.31-.45.49A10.7,10.7,0,0,1,367.31,59a15,15,0,0,1-3.8,2.44,15.68,15.68,0,0,1-19.28-5.28,16,16,0,0,1-1.17-1.91,17.14,17.14,0,0,1-.87-2.12,18.92,18.92,0,0,1-.6-2.27,18.64,18.64,0,0,1-.22-2.37,15.49,15.49,0,0,1,.64-4.85,16.92,16.92,0,0,1,2.19-4.53,16.66,16.66,0,0,1,3.52-3.59,15.29,15.29,0,0,1,4.33-2.25,19.29,19.29,0,0,1,2.32-.6,20.37,20.37,0,0,1,2.33-.21,8.83,8.83,0,0,1,1.15,0c.38,0,.76,0,1.14.09a15.72,15.72,0,0,1,2.19.44,15.89,15.89,0,0,1,7.14,4.21,15.68,15.68,0,0,1,4.38,12.14,14.73,14.73,0,0,1-1,4.39,10.2,10.2,0,0,1-.68,1.5c-.11.22-.21.42-.31.59l-.3.46L370,56Z" style="fill:#e0e0e0"></path><path d="M353.19,55.82l-1.53,2.24-2-1.36,1.48-2.19a11.39,11.39,0,0,1-3.89-5L350,47.82a9.81,9.81,0,0,0,2.92,4.07l2.28-3.35c-1.86-2-3.84-4.49-1.88-7.35,1.44-2.13,4.23-2.9,7.64-1.11l1.51-2.22,2,1.36L363,41.41a11,11,0,0,1,3.24,4l-2.68,1.78a10.16,10.16,0,0,0-2.36-3.13l-2.32,3.41c1.87,2,3.81,4.44,1.89,7.27C359.35,56.81,356.6,57.58,353.19,55.82Zm4-10.22,1.93-2.85c-1.22-.48-2-.19-2.49.47S356.52,44.72,357.22,45.6Zm.16,7.17c.47-.7.15-1.47-.51-2.36L355,53.17C356.14,53.63,356.94,53.41,357.38,52.77Z" style="fill:#e0e0e0"></path><path d="M139.87,321.45s-6.76,2.74,1,17.1S154,360,154,360s1.4,3.34-1.43,3.94-9.11-.24-10.29,3.28,1.49,7,6.88,9.82,17,9.53,18,10.14,2.08,2.14.22,2.85-15.91,2.56-14.64,9.17,17.6,12.08,19.37,12.71,2.21,1.37,2.1,2.33-4.9,1.14-8.87,1.83-8.47,2.17-7.41,5.93,10.84,11.44,34.16,13.12l10.86.07,5.66-9.32c10.91-20.68,9.56-33.05,6.93-35.93s-6.27.14-8.95,3.15-5.36,7-6.24,6.56-1.27-1.17-.87-3,4.39-18.58-.55-23.16-13.92,6.38-15.52,7.58-2.34-.51-2.31-1.7.5-14.57.94-20.65-1-10.15-4.71-11-6.22,4.92-8.22,7-4.1-.87-4.1-.87-3.18-8.26-11.24-22.48-14.09-9.78-14.09-9.78" style="fill:#ebebeb"></path><path d="M203.63,437.71c-5.88-10.47-16-29.24-24.8-45.31s-16.75-30.6-22.57-41.09l-6.91-12.42-1.88-3.38-.48-.88a2.51,2.51,0,0,1-.15-.31l.18.29.51.87,1.93,3.34c1.68,2.91,4.07,7.14,7,12.37,5.88,10.46,13.87,25,22.66,41.05S198,427.1,203.84,437.59" style="fill:#e0e0e0"></path><path d="M151.07,368.72a3.86,3.86,0,0,1,.76.19c.49.14,1.18.37,2,.66,1.71.57,4,1.43,6.62,2.42l6.56,2.57,2,.76a3.68,3.68,0,0,1,.72.31,2.77,2.77,0,0,1-.76-.18c-.49-.14-1.18-.37-2-.67-1.71-.59-4-1.48-6.6-2.47l-6.58-2.52-2-.75A4,4,0,0,1,151.07,368.72Z" style="fill:#e0e0e0"></path><path d="M170.48,374.92c-.09,0,1.46-4.93,3.47-10.95s3.71-10.87,3.79-10.84-1.46,4.93-3.47,10.95S170.56,375,170.48,374.92Z" style="fill:#e0e0e0"></path><path d="M182.85,400.21a3.72,3.72,0,0,1,.43-.69c.33-.48.74-1.08,1.24-1.79,1-1.51,2.47-3.61,4-6s2.79-4.56,3.71-6.16l1.08-1.88a3.5,3.5,0,0,1,.44-.68,3.31,3.31,0,0,1-.32.74c-.22.46-.56,1.13-1,1.94-.86,1.63-2.12,3.84-3.62,6.22s-3,4.46-4.07,5.94c-.55.74-1,1.33-1.33,1.73A4,4,0,0,1,182.85,400.21Z" style="fill:#e0e0e0"></path><path d="M164.06,398.46a4,4,0,0,1,.75,0l2,.11c1.7.11,4,.27,6.63.48s4.92.41,6.62.58l2,.21a3.31,3.31,0,0,1,.73.13,3.9,3.9,0,0,1-.74,0l-2-.11c-1.7-.11-4-.28-6.63-.48s-4.93-.42-6.62-.58l-2-.22A3.07,3.07,0,0,1,164.06,398.46Z" style="fill:#e0e0e0"></path><path d="M172.16,422.17a5.69,5.69,0,0,1,.94,0l2.58.13c2.18.12,5.19.31,8.5.55s6.32.46,8.5.64l2.57.24a5.48,5.48,0,0,1,.94.13,5.85,5.85,0,0,1-.95,0l-2.58-.13c-2.18-.12-5.18-.31-8.5-.55s-6.32-.46-8.49-.64l-2.57-.24A5,5,0,0,1,172.16,422.17Z" style="fill:#e0e0e0"></path><path d="M195.62,423.66a6.13,6.13,0,0,1,.52-.88l1.49-2.33c1.25-2,3-4.69,4.8-7.75s3.4-5.87,4.52-7.91c.55-1,1-1.8,1.34-2.42a5,5,0,0,1,.53-.87,6.54,6.54,0,0,1-.41.93c-.29.59-.71,1.43-1.25,2.47-1.07,2.08-2.62,4.91-4.45,8s-3.58,5.78-4.88,7.71c-.66,1-1.2,1.75-1.58,2.28A6.13,6.13,0,0,1,195.62,423.66Z" style="fill:#e0e0e0"></path><path d="M394.31,222.27S386.39,218,379,236.73,369.1,266,369.1,266s-2.05,4-4.84,1.76-7-8.8-11.21-7.14c-4.4,1.72-5.41,6.91-3.85,14.25s4.39,23.53,4.64,25-.38,3.65-2.53,2.46-14.95-13-20.19-6.6,2.47,26.14,3.27,28.31.45,3.17-.55,3.82-4.94-3.73-8.72-6.94-8.72-6.27-11.44-2.32-2.26,19.26,14.54,42.6l8.5,10.3,13.26-2c28.13-6,38.75-17,39.39-21.79s-5.07-5.8-10-6-10.81.44-11.12-.72.1-2.13,2.16-3.2,21-10.5,21.43-18.77-17-8.12-19.38-8.68-1.37-2.62-.22-3.52,14.15-11,20.23-15.4,8.82-8.91,6.71-13.14-9.54-2-13.09-2.25-2.41-4.56-2.41-4.56S389,262,396,243.21s-1.87-21-1.87-21" style="fill:#ebebeb"></path><path d="M334.82,374.12c5.24-13.8,15-38.17,23.22-59.13s15.69-39.94,21-53.71c2.64-6.88,4.79-12.45,6.27-16.32.74-1.91,1.32-3.4,1.71-4.43l.46-1.15a3.75,3.75,0,0,1,.17-.39s0,.14-.13.4l-.42,1.16c-.38,1-.93,2.54-1.63,4.47-1.43,3.87-3.53,9.46-6.16,16.36-5.24,13.8-12.64,32.8-20.89,53.76s-18,45.31-23.33,59.08" style="fill:#e0e0e0"></path><path d="M358.51,270.1a4.45,4.45,0,0,1,.42.87c.25.57.58,1.41,1,2.44.81,2.07,1.84,4.95,2.93,8.16s2,6,2.75,8.22c.33,1,.62,1.81.84,2.48a3.75,3.75,0,0,1,.28.92,3.8,3.8,0,0,1-.43-.86c-.24-.57-.58-1.41-1-2.45-.78-2.07-1.78-5-2.86-8.18s-2.06-6-2.81-8.19l-.86-2.48A4.08,4.08,0,0,1,358.51,270.1Z" style="fill:#e0e0e0"></path><path d="M368,293.31c0-.1,5.82-2.5,13.08-5.35s13.19-5.07,13.23-5-5.81,2.51-13.08,5.36S368,293.42,368,293.31Z" style="fill:#e0e0e0"></path><path d="M353.84,324.93a4.76,4.76,0,0,1,1-.13l2.67-.25c2.25-.2,5.36-.5,8.78-1s6.5-1,8.73-1.35l2.64-.46a5.31,5.31,0,0,1,1-.13,4,4,0,0,1-.95.28c-.61.16-1.5.36-2.61.59-2.22.47-5.31,1-8.74,1.48s-6.55.71-8.81.85c-1.13.06-2.05.1-2.68.11A4.24,4.24,0,0,1,353.84,324.93Z" style="fill:#e0e0e0"></path><path d="M340.68,305.82a4,4,0,0,1,.59.69l1.48,2c1.24,1.68,2.93,4,4.77,6.63s3.5,5,4.68,6.71l1.37,2.06a3.28,3.28,0,0,1,.46.79,3.84,3.84,0,0,1-.59-.7L352,322c-1.24-1.69-2.93-4-4.77-6.64s-3.5-5-4.68-6.7l-1.37-2.06A3.52,3.52,0,0,1,340.68,305.82Z" style="fill:#e0e0e0"></path><path d="M324.67,332.15a5.3,5.3,0,0,1,.75.9l1.91,2.53c1.6,2.15,3.79,5.14,6.18,8.46s4.55,6.33,6.09,8.53l1.8,2.61a6.47,6.47,0,0,1,.62,1,6,6,0,0,1-.75-.9l-1.91-2.53c-1.6-2.15-3.79-5.14-6.18-8.46s-4.55-6.33-6.09-8.53l-1.8-2.61A6.47,6.47,0,0,1,324.67,332.15Z" style="fill:#e0e0e0"></path><path d="M341.77,355.48a6.9,6.9,0,0,1,1.23-.21l3.37-.43c2.85-.36,6.78-.88,11.1-1.58s8.23-1.41,11-2l3.34-.65a10.16,10.16,0,0,1,1.24-.19,7.3,7.3,0,0,1-1.2.35c-.78.2-1.91.47-3.32.78-2.8.62-6.7,1.39-11,2.08s-8.27,1.17-11.13,1.47c-1.43.14-2.59.24-3.39.29A6.93,6.93,0,0,1,341.77,355.48Z" style="fill:#e0e0e0"></path></g><g id="freepik--Photo--inject-20"><rect x="53.37" y="365.91" width="73.03" height="58.38" transform="translate(-89.56 31.8) rotate(-13.47)" style="fill:#ebebeb"></rect><path d="M118.59,358.21l-.34.09-1,.25-3.86.95L98.87,363,47.62,375.4l.14-.23c4.05,16.9,8.7,36.27,13.62,56.77h0l-.26-.16,71-17L132,415c-4.06-17.11-7.42-31.29-9.78-41.2-1.16-5-2.08-8.86-2.71-11.52-.31-1.33-.54-2.34-.71-3l-.23-1.06s.09.33.26,1,.42,1.69.74,3c.65,2.65,1.59,6.52,2.79,11.46,2.41,9.93,5.84,24.13,10,41.26l0,.18-.17,0-71,17-.2.05L61,432h0L47.39,375.26l0-.18.19-.05L99,362.82l14.51-3.43,3.83-.89,1-.23Z" style="fill:#263238"></path><rect x="55.89" y="369.6" width="67.9" height="51.03" transform="translate(-89.56 31.79) rotate(-13.47)" style="fill:#00EEFF"></rect><g style="opacity:0.30000000000000004"><polygon points="62.76 427.83 78.44 391.46 97.35 407.34 104.56 394.7 128.79 412.02 62.76 427.83"></polygon></g><g style="opacity:0.30000000000000004"><path d="M97.88,382.81a5.35,5.35,0,1,1-6.44-3.95A5.34,5.34,0,0,1,97.88,382.81Z"></path></g></g><g id="freepik--screen-3--inject-20"><path d="M347.83,367.91h92.86a5.38,5.38,0,0,1,5.38,5.38V440a4.55,4.55,0,0,1-4.55,4.55H347a4.55,4.55,0,0,1-4.55-4.55V373.28A5.38,5.38,0,0,1,347.83,367.91Z" style="fill:#fff"></path><path d="M347.83,367.91h92.86a5.38,5.38,0,0,1,5.38,5.38v11.43a0,0,0,0,1,0,0H342.45a0,0,0,0,1,0,0V373.28A5.38,5.38,0,0,1,347.83,367.91Z" style="fill:#e0e0e0"></path><path d="M356.24,377.19a3.07,3.07,0,1,1-3.07-3.06A3.06,3.06,0,0,1,356.24,377.19Z" style="fill:#fff"></path><path d="M365.65,377.19a3.07,3.07,0,1,1-3.06-3.06A3.06,3.06,0,0,1,365.65,377.19Z" style="fill:#fff"></path><path d="M375.07,377.19a3.07,3.07,0,1,1-3.07-3.06A3.07,3.07,0,0,1,375.07,377.19Z" style="fill:#fff"></path><path d="M441.52,444.6s.31,0,.89-.12a4.65,4.65,0,0,0,2.29-1.25,4.84,4.84,0,0,0,1.29-4c0-1.71,0-3.69,0-5.92,0-8.92-.05-21.81-.08-37.73q0-6,0-12.5c0-2.17,0-4.39,0-6.65,0-1.12,0-2.28,0-3.41a5.21,5.21,0,0,0-1.17-3.07,5.27,5.27,0,0,0-2.85-1.74,7,7,0,0,0-1.73-.13H349.29a18.18,18.18,0,0,0-2.23.06,5.06,5.06,0,0,0-3.52,2.28,5.14,5.14,0,0,0-.76,2,20.18,20.18,0,0,0-.07,2.22v26.42c0,11.46,0,22.52,0,33.05v5.87a4.15,4.15,0,0,0,.39,1.77,4.35,4.35,0,0,0,2.63,2.34,5.36,5.36,0,0,0,1.8.2H363.9l26.06,0,37.72.08,10.26.05,2.67,0,.91,0-.91,0-2.67,0-10.26.05-37.72.08-26.06,0H347.51a5.66,5.66,0,0,1-1.94-.22,4.82,4.82,0,0,1-2.92-2.59,4.71,4.71,0,0,1-.43-2v-1.95c0-1.3,0-2.61,0-3.92,0-10.53,0-21.59,0-33.05q0-8.59,0-17.48v-8.94a19.73,19.73,0,0,1,.07-2.29,5.64,5.64,0,0,1,4.72-4.71,16.39,16.39,0,0,1,2.31-.07h33.2l33,0H440.1a7.57,7.57,0,0,1,1.83.14,5.69,5.69,0,0,1,3.08,1.9,5.59,5.59,0,0,1,1.26,3.32c0,1.17,0,2.3,0,3.43,0,2.26,0,4.48,0,6.65q0,6.53,0,12.5c0,15.92-.06,28.81-.08,37.73,0,2.23,0,4.21,0,5.92a5,5,0,0,1-1.38,4,4.67,4.67,0,0,1-2.35,1.24A3.4,3.4,0,0,1,441.52,444.6Z" style="fill:#263238"></path><rect x="351.73" y="395.75" width="37.43" height="37.43" style="fill:#e0e0e0"></rect><rect x="398.59" y="398.02" width="38.54" height="3.2" style="fill:#e0e0e0"></rect><rect x="398.59" y="405.35" width="38.54" height="3.2" style="fill:#e0e0e0"></rect><rect x="398.59" y="412.68" width="38.54" height="3.2" style="fill:#e0e0e0"></rect><rect x="398.59" y="420" width="38.54" height="3.2" style="fill:#e0e0e0"></rect></g><g id="freepik--device-2--inject-20"><path d="M322,469.31l-130.74-.08c-15.73,0-28.47-13.41-28.46-29.93l.06-344.45c0-16.53,12.76-29.93,28.5-29.92L322.07,65C337.8,65,350.54,78.42,350.53,95l-.06,344.44C350.47,455.93,337.71,469.32,322,469.31Z" style="fill:#263238"></path><path d="M321.93,77.19H296.59c-3.4,0-6.16,3-6.16,6.76v4.83c0,3.73-2.76,6.76-6.16,6.76l-49.41,0c-3.39,0-6.15-3-6.15-6.77V83.9c0-3.74-2.75-6.77-6.15-6.77h-8.92l-22.18,0c-11,0-20,9.38-20,21l-.06,336.2c0,11.58,8.92,21,19.93,21l130.48.08c11,0,19.95-9.38,19.95-21l.07-336.2C341.87,86.59,333,77.2,321.93,77.19Z" style="fill:#fff"></path><path d="M199.06,428.73v9.86a1.08,1.08,0,0,1-1.66.92l-7.76-4.93a1.09,1.09,0,0,1,0-1.84l7.76-4.93A1.08,1.08,0,0,1,199.06,428.73Z" style="fill:#e0e0e0"></path><path d="M262.8,433.57a6.8,6.8,0,1,1-6.8-6.82A6.81,6.81,0,0,1,262.8,433.57Z" style="fill:#e0e0e0"></path><rect x="311.62" y="427.64" width="12.55" height="12.58" rx="1.87" style="fill:#e0e0e0"></rect></g><g id="freepik--device-1--inject-20"><path d="M153,314.19l-35.39-7.78H37.2L86.91,315h65.83C153.66,315,153.85,314.33,153,314.19Z" style="fill:#e0e0e0"></path><path d="M21.55,256,37.2,306.41h80.38l-15.65-52.63A3.88,3.88,0,0,0,98.21,251h-73A3.88,3.88,0,0,0,21.55,256Z" style="fill:#e0e0e0"></path><path d="M36,306.42c0-.14,18.19-.26,40.62-.26s40.63.12,40.63.26-18.18.26-40.63.26S36,306.57,36,306.42Z" style="fill:#263238"></path><path d="M73.05,277.91a4.56,4.56,0,1,1-4.55-4.55A4.55,4.55,0,0,1,73.05,277.91Z" style="fill:#fff"></path><path d="M156.89,269c.1.11-6.67,6.32-15.12,13.86s-15.38,13.58-15.47,13.47S133,290,141.42,282.46,156.8,268.89,156.89,269Z" style="fill:#263238"></path><path d="M130.1,266.72c.13,0-1.42,4.54-3.48,10s-3.83,9.9-4,9.85,1.42-4.54,3.48-10S130,266.67,130.1,266.72Z" style="fill:#263238"></path><path d="M155.59,298.72c0,.15-5.18,1.06-11.63,2s-11.68,1.66-11.7,1.52,5.18-1,11.63-2S155.57,298.58,155.59,298.72Z" style="fill:#263238"></path><path d="M149.07,314.58a3.06,3.06,0,0,1-.68-.11l-1.95-.42-7.22-1.63-24.71-5.75-.15,0,0-.14c-1-3.39-2.07-7-3.17-10.7l-9.25-31.64-2.75-9.6c-.31-1.11-.55-2-.72-2.62-.07-.28-.13-.5-.18-.68s0-.24,0-.24,0,.07.09.22l.23.67.81,2.59,2.91,9.56c2.42,8.12,5.74,19.27,9.4,31.6,1.1,3.7,2.16,7.31,3.16,10.7l-.19-.17,24.67,5.92,7.19,1.78,1.93.5A6.27,6.27,0,0,1,149.07,314.58Z" style="fill:#263238"></path></g><g id="freepik--screen-2--inject-20"><path d="M317.48,87.11H379.1a5.38,5.38,0,0,1,5.38,5.38v43.64a4.55,4.55,0,0,1-4.55,4.55H316.65a4.55,4.55,0,0,1-4.55-4.55V92.49A5.38,5.38,0,0,1,317.48,87.11Z" style="fill:#fff"></path><path d="M317.48,87.11H379.1a5.38,5.38,0,0,1,5.38,5.38v6.36a0,0,0,0,1,0,0H312.1a0,0,0,0,1,0,0V92.49A5.38,5.38,0,0,1,317.48,87.11Z" style="fill:#e0e0e0"></path><path d="M321.73,93.6a2.15,2.15,0,1,1-2.14-2.14A2.14,2.14,0,0,1,321.73,93.6Z" style="fill:#fff"></path><path d="M328.3,93.6a2.14,2.14,0,1,1-2.14-2.14A2.14,2.14,0,0,1,328.3,93.6Z" style="fill:#fff"></path><circle cx="332.74" cy="93.6" r="2.14" style="fill:#fff"></circle><path d="M379.92,140.68s.21,0,.62-.07a4.43,4.43,0,0,0,1.7-.63,4.52,4.52,0,0,0,1.85-2.24c.45-1.09.24-2.49.28-4,0-6.18-.05-15.09-.08-26.08,0-2.75,0-5.64,0-8.64,0-1.5,0-3,0-4.6,0-.77,0-1.59,0-2.34a5,5,0,0,0-.7-2.18,5.13,5.13,0,0,0-3.82-2.5c-1.62-.08-3.36,0-5.07,0H364l-22.84,0H318.23a8.54,8.54,0,0,0-1.53.07,5.12,5.12,0,0,0-4.17,3.77,12.48,12.48,0,0,0-.17,3V97.3q0,6.15,0,12.09c0,7.92,0,15.56,0,22.84v2.71a7.52,7.52,0,0,0,.23,2.58,4.33,4.33,0,0,0,3.69,2.91c3.41,0,6.79,0,10,0l18,0,26.08.08,7.09,0,1.84,0c.42,0,.63,0,.63,0l-.63,0-1.84,0-7.09.05-26.08.08-18,0c-3.25,0-6.57,0-10.06,0a4.82,4.82,0,0,1-4.1-3.22,8,8,0,0,1-.26-2.73v-2.71c0-7.28,0-14.92,0-22.84V92.68a6.36,6.36,0,0,1,.18-1.61,5.67,5.67,0,0,1,4.6-4.15,9.83,9.83,0,0,1,1.61-.07h56.42c1.74,0,3.4,0,5.12.05a5.59,5.59,0,0,1,4.14,2.73,5.41,5.41,0,0,1,.75,2.36c0,.83,0,1.59,0,2.38,0,1.56,0,3.1,0,4.6,0,3,0,5.89,0,8.64,0,11-.07,19.9-.09,26.08,0,.76,0,1.49,0,2.17a5.08,5.08,0,0,1-.32,1.91,4.7,4.7,0,0,1-1.94,2.27,4.24,4.24,0,0,1-1.75.59A3.73,3.73,0,0,1,379.92,140.68Z" style="fill:#263238"></path><path d="M362.27,115a8.72,8.72,0,0,0-2.21-4.75,8.4,8.4,0,0,0-4.36-2.71,6.87,6.87,0,0,0-5.29,1,6.77,6.77,0,0,0-2.17,2.43,6.74,6.74,0,0,0-7.28-3.25,8.34,8.34,0,0,0-4.38,2.66,8.71,8.71,0,0,0-2.27,4.73,10.6,10.6,0,0,0,1.29,6.53,14.93,14.93,0,0,0,5.15,4.87c3.37,2.06,7.8,4.63,7.8,4.63s3.78-2.79,7.17-4.81a15,15,0,0,0,5.2-4.82A10.64,10.64,0,0,0,362.27,115Z" style="fill:#00EEFF"></path></g><g id="freepik--screen-1--inject-20"><path d="M68.5,54.05h70.35a5.38,5.38,0,0,1,5.38,5.38v50.1a4.55,4.55,0,0,1-4.55,4.55h-72a4.55,4.55,0,0,1-4.55-4.55V59.43A5.38,5.38,0,0,1,68.5,54.05Z" style="fill:#fff"></path><path d="M68.5,54.05h70.35a5.38,5.38,0,0,1,5.38,5.38v7.78a0,0,0,0,1,0,0H63.13a0,0,0,0,1,0,0V59.43A5.38,5.38,0,0,1,68.5,54.05Z" style="fill:#e0e0e0"></path><circle cx="71.52" cy="61.32" r="2.4" style="fill:#fff"></circle><circle cx="78.89" cy="61.32" r="2.4" style="fill:#fff"></circle><circle cx="86.26" cy="61.32" r="2.4" style="fill:#fff"></circle><path d="M139.68,114.08s.24,0,.7-.09a4.61,4.61,0,0,0,1.88-.78A4.47,4.47,0,0,0,144,110.5a9.73,9.73,0,0,0,.1-2.13c0-.77,0-1.58,0-2.45,0-6.94,0-17-.08-29.33,0-3.1,0-6.34,0-9.72,0-1.69,0-3.41,0-5.17,0-.87,0-1.78,0-2.64a5.14,5.14,0,0,0-.82-2.44,5.21,5.21,0,0,0-4.53-2.35H121l-25.69,0H69.46a12.2,12.2,0,0,0-1.73.07,5.12,5.12,0,0,0-4.31,4.49c-.06,2.28,0,4.64,0,6.93q0,6.9,0,13.59c0,8.91,0,17.5,0,25.69v3a7.68,7.68,0,0,0,.27,2.9,4.37,4.37,0,0,0,4.41,2.82H79.34l20.25,0,29.33.08,8,0,2.07,0,.71,0-.71,0-2.07,0-8,.05-29.33.08-20.25,0H68.05a5,5,0,0,1-2.92-.74,4.77,4.77,0,0,1-1.93-2.38,4.26,4.26,0,0,1-.3-1.54v-4.57c0-8.19,0-16.78,0-25.69V65.8c0-2.32,0-4.6,0-7a5.66,5.66,0,0,1,4.75-5,12.44,12.44,0,0,1,1.81-.07h69.19a5.6,5.6,0,0,1,4.89,2.56,5.46,5.46,0,0,1,.88,2.64c0,.92,0,1.79,0,2.67,0,1.76,0,3.48,0,5.17,0,3.38,0,6.62,0,9.72,0,12.37-.07,22.39-.09,29.33,0,.87,0,1.68,0,2.45a10.75,10.75,0,0,1-.12,2.16,4.66,4.66,0,0,1-1.88,2.77,4.59,4.59,0,0,1-1.93.75A3.17,3.17,0,0,1,139.68,114.08Z" style="fill:#263238"></path><path d="M121.5,99.56,119,96a12.61,12.61,0,0,1-2.32-7.29v-8a13,13,0,0,0-11-12.83v-3.8a1.75,1.75,0,0,0-1.75-1.75h0a1.74,1.74,0,0,0-1.74,1.75v3.74A13,13,0,0,0,90.7,80.77V89A12.66,12.66,0,0,1,88,96.83l-2.15,2.74Z" style="fill:#00EEFF"></path><path d="M101.8,105.34a5.62,5.62,0,0,0,5.83-1,5.51,5.51,0,0,0,1.47-2.26L98.72,102A5.62,5.62,0,0,0,101.8,105.34Z" style="fill:#00EEFF"></path></g><g id="freepik--Document--inject-20"><path d="M444.21,189.74l-36.67-9a4.73,4.73,0,0,1-3.46-5.72l12.42-50.76a4.73,4.73,0,0,1,5.72-3.46l23.26,5.69,13.46,23-9,36.79A4.74,4.74,0,0,1,444.21,189.74Z" style="fill:#00EEFF"></path><g style="opacity:0.30000000000000004"><path d="M445.48,126.51,442,140.8a4.39,4.39,0,0,0,3.22,5.31l13.74,3.37Z"></path></g><path d="M439,139.46c0,.18-3.87-.6-8.56-1.74s-8.45-2.23-8.4-2.41,3.88.59,8.56,1.74S439.09,139.28,439,139.46Z" style="fill:#fafafa"></path><path d="M448,150.22c0,.19-6.34-1.2-14-3.08s-13.92-3.57-13.88-3.76,6.33,1.2,14,3.09S448.07,150,448,150.22Z" style="fill:#fafafa"></path><path d="M448.89,157.58c-.05.19-6.9-1.33-15.3-3.39s-15.19-3.88-15.14-4.06,6.89,1.34,15.3,3.39S448.93,157.4,448.89,157.58Z" style="fill:#fafafa"></path><path d="M447.33,164c0,.18-6.9-1.34-15.3-3.4s-15.18-3.87-15.14-4.06,6.89,1.34,15.3,3.4S447.37,163.76,447.33,164Z" style="fill:#fafafa"></path><path d="M445.77,170.31c0,.18-6.89-1.34-15.3-3.39s-15.18-3.88-15.14-4.06,6.9,1.33,15.3,3.39S445.82,170.13,445.77,170.31Z" style="fill:#fafafa"></path><path d="M444.21,176.67c0,.19-6.89-1.33-15.3-3.39s-15.18-3.88-15.14-4.06,6.9,1.34,15.31,3.4S444.26,176.49,444.21,176.67Z" style="fill:#fafafa"></path></g><g id="freepik--Icons--inject-20"><path d="M436.25,392.6h0a26.12,26.12,0,0,1-26.12-26.11h0a26.13,26.13,0,0,1,26.12-26.12h0a26.12,26.12,0,0,1,26.11,26.12h0A26.11,26.11,0,0,1,436.25,392.6Z" style="fill:#00EEFF"></path><path d="M432.27,382.27h6.36V366.35h4.43l.48-5.33h-4.91v-3c0-1.26.25-1.76,1.46-1.76h3.45V350.7h-4.41c-4.73,0-6.86,2.09-6.86,6.07V361H429v5.4h3.31Z" style="fill:#fff"></path><path d="M227.13,80.54h0a29.21,29.21,0,0,1-29.21-29.21h0a29.2,29.2,0,0,1,29.21-29.2h0a29.2,29.2,0,0,1,29.2,29.2h0A29.2,29.2,0,0,1,227.13,80.54Z" style="fill:#455a64"></path><path d="M227.13,38.21c4.27,0,4.78,0,6.47.09a8.78,8.78,0,0,1,3,.55,5.33,5.33,0,0,1,3,3,8.78,8.78,0,0,1,.55,3c.08,1.69.1,2.2.1,6.47s0,4.79-.1,6.47a8.85,8.85,0,0,1-.55,3,5.33,5.33,0,0,1-3,3,8.78,8.78,0,0,1-3,.55c-1.69.08-2.2.09-6.47.09s-4.78,0-6.47-.09a8.91,8.91,0,0,1-3-.55,5,5,0,0,1-1.84-1.2,4.94,4.94,0,0,1-1.2-1.84,9.12,9.12,0,0,1-.55-3c-.07-1.68-.09-2.19-.09-6.47s0-4.78.09-6.47a9,9,0,0,1,.55-3,4.94,4.94,0,0,1,1.2-1.84,5,5,0,0,1,1.84-1.2,8.91,8.91,0,0,1,3-.55c1.69-.08,2.19-.09,6.47-.09m0-2.89c-4.35,0-4.9,0-6.6.1a11.71,11.71,0,0,0-3.89.74A7.91,7.91,0,0,0,213.8,38,7.71,7.71,0,0,0,212,40.84a11.74,11.74,0,0,0-.75,3.89c-.08,1.71-.1,2.25-.1,6.6s0,4.9.1,6.61a11.67,11.67,0,0,0,.75,3.88,7.67,7.67,0,0,0,1.84,2.84,7.91,7.91,0,0,0,2.84,1.85,12,12,0,0,0,3.89.74c1.7.08,2.25.1,6.6.1s4.89,0,6.6-.1a12,12,0,0,0,3.89-.74,8.23,8.23,0,0,0,4.68-4.69,11.67,11.67,0,0,0,.75-3.88c.07-1.71.09-2.26.09-6.61s0-4.89-.09-6.6a11.74,11.74,0,0,0-.75-3.89,8.25,8.25,0,0,0-4.68-4.68,11.77,11.77,0,0,0-3.89-.74c-1.71-.08-2.25-.1-6.6-.1" style="fill:#fff"></path><path d="M227.13,43.11a8.23,8.23,0,1,0,8.22,8.22,8.23,8.23,0,0,0-8.22-8.22m0,13.56a5.34,5.34,0,1,1,5.34-5.34,5.34,5.34,0,0,1-5.34,5.34" style="fill:#fff"></path><path d="M237.6,42.79a1.93,1.93,0,1,1-1.92-1.93,1.92,1.92,0,0,1,1.92,1.93" style="fill:#fff"></path><path d="M71,208.78h0a26.12,26.12,0,0,1-26.12-26.12h0A26.11,26.11,0,0,1,71,156.55h0a26.11,26.11,0,0,1,26.11,26.11h0A26.12,26.12,0,0,1,71,208.78Z" style="fill:#455a64"></path><path d="M85.35,181.94a14.06,14.06,0,0,0-28.1-.26c0,.2,0,.41,0,.61a13.84,13.84,0,0,0,2,7.21L56.71,197l7.79-2.48a14.08,14.08,0,0,0,20.86-12.22C85.36,182.17,85.36,182.05,85.35,181.94ZM71.3,194a11.79,11.79,0,0,1-6.51-1.94l-4.54,1.45,1.47-4.36a11.63,11.63,0,0,1-2.25-6.88,10.88,10.88,0,0,1,.06-1.14,11.83,11.83,0,0,1,23.55.23,9.1,9.1,0,0,1,0,.91A11.79,11.79,0,0,1,71.3,194Z" style="fill:#fff;fill-rule:evenodd"></path><path d="M77.74,185.11c-.35-.17-2-1-2.35-1.11s-.55-.17-.78.17-.9,1.11-1.09,1.33-.41.26-.75.09a9.29,9.29,0,0,1-2.78-1.7,10.24,10.24,0,0,1-1.91-2.36c-.2-.34,0-.53.15-.7s.34-.4.52-.6a1.33,1.33,0,0,0,.12-.16c.08-.13.14-.25.22-.41a.63.63,0,0,0,0-.6c-.09-.17-.78-1.86-1.07-2.54s-.57-.57-.78-.57-.43,0-.66,0a1.25,1.25,0,0,0-.92.43,3.84,3.84,0,0,0-1.2,2.85,4.59,4.59,0,0,0,.17,1.17,7.59,7.59,0,0,0,1.24,2.37c.17.22,2.38,3.79,5.88,5.17s3.51.91,4.14.85a3.47,3.47,0,0,0,2.33-1.63,2.78,2.78,0,0,0,.2-1.63C78.32,185.37,78.09,185.28,77.74,185.11Z" style="fill:#fff;fill-rule:evenodd"></path><path d="M416.16,263a24,24,0,0,0,13,3.81c15.76,0,24.67-13.31,24.13-25.25a17.35,17.35,0,0,0,4.24-4.39,17,17,0,0,1-4.88,1.33,8.5,8.5,0,0,0,3.73-4.69,17,17,0,0,1-5.39,2.06,8.49,8.49,0,0,0-14.46,7.74,24.08,24.08,0,0,1-17.5-8.87,8.5,8.5,0,0,0,2.63,11.33,8.33,8.33,0,0,1-3.85-1.06,8.5,8.5,0,0,0,6.81,8.43,8.48,8.48,0,0,1-3.83.15,8.48,8.48,0,0,0,7.93,5.89A17.08,17.08,0,0,1,416.16,263Z" style="fill:#455a64"></path></g><g id="freepik--Character--inject-20"><polygon points="173.24 247.16 178.1 221.3 191.98 219.31 190.92 247.16 173.24 247.16" style="fill:#cc675d"></polygon><path d="M191.78,224.75s7.12-4.35,10.1-9.51,10.32-8.34,9.72-9.73-4-2.18-5.95-1-6.55,6.58-8.53,4-2.26-15.17-2.66-19.14-1.85-7.42-3.24-6.48-2,1.59-1.57,6.24c.38,4.39.52,12.41-.67,11s-1.59-19.65-3.18-20a3,3,0,0,0-3.57,3.23c.2,2.33.17,19.59,0,17.21s-1.18-10.07-2.46-13.28c-1-2.42-3.45.59-3,2.77s2.74,16.07,1.75,15.87c0,0-2.18-11.11-3.17-11.71s-2.66,2.16-2.19,4.57c.74,3.77,2,11.11,2.38,15.87s2.58,10.72,4,11.31S191.78,224.75,191.78,224.75Z" style="fill:#cc675d"></path><path d="M184.16,216.3s.05-.25.24-.67a7.11,7.11,0,0,1,1.1-1.62,8.57,8.57,0,0,1,5.7-2.83c1.3-.09,2.47.19,3.49.11a5.84,5.84,0,0,0,2.59-.86c1.36-.84,2.13-1.51,2.18-1.44s-.14.22-.47.54a12.27,12.27,0,0,1-1.52,1.21,5.83,5.83,0,0,1-2.74,1c-1.12.11-2.3-.16-3.49-.07a8.72,8.72,0,0,0-5.47,2.56A22.56,22.56,0,0,0,184.16,216.3Z" style="fill:#9c4741"></path><g style="opacity:0.30000000000000004"><path d="M349.92,340.54c-2.94-3.28-8.17-2.05-12.55-1.64-13.4,1.22-25.9-8.42-32.2-20.3s-7.73-25.67-9-39.06c-.49-5-.71-10.82,2.95-14.3,3-2.87,7.59-3.08,11.73-3.5a72,72,0,0,0,26.38-8c4-2.1,7.88-4.69,10.35-8.47s3.2-9,.79-12.77c-2.63-4.15-7.94-5.52-12.76-6.46a391.89,391.89,0,0,0-58.34-6.91c.94-11.73,1.88-23.57.22-35.22s-6.16-23.24-14.66-31.38-21.42-12.18-32.49-8.2a26.52,26.52,0,0,0-1.38,49.38c7,3,16.16,3.61,19.69,10.36,2.37,4.54,1,10.31-2.06,14.44s-7.42,7-11.62,9.94a256.65,256.65,0,0,0-44.05,38.81l-11.33,17.14c-1.3,5.4,4.76,10.25,10.3,10s10.31-3.82,14.71-7.21,9.23-6.89,14.78-7c7.42-.15,13.75,6.11,16.12,13.14s1.65,14.69.83,22.07c-1.42,12.78-4.25,27.39-15.47,33.66-5.92,3.31-13,3.5-19.56,5.31s-13.35,6.47-13.65,13.25c-.26,6.05,4.79,11,10.06,14s27.31,3.73,31.61,8c5.05,5,1.49,9.87,1.23,19.67-.16,5.92,1.49,12.43,5.89,16.4s6,5.35,11.49,3.15c8.84-3.54,10.6-15,15.2-23.31,2.78-5,7.23-9.42,12.79-10.86s12.22.69,14.94,5.76c2.1,3.91,2.22,9.52,6.28,11.31,4.6,2,9.33-3.44,9.64-8.46s-1.76-10-1.35-15c.84-10.43,11.55-16.87,21.21-20.89s20.71-8.54,24.18-18.41C351.78,346.23,351.91,342.77,349.92,340.54Z"></path></g><polygon points="283.55 387.5 298.86 380.67 287.49 356.27 271.22 364.87 283.55 387.5" style="fill:#ffbf9d"></polygon><path d="M273.36,364.68,249.93,377.9l-9.5,1.32c-3.6.5-2.51,3.32-2,6.92l6.11,43.95s4.7,1.46,5.63-2,11.07-29.89,11.07-29.89l22.37-10.78Z" style="fill:#e0e0e0"></path><path d="M273.36,364.68s.07.12.19.38.3.66.53,1.15c.48,1,1.17,2.54,2.06,4.47l7.6,16.7.07.14-.14.07-22.35,10.82.1-.11c-2,5.39-4.22,11.16-6.5,17.21-1.13,3-2.29,6.13-3.41,9.3-.29.79-.56,1.59-.83,2.39-.14.41-.23.79-.39,1.22a2.5,2.5,0,0,1-.29.62l-.18.29-.23.26a3.66,3.66,0,0,1-2.48,1,7.92,7.92,0,0,1-2.65-.3l-.14,0,0-.14-.06-.46c-1.66-11.94-3.23-23.33-4.67-33.71-.36-2.6-.7-5.13-1-7.59-.18-1.23-.33-2.44-.53-3.63a11.44,11.44,0,0,1-.24-3.6,2.28,2.28,0,0,1,1-1.54,4.41,4.41,0,0,1,1.68-.57l3.29-.45,6.19-.84-.05,0,17.23-9.62,4.67-2.58,1.21-.67.4-.21s-.14.1-.42.26l-1.22.71-4.65,2.67L250,378H250l-6.19.87-3.29.47a3.81,3.81,0,0,0-1.52.51,1.89,1.89,0,0,0-.82,1.3,11.18,11.18,0,0,0,.26,3.47c.21,1.19.36,2.41.53,3.64.35,2.46.7,5,1.07,7.58,1.44,10.38,3,21.77,4.7,33.71q0,.24.06.45l-.16-.18a7.79,7.79,0,0,0,2.49.28,3.23,3.23,0,0,0,2.18-.88,5.51,5.51,0,0,0,1-2.22c.27-.81.55-1.61.83-2.4,1.13-3.18,2.29-6.28,3.42-9.31l6.54-17.2,0-.07.07,0,22.39-10.73-.07.2-7.41-16.68-2-4.54-.52-1.19Z" style="fill:#263238"></path><path d="M274.45,361.87l-5.64,3.63a2,2,0,0,0-.7,2.59l10.54,20.75a2,2,0,0,0,2.51,1l6.08-2.35a2,2,0,0,0,1.07-2.76l-11-22A2,2,0,0,0,274.45,361.87Z" style="fill:#e0e0e0"></path><path d="M279,389.66a21.22,21.22,0,0,1-2-3c-1.17-1.9-2.72-4.56-4.27-7.59s-2.79-5.85-3.6-7.93c-.41-1-.72-1.88-.92-2.48a2.94,2.94,0,0,1-.25-.93,28.7,28.7,0,0,1,1.52,3.26c.91,2,2.2,4.81,3.74,7.83s3,5.7,4.11,7.65A24.75,24.75,0,0,1,279,389.66Z" style="fill:#263238"></path><path d="M269.89,370.62A8.43,8.43,0,0,1,274,367.3a8.61,8.61,0,0,1,5.23-.79c0,.18-2.39.12-5,1.29A23.78,23.78,0,0,0,269.89,370.62Z" style="fill:#263238"></path><path d="M272.79,378.73a22.75,22.75,0,0,1,4.76-3,22.32,22.32,0,0,1,5.17-2.23,42.41,42.41,0,0,1-4.91,2.72A40.8,40.8,0,0,1,272.79,378.73Z" style="fill:#263238"></path><path d="M277.87,386.6a18.45,18.45,0,0,0,4.77-2.34,18.06,18.06,0,0,0,3.52-4,3.45,3.45,0,0,1-.59,1.5,10.21,10.21,0,0,1-2.6,2.92,10,10,0,0,1-3.5,1.72A3.45,3.45,0,0,1,277.87,386.6Z" style="fill:#263238"></path><path d="M239.12,389.29c0-.09.81-.3,2-.9a11.93,11.93,0,0,0,6.41-7.93c.33-1.32.36-2.17.45-2.17a5.24,5.24,0,0,1-.07,2.25,11,11,0,0,1-6.63,8.21A5.15,5.15,0,0,1,239.12,389.29Z" style="fill:#263238"></path><path d="M242.72,417.12a3.53,3.53,0,0,1,1.55-.63,7.14,7.14,0,0,1,4,.25,9.94,9.94,0,0,1,3.4,2.2,4.19,4.19,0,0,1,1.05,1.29c-.06.06-.53-.37-1.31-1a12,12,0,0,0-3.33-2,7.94,7.94,0,0,0-3.79-.39A8.73,8.73,0,0,1,242.72,417.12Z" style="fill:#263238"></path><path d="M219,332.72s-23-2.87-30.3-1.38-21.13,10.15-19.8,23.3,10,22.56,20.66,24.23,70.11,7.69,93.14,7.38c19.5-.26,30.09-5.2,27.87-8.24,0,0,20.53-7.81,22.67-8.72,1.65-.71,31.82-15.65,35-21.14s10.65-24.13-2.49-33.45-35.61-3-39.6,0c-2,1.47-5.46,2.5-12.49,7.63l-6.71-4.62c-.48.36-54.51,4.14-75.89,5.11C227.36,323,219,332.72,219,332.72Z" style="fill:#263238"></path><path d="M283.44,364.84c-.59-2.55-.86-3.48-.2-5.13a14.91,14.91,0,0,1,3.06-4.32c.8-.88,1.74-1.83,2.93-1.85,1.51,0,2.57,1.43,3.36,2.71q4.4,7,9.36,13.69c1.9,2.55,3.93,5.11,6.68,6.71,1,.58,2.26,1.29,2.21,2.46,0,.92-.93,1.54-1.73,2a35.32,35.32,0,0,1-4.7,2.21,7.45,7.45,0,0,1-9-1.44,36.64,36.64,0,0,1-12.15-17.59" style="fill:#263238"></path><path d="M283.27,364.28a.74.74,0,0,1,.09.21l.23.62c.19.56.49,1.36.93,2.38a35.41,35.41,0,0,0,4.83,8,40.34,40.34,0,0,0,4.41,4.71c.86.77,1.77,1.57,2.75,2.3a7.2,7.2,0,0,0,3.38,1.47,8.79,8.79,0,0,0,3.84-.62,34.28,34.28,0,0,0,3.83-1.65c.63-.32,1.28-.65,1.87-1a2.22,2.22,0,0,0,1.18-1.51,2,2,0,0,0-1-1.62c-.58-.41-1.27-.75-1.9-1.19a27,27,0,0,1-6.08-6.45c-1.7-2.3-3.29-4.55-4.76-6.72s-2.83-4.26-4.07-6.24a9.92,9.92,0,0,0-2-2.61,2.48,2.48,0,0,0-1.35-.59,2.39,2.39,0,0,0-1.36.32,8.87,8.87,0,0,0-2,1.86,22.23,22.23,0,0,0-1.61,1.93,6.88,6.88,0,0,0-1.48,3.62,11.64,11.64,0,0,0,.34,2.51c0,.26.09.48.13.65a.8.8,0,0,1,0,.23,1.8,1.8,0,0,1-.07-.22l-.17-.64a10.53,10.53,0,0,1-.43-2.53,7,7,0,0,1,1.45-3.77,24.31,24.31,0,0,1,1.6-2,9.19,9.19,0,0,1,2.1-1.95,2.73,2.73,0,0,1,1.55-.37A2.85,2.85,0,0,1,291,354a10.11,10.11,0,0,1,2.1,2.69c1.25,2,2.61,4,4.09,6.21s3.08,4.4,4.78,6.68a26.56,26.56,0,0,0,6,6.34c.61.43,1.28.75,1.92,1.21a3.66,3.66,0,0,1,.85.82,1.87,1.87,0,0,1,.34,1.19,2.64,2.64,0,0,1-1.39,1.86c-.63.4-1.27.71-1.91,1a35.07,35.07,0,0,1-3.88,1.66,9.1,9.1,0,0,1-4,.63,7.49,7.49,0,0,1-3.56-1.57,32.56,32.56,0,0,1-2.77-2.35,38.31,38.31,0,0,1-4.41-4.78,33.28,33.28,0,0,1-4.74-8.11,23.63,23.63,0,0,1-.86-2.41c-.07-.26-.13-.47-.18-.64A1.63,1.63,0,0,1,283.27,364.28Z" style="fill:#455a64"></path><path d="M338.41,317a3.57,3.57,0,0,0-.62,0,13.78,13.78,0,0,0-1.74.41c-1.49.43-3.63,1.16-6.26,2.09-1.3.46-2.79,1-4.31,1.46a16.2,16.2,0,0,0-4,3.25c-2.66,2.56-5.57,5.38-8.59,8.38-6.05,6-11.36,11.59-15.09,15.75-1.87,2.07-3.34,3.78-4.37,5-.48.56-.88,1-1.17,1.36a4.25,4.25,0,0,1-.44.45,3.59,3.59,0,0,1,.37-.51l1.11-1.42c1-1.21,2.42-2.95,4.26-5.05,3.67-4.22,8.95-9.86,15-15.86,3-3,5.95-5.82,8.62-8.37a16.53,16.53,0,0,1,4.14-3.28c1.61-.5,3-1,4.35-1.42,2.65-.9,4.81-1.58,6.33-2a11.34,11.34,0,0,1,1.77-.33,1.51,1.51,0,0,1,.48,0C338.36,317,338.41,317,338.41,317Z" style="fill:#455a64"></path><path d="M258.61,359.94a4.69,4.69,0,0,1-.6-.26l-1.67-.83-6.13-3.11-9.05-4.67a90.15,90.15,0,0,0-11.26-5.27,32.77,32.77,0,0,0-6.24-1.46,9.71,9.71,0,0,1-3-.92,8,8,0,0,1-2.24-2,8.65,8.65,0,0,0-4.45-2.78,16,16,0,0,0-4.65-.51c-2.88.09-5.22.42-6.85.42a16.18,16.18,0,0,1-1.87-.05,2.8,2.8,0,0,1-.65-.09h.65c.43,0,1.06,0,1.86,0,1.62-.05,3.94-.43,6.85-.56a16.08,16.08,0,0,1,4.76.47,10.31,10.31,0,0,1,2.48,1,8.47,8.47,0,0,1,2.18,1.84,7.67,7.67,0,0,0,2.13,1.89,9.32,9.32,0,0,0,2.86.86,32.77,32.77,0,0,1,6.32,1.47,86.89,86.89,0,0,1,11.3,5.33l9,4.75,6.06,3.25,1.63.9A3.42,3.42,0,0,1,258.61,359.94Z" style="fill:#455a64"></path><polygon points="269.78 389.19 254.04 385.98 259.6 360.8 276.61 365.47 269.78 389.19" style="fill:#ffbf9d"></polygon><path d="M274.57,365.74l24.66,7.49,7.64-.61a4.32,4.32,0,0,1,4.67,4l3.58,44.34s-5.21,1.2-6.79-1.82-15.45-24.52-15.45-24.52l-23.16-5.43Z" style="fill:#e0e0e0"></path><path d="M274.57,365.74s0,.15-.08.43-.13.7-.23,1.22c-.22,1.08-.53,2.65-.93,4.66-.81,4-2,9.88-3.46,17.14l-.12-.19,23.18,5.39.08,0,0,.07,9.4,14.66c1.63,2.59,3.31,5.23,5,7.95.42.67.82,1.4,1.22,2.07a3.37,3.37,0,0,0,1.74,1.38,9,9,0,0,0,4.7.17l-.18.24c0-.09,0-.18,0-.27-.91-11.38-1.78-22.24-2.57-32.14q-.3-3.71-.58-7.23c-.09-1.18-.18-2.33-.27-3.47-.06-.56-.07-1.15-.16-1.67a4.07,4.07,0,0,0-.59-1.48,4.17,4.17,0,0,0-2.48-1.78,10.54,10.54,0,0,0-3.07,0l-5.91.47h-.06l-18-5.55-4.91-1.54-1.29-.41-.44-.15.42.11,1.27.37,4.89,1.45,18.13,5.41h-.06l5.9-.49,1.56-.13a4.74,4.74,0,0,1,1.63.11,4.51,4.51,0,0,1,3.36,3.53c.1.6.11,1.14.17,1.72.09,1.14.19,2.29.28,3.47.19,2.34.39,4.76.59,7.23.81,9.9,1.69,20.75,2.61,32.14l0,.26,0,.2-.19,0a9.38,9.38,0,0,1-5-.19,3.77,3.77,0,0,1-2-1.57c-.42-.71-.79-1.38-1.21-2.06-1.65-2.72-3.32-5.37-5-7.95l-9.36-14.68.12.09-23.15-5.48-.15,0,0-.15c1.55-7.29,2.79-13.15,3.65-17.21l1-4.61.26-1.18C274.53,365.87,274.57,365.74,274.57,365.74Z" style="fill:#263238"></path><path d="M272.66,362.19l7,2.59a2,2,0,0,1,1.26,2.4l-5.85,22.75a2,2,0,0,1-2.26,1.49l-6.51-1a2,2,0,0,1-1.66-2.48l6.18-24.8A1.4,1.4,0,0,1,272.66,362.19Z" style="fill:#e0e0e0"></path><path d="M272.66,362.19a2.07,2.07,0,0,0-.73,0,1.29,1.29,0,0,0-.74.45,2.54,2.54,0,0,0-.42,1.14c-.45,1.88-1.08,4.53-1.86,7.78s-1.77,7.2-2.83,11.54l-.82,3.33c-.14.56-.27,1.13-.41,1.71a1.8,1.8,0,0,0,1.07,2,3.26,3.26,0,0,0,.84.18l1.85.28,3.78.56a3.71,3.71,0,0,0,.9.09,1.92,1.92,0,0,0,.8-.28,1.85,1.85,0,0,0,.58-.6,3.11,3.11,0,0,0,.28-.83c.32-1.22.63-2.41.93-3.59l1.76-6.79,3-11.49a3.07,3.07,0,0,0,.18-1.16,1.84,1.84,0,0,0-.42-1c-.43-.57-1.19-.69-1.81-1l-3.21-1.23-2-.79a4.89,4.89,0,0,1-.7-.31,5,5,0,0,1,.73.22l2.06.72,3.24,1.15,1,.36a2.11,2.11,0,0,1,1,.66,2.18,2.18,0,0,1,.49,1.14,3.4,3.4,0,0,1-.17,1.27l-2.91,11.51q-.84,3.25-1.74,6.8l-.92,3.59a3.48,3.48,0,0,1-.33.95,2.31,2.31,0,0,1-.73.76,2.3,2.3,0,0,1-1.53.33l-.48-.08-3.78-.56-1.85-.28a3.93,3.93,0,0,1-.95-.22,2.25,2.25,0,0,1-1.33-2.46c.14-.61.29-1.16.43-1.74.28-1.13.56-2.24.84-3.32,1.09-4.33,2.08-8.23,2.92-11.52s1.52-5.87,2-7.75a2.63,2.63,0,0,1,.48-1.18,1.41,1.41,0,0,1,.83-.45,1.24,1.24,0,0,1,.57,0C272.61,362.15,272.67,362.19,272.66,362.19Z" style="fill:#263238"></path><path d="M279.73,370.06a10.19,10.19,0,0,0-10.1-2,23.53,23.53,0,0,1,5.21.18A24.05,24.05,0,0,1,279.73,370.06Z" style="fill:#263238"></path><path d="M278,378.61a20.92,20.92,0,0,0-5-1.85,21.86,21.86,0,0,0-5.23-1.06,37.25,37.25,0,0,0,5.1,1.56A38.76,38.76,0,0,0,278,378.61Z" style="fill:#263238"></path><path d="M275.36,387.55c0-.18-2.51,0-5.21-1.26a18.55,18.55,0,0,1-4.34-3.15,3.56,3.56,0,0,0,.91,1.35,10.31,10.31,0,0,0,3.19,2.31,10.42,10.42,0,0,0,3.83.93A3.64,3.64,0,0,0,275.36,387.55Z" style="fill:#263238"></path><path d="M311.7,381.64c0-.08-.82-.1-2.08-.41a11.46,11.46,0,0,1-7.65-6.09c-.58-1.16-.78-2-.87-1.94a5.07,5.07,0,0,0,.54,2.09,10.48,10.48,0,0,0,3.15,4.16,10.67,10.67,0,0,0,4.75,2.14A5,5,0,0,0,311.7,381.64Z" style="fill:#263238"></path><path d="M314.11,408.42a3.43,3.43,0,0,0-1.58-.27,6.84,6.84,0,0,0-3.73,1.08,9.24,9.24,0,0,0-2.72,2.76,3.79,3.79,0,0,0-.72,1.43c.07,0,.41-.46,1-1.21a11.61,11.61,0,0,1,2.71-2.54,7.53,7.53,0,0,1,3.46-1.15A8.31,8.31,0,0,0,314.11,408.42Z" style="fill:#263238"></path><path d="M259.71,388.63c4.53-5.91,6.36-13.5,6.69-20.93a9.39,9.39,0,0,0-.73-4.85,8.73,8.73,0,0,0-2.82-2.82,31,31,0,0,0-5.35-3,2,2,0,0,0-1.71-.17c-.62.34-.71,1.17-.74,1.87a69.7,69.7,0,0,1-6.16,25.82,2.46,2.46,0,0,0,1.92,3.48l4.27.57A15.67,15.67,0,0,0,259.71,388.63Z" style="fill:#263238"></path><path d="M259.71,388.63l-.2.05-.62.1a14.81,14.81,0,0,1-2.38.07c-1,0-2.29-.23-3.75-.4-.73-.1-1.49-.16-2.34-.32a2.61,2.61,0,0,1-1.85-1.92,2.71,2.71,0,0,1,.08-1.49c.19-.47.39-.9.59-1.37.39-.93.78-1.89,1.16-2.91.76-2,1.48-4.23,2.11-6.58a72,72,0,0,0,2.35-15.64,2.68,2.68,0,0,1,.35-1.09,1.32,1.32,0,0,1,1-.6,5,5,0,0,1,2.07.65,29.87,29.87,0,0,1,3.57,2,15.16,15.16,0,0,1,3.12,2.44,6,6,0,0,1,1.53,3.49,19.65,19.65,0,0,1,0,3.6c-.07,1.16-.19,2.28-.32,3.36A43.79,43.79,0,0,1,265,378a31.64,31.64,0,0,1-3.43,8,22.67,22.67,0,0,1-1.35,2l-.38.48a1,1,0,0,1-.14.16.69.69,0,0,1,.11-.19c.09-.14.21-.31.34-.52.31-.43.75-1.11,1.26-2a32.76,32.76,0,0,0,3.28-8,43.53,43.53,0,0,0,1.14-5.9c.13-1.07.24-2.19.3-3.34a18.82,18.82,0,0,0,0-3.52,5.59,5.59,0,0,0-1.43-3.25,15.31,15.31,0,0,0-3-2.36,31.26,31.26,0,0,0-3.52-1.92,4.79,4.79,0,0,0-1.85-.61c-.61,0-.92.63-1,1.3A71.06,71.06,0,0,1,252.91,374a69.33,69.33,0,0,1-2.16,6.61c-.38,1-.79,2-1.19,2.91-.2.46-.42.92-.59,1.35a2.23,2.23,0,0,0-.08,1.3,2.28,2.28,0,0,0,1.6,1.71c.78.16,1.59.23,2.31.35,1.45.19,2.7.41,3.72.48a18.7,18.7,0,0,0,2.37,0l.61-.05C259.64,388.62,259.71,388.62,259.71,388.63Z" style="fill:#455a64"></path><path d="M257.19,356.17c-.1.06-.85-1.31-2.3-3.34a39.41,39.41,0,0,0-6.6-7.11,38.69,38.69,0,0,0-8.18-5.23c-2.26-1.07-3.73-1.56-3.7-1.67a3.64,3.64,0,0,1,1.08.23,22.8,22.8,0,0,1,2.82,1,33.52,33.52,0,0,1,15,12.51,24.36,24.36,0,0,1,1.49,2.59A3.71,3.71,0,0,1,257.19,356.17Z" style="fill:#455a64"></path><path d="M299.32,336.36a22,22,0,0,1-2.27,2.67c-1.43,1.62-3.34,3.92-5.26,6.59s-3.47,5.22-4.55,7.09a21.79,21.79,0,0,1-1.8,3,14.34,14.34,0,0,1,1.38-3.25,55.74,55.74,0,0,1,4.42-7.26,57.44,57.44,0,0,1,5.45-6.52A14.46,14.46,0,0,1,299.32,336.36Z" style="fill:#455a64"></path><path d="M245,120a7.2,7.2,0,0,0-6.26-1.35,4.27,4.27,0,0,1-2.64.26,5.77,5.77,0,0,1-1.43-1.28,3.66,3.66,0,0,0-5.23.54,4.22,4.22,0,0,1-.89,1.15c-1.62,1.12-4-1.86-5.55-.72a4.14,4.14,0,0,1,2.12,1.26,1.87,1.87,0,0,1,.09,2.31c-1.43,1.63-4.5-1.2-6.15.21-.89.76-.81,2.43-1.9,2.85a4.07,4.07,0,0,1-1.35.07,3,3,0,0,0-2.83,3c0,1.29.88,2.77,0,3.75a2.77,2.77,0,0,1-2.24.62,7.72,7.72,0,0,0,1.28,3.28,4.68,4.68,0,0,0-.75,6.47,10,10,0,0,0-2.33,3.09,3.47,3.47,0,0,0,.45,3.66,3.67,3.67,0,0,1,.59.66,1.87,1.87,0,0,1,.12.94,16.35,16.35,0,0,0-.27,3.68c.2,1.21,1.28,2.44,2.49,2.17.28-.06.58-.2.84-.07a.81.81,0,0,1,.37.51,8.69,8.69,0,0,1,.17,2.65,3.52,3.52,0,0,0,.72,2.49,1.53,1.53,0,0,0,2.31,0c-.17,1.41-.35,2.81-.52,4.22-.1.84-.14,1.83.53,2.35.87.68,2.19-.12,2.66-1.12s.47-2.17,1-3.16a6.16,6.16,0,0,0,.59-1.21,2.2,2.2,0,0,1,.33-1c.49-.53,1.44.13,1.45.84A3.72,3.72,0,0,1,222,165a1.83,1.83,0,0,0-.19,2c.21.28.56.43.76.71.72,1-.67,2.16-.7,3.36a2.9,2.9,0,0,0,1.42,2.12c.86.65,2.41,1.07,2.76.05a10.17,10.17,0,0,0,.09-1.11,2.81,2.81,0,0,1,.72-1.09,5.6,5.6,0,0,0,1.3-2.95c-.76,1.23-1.52,2.83-.71,4a5.75,5.75,0,0,0,1.36,1.18c.93.74,1.58,1.78,2.5,2.53s2.32,1.17,3.27.46a2.68,2.68,0,0,0,4.79,2,2.25,2.25,0,0,1,.64-.73,1.91,1.91,0,0,1,1-.11,5.8,5.8,0,0,0,5.26-3l-1.1-.23a13.57,13.57,0,0,0,5.72-2.52c1.56-1.4,2.37-3.88,1.23-5.65-.49-.76-1.35-1.5-1.12-2.38.16-.61.78-1,1.34-1.24l7-3.55a7,7,0,0,0,3-2.29c.66-1.09.51-2.77-.63-3.33a6.84,6.84,0,0,1,2.2-3.1c1.13-.89,2.52-1.41,3.69-2.25s2.16-2.22,1.88-3.63-2.39-2.26-3.24-1.09c-.08-2.17,3.73-2.81,3.78-5,.05-1.76-2.29-2.37-3.61-3.55.16-.63.72-1.09.9-1.72.36-1.31-1.1-2.39-2.4-2.81s-2.87-.82-3.34-2.1.49-3-.39-4.07a1.55,1.55,0,0,0-2.08-.24c-1.31-2.34-5.73.13-7.39-2a1,1,0,0,1-.24-.58,1.1,1.1,0,0,1,.17-.52,11.12,11.12,0,0,1,1.86-1.83,2.13,2.13,0,0,0,.66-2.35c-.42-.77-1.95-.54-1.82.32a1.93,1.93,0,0,0-2.82,1.11,2.1,2.1,0,0,0-2.61.1,6.08,6.08,0,0,0-1.57,2.34" style="fill:#263238"></path><path d="M236.84,148.84c.39-3.64,2.72-6.81,5.39-9.32a9.35,9.35,0,0,1,3.85-2.46,4,4,0,0,1,4.18,1.19l.06,2.56c.75,4-2,7.75-3.11,11.69-.47,1.71-.79,3.74-2.34,4.61a3.84,3.84,0,0,1-2.73.27C238.56,156.55,236.45,152.48,236.84,148.84Z" style="fill:#00EEFF"></path><path d="M238.47,167.59a8.18,8.18,0,0,1-.23-10.5c-1.67-1.73-1.4-4.67-.05-6.66s3.51-3.26,5.6-4.47a11.06,11.06,0,0,1,12.09-9.19c2.47-4.43,8.47-5.64,13.46-4.67a13.21,13.21,0,0,0,3.68.45,22.29,22.29,0,0,0,2.66-.62c4.89-1.12,10.11,1.9,12.46,6.31a9,9,0,0,0,1.24,2A12.3,12.3,0,0,0,292,142a7.93,7.93,0,0,1,3.55,5.55c.26,1.9-.17,4,.8,5.66a28.7,28.7,0,0,1,1.68,2.34c1.16,2.55-1.52,5.51-.73,8.19.16.54.46,1,.67,1.57a4.85,4.85,0,0,1,0,3.42,7.13,7.13,0,0,0-.85,2.54,8,8,0,0,0,.58,2c.49,1.6-2.46,8.21-3.8,9.22l-42.18,4.25a7.89,7.89,0,0,1-6.72-6.21,2.82,2.82,0,0,0-.54-1.51,3.24,3.24,0,0,0-1.22-.64c-2.85-1.21-3.52-4.9-3.51-8a3.94,3.94,0,0,0-.14-1.28A4.78,4.78,0,0,0,238.47,167.59Z" style="fill:#263238"></path><path d="M250.2,166.54c-.8-7.44,3.1-16.43,10.19-20.75,4.46-2.73,8.11-3.08,10.55-3.59a17.23,17.23,0,0,1,10.14,1.17c2.38.33,11.62,7.33,12.84,15.74,1.35,9.34,2.63,20.79,2.08,27.88-1.11,14.27-11.79,16.94-11.79,16.94s1.44,10.65,1.44,10.65l-14.87,8.86L255,216.78Z" style="fill:#cc675d"></path><path d="M275.25,187.09a2.82,2.82,0,0,1,.72-1.82,2.85,2.85,0,0,1,3.39-.66c1.13.57,1.43,1.76,1.42,3.15h0c-.47.87-.79,1.72-1.76,1.94a4,4,0,0,1-.46.07,3.09,3.09,0,0,1-2.19-.53A2.79,2.79,0,0,1,275.25,187.09Z" style="fill:#9c4741"></path><path d="M284.94,170.61c.19-.27,1.69.55,3.63.28s3.22-1.43,3.47-1.23-.06.55-.61,1.08a5,5,0,0,1-2.74,1.27,4.82,4.82,0,0,1-2.93-.51C285.1,171.12,284.84,170.73,284.94,170.61Z" style="fill:#263238"></path><path d="M281.31,181.05a12.71,12.71,0,0,1,3.12-.83c.49-.09.95-.23,1-.57a2.51,2.51,0,0,0-.45-1.45c-.57-1.16-1.16-2.38-1.78-3.66-2.48-5.21-4.31-9.52-4.1-9.61s2.39,4,4.87,9.26l1.72,3.69a2.85,2.85,0,0,1,.41,1.92,1.26,1.26,0,0,1-.76.8,3.28,3.28,0,0,1-.83.18A12.75,12.75,0,0,1,281.31,181.05Z" style="fill:#263238"></path><path d="M284.23,203.93a36.25,36.25,0,0,1-19.38-3.49s5.83,9.51,19.87,7.05Z" style="fill:#9c4741"></path><path d="M291.42,160.51c-.29.5-1.81.3-3.54.59s-3.14.86-3.56.46c-.19-.19,0-.67.53-1.19a5.26,5.26,0,0,1,2.75-1.23,5.2,5.2,0,0,1,3,.38C291.26,159.86,291.54,160.27,291.42,160.51Z" style="fill:#263238"></path><path d="M272.93,171.78c-.25-.21-1.49,1-3.44,1.2s-3.48-.56-3.66-.29c-.09.11.19.51.86.88a5,5,0,0,0,3,.53,4.71,4.71,0,0,0,2.7-1.25C272.91,172.32,273.06,171.87,272.93,171.78Z" style="fill:#263238"></path><path d="M264,163.39c.44.39,1.88-.24,3.68-.48s3.36-.1,3.66-.6c.13-.24-.16-.65-.88-1a5.88,5.88,0,0,0-5.91.87C263.94,162.71,263.79,163.19,264,163.39Z" style="fill:#263238"></path><path d="M253.92,179.7c-.09-1-1.5-3.42-2.56-3.5-2.8-.21-7.79.42-7.27,7.45.72,9.6,10.24,6.9,10.24,6.63S254.22,183.32,253.92,179.7Z" style="fill:#cc675d"></path><path d="M251.41,187s-.16.13-.43.28a1.69,1.69,0,0,1-1.26.12c-1-.29-2-1.84-2.19-3.57a5.51,5.51,0,0,1,.29-2.43A1.93,1.93,0,0,1,249,180a.85.85,0,0,1,1,.39c.15.25.1.45.16.46s.19-.17.08-.56a1.05,1.05,0,0,0-.42-.58,1.25,1.25,0,0,0-1-.17,2.36,2.36,0,0,0-1.64,1.62,5.76,5.76,0,0,0-.38,2.72c.2,1.93,1.33,3.67,2.75,4a1.83,1.83,0,0,0,1.52-.36C251.41,187.2,251.45,187,251.41,187Z" style="fill:#9c4741"></path><path d="M296.43,159.07c-2.05-1.06-3.42-2.6-3.49-4.9-1.26.49-2.7-1.06-3.54-2.11s-1.82-1.54-1.87-2.88a1.48,1.48,0,0,0-.16-.78c-.22-.35-.69-.43-1.1-.52a6.47,6.47,0,0,1-4.61-4.12,13.8,13.8,0,0,1-6.51,1.62,5.25,5.25,0,0,1-8.86.34,4.68,4.68,0,0,1-2.94,2.55,14,14,0,0,1-4,.55,5.52,5.52,0,0,1-3.13,6.53c-.33.13-.72.27-.85.6s.07.72.23,1.06a4.35,4.35,0,0,1-2.46,5.76,3.23,3.23,0,0,1,.12,5.08c-.33.24-.77.53-.68.93a.91.91,0,0,0,.24.4,6.24,6.24,0,0,1,1.78,3,2.33,2.33,0,0,1-1.7,2.73,3.08,3.08,0,0,1,1.4,2c.08.83-1.39,2.69-2.2,2.46-.34-.1-4.75-1.86-4.75-1.86-3-3.47.07-7.82,0-12.41a29.66,29.66,0,0,1,3.1-13.31,21.8,21.8,0,0,1,3.05-4.91,29.31,29.31,0,0,1,5-4.32,26.48,26.48,0,0,1,7.43-4.3c5.1-1.65,10.65-.21,15.68,1.63a22.72,22.72,0,0,1,5.48,2.64,20.71,20.71,0,0,1,4.88,5.38,25.56,25.56,0,0,1,4.28,9.55" style="fill:#263238"></path><path d="M298,155.55a3.83,3.83,0,0,0-.6-1c-.23-.31-.55-.65-.86-1.11a4.37,4.37,0,0,1-.69-1.75,13.37,13.37,0,0,1-.15-2.37,10.76,10.76,0,0,0-.31-2.85,8.19,8.19,0,0,0-1.52-2.92,7.79,7.79,0,0,0-1.3-1.26,12.44,12.44,0,0,0-1.61-1,5.85,5.85,0,0,1-1.57-1.14,7.62,7.62,0,0,1-1.06-1.73,12.45,12.45,0,0,0-2.65-3.52,12.6,12.6,0,0,0-4-2.55,12.09,12.09,0,0,0-2.39-.67,10.43,10.43,0,0,0-2.56-.08,11.55,11.55,0,0,0-1.29.21c-.42.1-.84.23-1.26.34a6.38,6.38,0,0,1-2.57.22c-.88-.1-1.75-.34-2.66-.49a17.08,17.08,0,0,0-5.59,0,14.29,14.29,0,0,0-2.78.75,9.53,9.53,0,0,0-4.59,3.59l-.31.5.14-.07a10.85,10.85,0,0,0-8.15,2.36,10.71,10.71,0,0,0-4.1,7l.07-.11a32.24,32.24,0,0,0-3.23,2.06,10.34,10.34,0,0,0-2.55,2.69,6.6,6.6,0,0,0-1,3.42,4.55,4.55,0,0,0,1.19,3.17V157a8,8,0,0,0-1.81,5.12,8.06,8.06,0,0,0,1.4,4.68,6.4,6.4,0,0,0,.71.9,10.79,10.79,0,0,1,.74.8,2.2,2.2,0,0,1,.42.92,6.5,6.5,0,0,1,.06,1,15.08,15.08,0,0,0,.4,3.64,7.58,7.58,0,0,0,1.18,2.69,4.74,4.74,0,0,0,1.63,1.44c.52.28,1,.37,1.23.53a1.56,1.56,0,0,1,.37.26,1.06,1.06,0,0,0-.35-.29c-.26-.17-.71-.28-1.22-.57a4.57,4.57,0,0,1-1.57-1.43,7.47,7.47,0,0,1-1.13-2.66,15.39,15.39,0,0,1-.38-3.61,6.07,6.07,0,0,0-.05-1,2.12,2.12,0,0,0-.45-1,9.44,9.44,0,0,0-.74-.82,7.66,7.66,0,0,1-.69-.88,7.94,7.94,0,0,1-1.34-4.57,7.74,7.74,0,0,1,1.77-5l.07-.08-.07-.08a4.3,4.3,0,0,1-1.12-3,6.46,6.46,0,0,1,.95-3.28,10,10,0,0,1,2.49-2.61,31.31,31.31,0,0,1,3.21-2l.06,0V146a10.4,10.4,0,0,1,4-6.76,10.55,10.55,0,0,1,7.93-2.3h.1l0-.09c.1-.16.2-.32.31-.48a9.23,9.23,0,0,1,4.44-3.48,13.79,13.79,0,0,1,2.73-.74,17.23,17.23,0,0,1,2.77-.21,16.38,16.38,0,0,1,2.72.25c.9.14,1.77.38,2.68.48a6.77,6.77,0,0,0,1.35,0,7,7,0,0,0,1.32-.26c.43-.11.84-.24,1.26-.34a10.49,10.49,0,0,1,1.25-.2,10.26,10.26,0,0,1,2.48.06,11.42,11.42,0,0,1,2.34.66,12.4,12.4,0,0,1,3.9,2.49,12.53,12.53,0,0,1,2.61,3.44,8.13,8.13,0,0,0,1.1,1.78,6.12,6.12,0,0,0,1.63,1.17,11.84,11.84,0,0,1,1.59,1,7.43,7.43,0,0,1,1.28,1.22,7.85,7.85,0,0,1,1.5,2.85,10.73,10.73,0,0,1,.33,2.8,13.71,13.71,0,0,0,.18,2.4,4.54,4.54,0,0,0,.73,1.77c.32.46.65.8.88,1.09a5.75,5.75,0,0,1,.51.7Z" style="fill:#455a64"></path><path d="M260.23,134.29s.24-.17.69-.44a6.55,6.55,0,0,1,2.05-.78,6.05,6.05,0,0,1,3.2.19,6.34,6.34,0,0,1,3.1,2.36,5.11,5.11,0,0,1,.57,1,1.19,1.19,0,0,1,0,1l-.21.35.38-.14a4,4,0,0,1,3,.1,3.88,3.88,0,0,1,1.78,1.64,4.31,4.31,0,0,1,.51,1.55c.05.38,0,.6.05.6s0-.05,0-.16a3,3,0,0,0,0-.45,4,4,0,0,0-2.29-3.4,4.25,4.25,0,0,0-3.21-.15l.18.21a1.5,1.5,0,0,0,0-1.26,5.65,5.65,0,0,0-.6-1.11,6.49,6.49,0,0,0-3.25-2.45,6.12,6.12,0,0,0-3.34-.14,6,6,0,0,0-2.06.89c-.22.15-.38.28-.49.37S260.22,134.28,260.23,134.29Z" style="fill:#455a64"></path><path d="M245.52,146.62a1.64,1.64,0,0,0,.37.31,6.32,6.32,0,0,0,1.15.66,4.56,4.56,0,0,0,2,.42,3.47,3.47,0,0,0,2.33-.92l-.21,0c.1.12.2.25.31.37s.24.24.36.35a6.07,6.07,0,0,0,4.85,1.39,5.45,5.45,0,0,0,1.49-.47,2.31,2.31,0,0,0,.48-.31,9,9,0,0,1-2,.58,6.22,6.22,0,0,1-2.22-.16,5.65,5.65,0,0,1-2.4-1.24l-.35-.33-.29-.35-.11-.13-.11.11a3.26,3.26,0,0,1-2.14.87,4.62,4.62,0,0,1-1.88-.33C246.09,147,245.55,146.57,245.52,146.62Z" style="fill:#455a64"></path><path d="M241.18,156s0,.06,0,.17a1.62,1.62,0,0,0,.25.45,2.56,2.56,0,0,0,1.64.89,4.94,4.94,0,0,0,2.72-.52c.48-.22,1-.44,1.47-.73a2.61,2.61,0,0,0,1.23-1.32l.05-.16-.22.09a11.1,11.1,0,0,0,3,1.47,5,5,0,0,0,2.73.05,3.58,3.58,0,0,0,1.6-.89,2.63,2.63,0,0,0,.32-.39c.06-.09.09-.15.08-.15s-.16.18-.48.46a3.79,3.79,0,0,1-1.58.78,5,5,0,0,1-2.6-.11,11.33,11.33,0,0,1-2.91-1.46l-.16-.11-.06.2,0,.13a2.4,2.4,0,0,1-1.1,1.17c-.47.28-1,.5-1.43.72a4.86,4.86,0,0,1-2.59.57,2.5,2.5,0,0,1-1.58-.77A5,5,0,0,1,241.18,156Z" style="fill:#455a64"></path><path d="M228,122.53s.16,0,.46,0a2.19,2.19,0,0,1,1.13.61,2.92,2.92,0,0,1,.88,1.77,8.74,8.74,0,0,1-.14,2.65l0,.15h.17a5.48,5.48,0,0,1,3.41.73,4.28,4.28,0,0,1,2.11,3.21,4,4,0,0,1-1.14,3.32l-.3.28.41,0a5,5,0,0,1,3.78,1.29,4.77,4.77,0,0,1,1.48,2.85,5.08,5.08,0,0,1-.15,2.14c-.14.49-.27.74-.25.75s0-.05.11-.17a2.83,2.83,0,0,0,.23-.55,4.94,4.94,0,0,0-1.25-5.19,5.19,5.19,0,0,0-4-1.4l.11.24a4.42,4.42,0,0,0,.49-5.57,4.79,4.79,0,0,0-1.51-1.4,5.73,5.73,0,0,0-3.58-.74l.13.14a9,9,0,0,0,.1-2.71,3.14,3.14,0,0,0-1-1.85,2.16,2.16,0,0,0-1.22-.57,2,2,0,0,0-.35,0C228.05,122.52,228,122.52,228,122.53Z" style="fill:#455a64"></path><path d="M212.56,144.77l.16.08.5.18a7,7,0,0,0,2,.27,7.55,7.55,0,0,0,3-.61,7.39,7.39,0,0,0,3.07-2.39H221a6.16,6.16,0,0,0,4.58,2.6,4.68,4.68,0,0,0,4.59-2.94H230a3.88,3.88,0,0,0,1.29,1.53,5.32,5.32,0,0,0,1.65.76,7.1,7.1,0,0,0,3,.06,14.5,14.5,0,0,0,1.87-.46,3.08,3.08,0,0,0,.64-.24l-.67.15a17.84,17.84,0,0,1-1.86.39A7.16,7.16,0,0,1,233,144a4.21,4.21,0,0,1-2.76-2.18l-.14-.31-.11.32a4.41,4.41,0,0,1-4.31,2.74,5.92,5.92,0,0,1-4.38-2.47l-.11-.15-.11.15a7.18,7.18,0,0,1-2.94,2.34,7.78,7.78,0,0,1-2.91.66A9.46,9.46,0,0,1,212.56,144.77Z" style="fill:#455a64"></path><path d="M223.82,158a.53.53,0,0,0,.13.16,1,1,0,0,0,.57.2,4.5,4.5,0,0,0,2.09-.53,5.18,5.18,0,0,0,2.28-2.25,5.3,5.3,0,0,0,.4-3.87v0l-.2.17A6.3,6.3,0,0,0,233,152a7.05,7.05,0,0,0,2.82-1.5,7.77,7.77,0,0,0,1.42-1.62,2.57,2.57,0,0,0,.37-.69,11.44,11.44,0,0,1-1.92,2.15,7.1,7.1,0,0,1-2.76,1.4,6.1,6.1,0,0,1-3.73-.22l-.26-.1.07.28v0a5.14,5.14,0,0,1-.35,3.67,5.2,5.2,0,0,1-2.14,2.19,4.81,4.81,0,0,1-2,.6A1.08,1.08,0,0,1,223.82,158Z" style="fill:#455a64"></path><path d="M249.08,121.12a8.26,8.26,0,0,1,.69,2.91,6.62,6.62,0,0,1-5.56,6.69l-.17,0,.06.16a8.51,8.51,0,0,1,.27,5.55,6.87,6.87,0,0,1-.32.89.73.73,0,0,1-.48.44.51.51,0,0,1-.4-.09c-.07-.06-.09-.11-.1-.11s0,.06.07.15a.5.5,0,0,0,.44.14.78.78,0,0,0,.59-.46,5.42,5.42,0,0,0,.37-.9A8.31,8.31,0,0,0,245,134a8.46,8.46,0,0,0-.59-3.17l-.11.19a6.94,6.94,0,0,0,2.25-.78,6.81,6.81,0,0,0,2.81-2.93,6.73,6.73,0,0,0,.16-5.45q-.16-.36-.27-.54A1,1,0,0,0,249.08,121.12Z" style="fill:#455a64"></path><path d="M276,184c.27-.08.66,1.74,2.5,2.69s3.73.34,3.8.59c.05.1-.36.44-1.17.64a4.67,4.67,0,0,1-3.15-.39,4,4,0,0,1-2-2.28C275.79,184.52,275.9,184,276,184Z" style="fill:#263238"></path><rect x="250.65" y="155.71" width="52.44" height="21.05" rx="6.66" transform="translate(-14.42 26.8) rotate(-5.4)" style="fill:#e0e0e0"></rect><path d="M246,177.54s-1.15-1.39.79-5.78c2.29-5.22,4.34-10,4.34-10l5.27,16.58L252,176.17Z" style="fill:#e0e0e0"></path><rect x="251.8" y="153.99" width="52.44" height="21.05" rx="6.66" transform="translate(-14.25 26.9) rotate(-5.4)" style="fill:#455a64"></rect><path d="M298.48,173.15s.47-.06,1.33-.32a6.79,6.79,0,0,0,3.15-2.21,6.5,6.5,0,0,0,1.22-2.5,6.7,6.7,0,0,0,.2-1.58c0-.55-.09-1.14-.15-1.74-.12-1.22-.25-2.51-.38-3.89-.07-.68-.14-1.39-.21-2.12a8,8,0,0,0-.42-2.15,6.51,6.51,0,0,0-3-3.47,6.61,6.61,0,0,0-2.35-.75,12.2,12.2,0,0,0-2.61.11l-11.45,1.1-26.26,2.51a6.42,6.42,0,0,0-5.2,3.67,6.28,6.28,0,0,0-.58,3.16c.1,1.12.2,2.23.3,3.32s.21,2.19.31,3.27a9.84,9.84,0,0,0,.57,3.07,6.43,6.43,0,0,0,4.36,3.79,7.44,7.44,0,0,0,2.9.11l2.91-.27,5.57-.51,10-.92,14.47-1.28,3.93-.32,1-.07a1.33,1.33,0,0,1,.35,0l-.35.06-1,.12-3.92.42-14.45,1.45-10,1-5.57.54-2.9.28a8.18,8.18,0,0,1-3.07-.11,6.93,6.93,0,0,1-4.7-4.07,10.26,10.26,0,0,1-.61-3.22c-.11-1.07-.21-2.16-.31-3.26s-.21-2.21-.31-3.33a6.84,6.84,0,0,1,.62-3.42,6.92,6.92,0,0,1,5.62-4l26.26-2.46,11.46-1.06A11.61,11.61,0,0,1,298,152a6.82,6.82,0,0,1,5.61,4.51,7.82,7.82,0,0,1,.42,2.24c.07.73.13,1.43.2,2.12.12,1.38.23,2.67.34,3.89.06.6.12,1.19.13,1.77a6.62,6.62,0,0,1-.23,1.64,6.69,6.69,0,0,1-4.58,4.75A5,5,0,0,1,298.48,173.15Z" style="fill:#263238"></path><path d="M267.36,170.34a52.15,52.15,0,0,1,4.56-6,53.62,53.62,0,0,1,5-5.67,55.18,55.18,0,0,1-4.57,6A55.58,55.58,0,0,1,267.36,170.34Z" style="fill:#263238"></path><path d="M270.8,171.44a80.1,80.1,0,0,1,5.52-7.29,79.3,79.3,0,0,1,5.94-7,83.17,83.17,0,0,1-5.53,7.29A80.31,80.31,0,0,1,270.8,171.44Z" style="fill:#263238"></path><path d="M278,170.15a27.57,27.57,0,0,1,2.8-4.45,27.26,27.26,0,0,1,3.23-4.15,26.28,26.28,0,0,1-2.8,4.45A26.55,26.55,0,0,1,278,170.15Z" style="fill:#263238"></path><path d="M373.5,173.46c-.6,7-4.09,16-4.09,16l-15.59,1.94s-7.32-12.39-9.34-17.29a9.2,9.2,0,0,0-2.31-3.46,2.38,2.38,0,0,1,2.59-3.92,14.6,14.6,0,0,1,3,3.12,48.08,48.08,0,0,1,2.92,4.9,11,11,0,0,0,1.63-5c.09-2.87-1.46-13.72-1.53-16.71s1.71-3.31,3.36-2.73,1.4,13.33,2.89,13.85c0,0,2.53-1.16,4-.52a8,8,0,0,1,2.52,1.84s1.51-1.71,3-1.35a5.66,5.66,0,0,1,2.75,2.2s1.39-1.6,2.46-1.12S374,168.22,373.5,173.46Z" style="fill:#cc675d"></path><path d="M352.76,189.9c-.21.71,4.62,10.53,0,24.17-1,2.87-.88,3.26-.88,3.26L363.18,222l7.71-4-1.79-29.19Z" style="fill:#cc675d"></path><path d="M365.43,183.27c-.09,0-.37-1-1.08-2.59a10.57,10.57,0,0,0-1.6-2.51,7,7,0,0,0-3-2,13,13,0,0,0-6.59-.12,2,2,0,0,1-1.25-.06,1.73,1.73,0,0,1-.69-.64,1.66,1.66,0,0,1-.32-.7s.18.22.48.58a1.54,1.54,0,0,0,.64.49,1.76,1.76,0,0,0,1.06,0,12.1,12.1,0,0,1,6.84,0,7.17,7.17,0,0,1,3.17,2.14,9.68,9.68,0,0,1,1.57,2.69,12.9,12.9,0,0,1,.63,2A2,2,0,0,1,365.43,183.27Z" style="fill:#9c4741"></path><path d="M363.14,165.63a2,2,0,0,1,.19.79,10.91,10.91,0,0,1,.05,2.23,11.51,11.51,0,0,1-.75,3.24,5.29,5.29,0,0,1-1,1.74,2,2,0,0,1-2.15.58,2.92,2.92,0,0,1-1.56-1.59,10.46,10.46,0,0,1-.6-1.88,14.32,14.32,0,0,1-.39-3.29,11.86,11.86,0,0,1,.2-2.22,2,2,0,0,1,.22-.78c.09,0-.13,1.15-.05,3a15.85,15.85,0,0,0,.48,3.19,11.36,11.36,0,0,0,.61,1.78,2.4,2.4,0,0,0,1.27,1.31,1.48,1.48,0,0,0,1.61-.45,4.78,4.78,0,0,0,.94-1.56,12.46,12.46,0,0,0,.82-3.1C363.25,166.79,363.05,165.64,363.14,165.63Z" style="fill:#9c4741"></path><path d="M369.12,166.17a3.19,3.19,0,0,1,.13.87,21.33,21.33,0,0,1,.09,2.38,11.74,11.74,0,0,1-.56,3.52,5.11,5.11,0,0,1-1.06,1.89,2.93,2.93,0,0,1-2.16,1,2.33,2.33,0,0,1-1.21-.35,2.07,2.07,0,0,1-.79-1,5.48,5.48,0,0,1-.34-2.13c0-1.28,0-2.47-.06-3.52a20.71,20.71,0,0,1,.07-3.24,20.27,20.27,0,0,1,.3,3.23c.05,1.05.11,2.23.17,3.51a5.45,5.45,0,0,0,.32,1.94,1.63,1.63,0,0,0,1.54,1,2.4,2.4,0,0,0,1.79-.8,4.89,4.89,0,0,0,1-1.69,12.76,12.76,0,0,0,.64-3.39C369.08,167.42,369,166.17,369.12,166.17Z" style="fill:#9c4741"></path><path d="M373.75,172c.05,0,.16.53-.19,1.31a3.31,3.31,0,0,1-2.55,1.9,1.81,1.81,0,0,1-1.73-.7,2.53,2.53,0,0,1-.45-1.43,2.48,2.48,0,0,1,.23-1.29c.09,0,.05.51.14,1.26a2.33,2.33,0,0,0,.46,1.16,1.35,1.35,0,0,0,1.29.48,3.21,3.21,0,0,0,2.29-1.55C373.62,172.5,373.66,172,373.75,172Z" style="fill:#9c4741"></path><path d="M307.55,265.66l3.35-52.1c-8.78-3.62-25.9-3.79-25.9-3.79s-.31,9.69-13.67,10.28c-14.55.64-16.48-8.4-16.48-8.4l-26.92,6.08a26.71,26.71,0,0,0-7.24,5L228,269.84,235,304l-10.92,23s29.8,9.91,46.86,10.79,41.94-17.84,41.94-17.84l-8.27-18Z" style="fill:#00EEFF"></path><path d="M221.48,222,191.1,246.32l-18.52.75S168,275,171,278.36s5.13,6.67,11.62,6.45,6.92-1.72,16.27-8.49c9.59-6.94,32.82-24.46,32.82-24.46Z" style="fill:#00EEFF"></path><path d="M308.78,213.2s12,2,21.11,3.67a151.57,151.57,0,0,0,18.6,2.15v-3.89l24.9-2.08s1.78,28.62-2.33,34.56S307.11,249,307.11,249Z" style="fill:#00EEFF"></path><path d="M310.51,224.86c.14,0-.28,5.58-.94,12.43s-1.31,12.4-1.45,12.38.27-5.58.93-12.43S310.36,224.85,310.51,224.86Z" style="fill:#263238"></path><path d="M222.11,237.6c.14,0,1.38,5.17,2.76,11.62s2.39,11.69,2.24,11.72-1.37-5.17-2.75-11.61S222,237.63,222.11,237.6Z" style="fill:#263238"></path><path d="M354.06,238.48a3.22,3.22,0,0,1-.54-.75c-.32-.49-.74-1.24-1.22-2.18a38.64,38.64,0,0,1-2.88-7.75,38.23,38.23,0,0,1-1.16-8.18c0-1.05,0-1.91,0-2.5a2.83,2.83,0,0,1,.12-.91c.08,0,.07,1.3.23,3.4a45.9,45.9,0,0,0,4,15.78C353.5,237.3,354.13,238.44,354.06,238.48Z" style="fill:#263238"></path><path d="M192.12,270.37c-.09,0,.26-1.35.62-3.53a41.81,41.81,0,0,0-.72-17.06c-.54-2.14-1-3.43-.92-3.46a3.62,3.62,0,0,1,.41.87,24.21,24.21,0,0,1,.86,2.49,36.06,36.06,0,0,1,.73,17.23,24.4,24.4,0,0,1-.64,2.55A4.06,4.06,0,0,1,192.12,270.37Z" style="fill:#263238"></path></g></svg>
