<svg xmlns="http://www.w3.org/2000/svg" viewBox="0 0 500 500"><g id="freepik--Floor--inject-10"><path id="freepik--floor--inject-10" d="M77.66,245.91c-95.18,55-95.17,144,0,199s249.49,55,344.67,0,95.17-144,0-199S172.84,191,77.66,245.91Z" style="fill:#fafafa"></path></g><g id="freepik--Plants--inject-10"><g id="freepik--plants--inject-10"><path d="M473.22,336.75c-4.48,11.77-13.9,19.75-17.25,43.93-.53,3.9-.21,9.68-.06,13.63l-11.07-6.4c-1.14-10.5-1.49-23.47.52-35.42,3-18.05,12.68-27.91,19.34-29.89C472.18,320.37,477.93,324.35,473.22,336.75Z" style="fill:#e0e0e0"></path><path d="M467,329.35c-9.5,10.08-19.12,34.45-15.23,62.58l-1.1-.63c-3.49-28,6.13-52.54,15.62-62.62a.49.49,0,0,1,.71.67Z" style="fill:#fff"></path><path d="M480.66,362.65c-2.37,4.1-6.84,7.71-10.69,13.54-4.2,6.38-7.59,10.29-10.89,19.95l-6.26-3.62c.88-19.7,8.62-31.21,12.47-35.55,4.46-5,11-9.67,15.93-5.28C484.35,354.45,482.77,359,480.66,362.65Z" style="fill:#f0f0f0"></path><path d="M475.86,357.2c-6.49,4.2-16.92,21.95-19.56,37.33l-.9-.52c2.8-15.62,13.2-33.3,19.92-37.65a.5.5,0,0,1,.54.84Z" style="fill:#fff"></path></g><g id="freepik--plants--inject-10"><path d="M47.45,393.39l7-4.05S58.61,372,57,356.46c-2.33-21.89-16.75-30.13-22.23-28.24s-7.06,8.26,2,21.3C42.07,357.21,48.65,373.24,47.45,393.39Z" style="fill:#f0f0f0"></path><path d="M50.35,384.89h-.07a.49.49,0,0,1-.39-.57c3.84-20.19-3.22-42.89-12-52.33a.49.49,0,0,1,0-.69.48.48,0,0,1,.68,0c8.9,9.62,16.09,32.68,12.2,53.17A.5.5,0,0,1,50.35,384.89Z" style="fill:#fff"></path><path d="M29.83,403.56c-1,.53-3.82-1.85-4.6-2.43a9.82,9.82,0,0,1-3-3.86,9.17,9.17,0,0,1-.53-5.5,21.94,21.94,0,0,1,.84-2.87c.32-.92.63-1.85.95-2.78A7.24,7.24,0,0,0,24,383.3c-.15-1.93-1.79-3.37-3.29-4.61s-3.36-3.17-3.23-5.49a8.21,8.21,0,0,1,2.29-4.75c1.18-1.35,2.55-2.52,3.63-3.95A5.7,5.7,0,0,0,24.76,361a6,6,0,0,0-.67-2.29A33,33,0,0,1,21.85,354c-.48-1.65-.3-3.66,1-4.76a5.29,5.29,0,0,1,4-.79A9.13,9.13,0,0,1,30.56,350c3.58,2.23,5.46,6.7,9.29,8.47a39.24,39.24,0,0,0,4.67,1.4,5.86,5.86,0,0,1,3.77,2.87c1.29,2.93-1.55,6.33-.7,9.42.76,2.74,3.32,3.9,4.67,6.4a5.77,5.77,0,0,1,.51,3.55A16.86,16.86,0,0,1,51,388a54.34,54.34,0,0,1-3.53,5.44Z" style="fill:#e0e0e0"></path><path d="M40,398.28h0a.47.47,0,0,1-.42-.5c1.67-18.17-5.89-38.7-11.83-44.85a.46.46,0,0,1,0-.65.47.47,0,0,1,.65,0c6.06,6.28,13.78,27.15,12.08,45.57A.46.46,0,0,1,40,398.28Z" style="fill:#fff"></path><path d="M38.16,375.88a.35.35,0,0,1-.14,0,61.14,61.14,0,0,0-13.1-2.79.46.46,0,0,1-.41-.5.45.45,0,0,1,.5-.42A63.31,63.31,0,0,1,38.34,375a.46.46,0,0,1,.27.59A.46.46,0,0,1,38.16,375.88Z" style="fill:#fff"></path></g></g><g id="freepik--Shadows--inject-10"><ellipse id="freepik--Shadow--inject-10" cx="88.16" cy="415.29" rx="62.62" ry="36.15" style="fill:#e0e0e0"></ellipse><ellipse id="freepik--shadow--inject-10" cx="401.78" cy="414.21" rx="64.15" ry="37.04" style="fill:#e0e0e0"></ellipse><ellipse id="freepik--shadow--inject-10" cx="346.74" cy="394.22" rx="64.15" ry="37.04" style="fill:#e0e0e0"></ellipse><path id="freepik--shadow--inject-10" d="M185.26,425a12.14,12.14,0,0,1-6-1.46l-5.34-3.08a4.92,4.92,0,0,1-.09-9l31.55-19.11,8.33-3.78,58.75-35.32c1.4-.81,3-3,4.28-4.7.31-.41.59-.8.87-1.16a20.64,20.64,0,0,1,6.1-5.11,35.54,35.54,0,0,1,17.3-4.54,21.39,21.39,0,0,1,10.6,2.4c3,1.75,4.7,4.34,4.71,7.28,0,4-3.06,8.06-8.4,11.15a34.58,34.58,0,0,1-10.44,3.84,30.57,30.57,0,0,0-7.85,2.64l-59,35.5-5.75,5.24-34.07,18a12,12,0,0,1-5.5,1.24Z" style="fill:#e0e0e0"></path><path id="freepik--shadow--inject-10" d="M245.22,319l-19.75-11.49c-2-1.17-2-3.06,0-4.22l73.74-42.66a8.11,8.11,0,0,1,7.31,0l19.75,11.49c2,1.16,2,3.05,0,4.22L252.52,319A8.09,8.09,0,0,1,245.22,319Z" style="fill:#e0e0e0"></path></g><g id="freepik--Tubes--inject-10"><g id="freepik--test-tubes--inject-10"><path d="M252.08,233.21h0l1.11-.64v1.89a3.29,3.29,0,0,1-.64,1.9,4,4,0,0,1-.47.56v8.14a6.73,6.73,0,0,0-1.43-1.1,13.62,13.62,0,0,0-12.28,0,6.59,6.59,0,0,0-1.52,1.19V242Z" style="fill:#fafafa"></path><path d="M270.3,234.62a13.56,13.56,0,0,0-12.28,0,5,5,0,0,0-2.36,2.55c-.57-1.6.22-3.32,2.36-4.55a13.56,13.56,0,0,1,12.28,0c2.14,1.23,2.93,3,2.37,4.55A5,5,0,0,0,270.3,234.62Z" style="fill:#e0e0e0"></path><path d="M290,223.28a13.56,13.56,0,0,0-12.28,0,5,5,0,0,0-2.37,2.54c-.56-1.59.23-3.31,2.37-4.54a13.56,13.56,0,0,1,12.28,0c2.14,1.23,2.93,2.95,2.37,4.54A5,5,0,0,0,290,223.28Z" style="fill:#e0e0e0"></path><path d="M309.6,211.93a13.62,13.62,0,0,0-12.28,0,5,5,0,0,0-2.36,2.55c-.57-1.6.22-3.31,2.36-4.55a13.56,13.56,0,0,1,12.28,0c2.14,1.24,2.93,3,2.37,4.55A5,5,0,0,0,309.6,211.93Z" style="fill:#e0e0e0"></path><path d="M250.65,246a13.62,13.62,0,0,0-12.28,0,5,5,0,0,0-2.37,2.55c-.56-1.6.23-3.31,2.37-4.55a13.56,13.56,0,0,1,12.28,0c2.14,1.24,2.93,3,2.37,4.55A5,5,0,0,0,250.65,246Z" style="fill:#e0e0e0"></path><path d="M309.6,209.93a13.56,13.56,0,0,0-12.28,0,6.61,6.61,0,0,0-1.45,1.12v-3.12l11.28-6.51,4,2.29v7.39A6.22,6.22,0,0,0,309.6,209.93Z" style="fill:#fafafa"></path><path d="M291.27,210.59h0l.15-.09h0l1.1-.63v1.88a3.27,3.27,0,0,1-.63,1.89,4,4,0,0,1-.47.56v8.23a6.66,6.66,0,0,0-1.48-1.15,13.62,13.62,0,0,0-12.28,0,6.63,6.63,0,0,0-1.47,1.14v-3.12Z" style="fill:#fafafa"></path><path d="M271.52,222h0l1.34-.78v1.89a3.29,3.29,0,0,1-.64,1.9,4.7,4.7,0,0,1-.46.56h0v8.18a6.68,6.68,0,0,0-1.46-1.12,13.56,13.56,0,0,0-12.28,0,6.6,6.6,0,0,0-1.5,1.16v-3.13Z" style="fill:#fafafa"></path><path d="M311.24,215.7l0,.05Z" style="fill:#e0e0e0"></path><path d="M311.2,215.75a4.78,4.78,0,0,1-.39.39A4.78,4.78,0,0,0,311.2,215.75Z" style="fill:#e0e0e0"></path><path d="M270.3,280A13.56,13.56,0,0,0,258,280a5,5,0,0,0-2.36,2.55c-.57-1.6.22-3.32,2.36-4.55a13.56,13.56,0,0,1,12.28,0c2.14,1.23,2.93,3,2.37,4.55A5,5,0,0,0,270.3,280Z" style="fill:#e0e0e0"></path><path d="M290,268.65a13.56,13.56,0,0,0-12.28,0,5,5,0,0,0-2.37,2.54c-.56-1.59.23-3.31,2.37-4.54a13.56,13.56,0,0,1,12.28,0c2.14,1.23,2.93,3,2.37,4.54A5,5,0,0,0,290,268.65Z" style="fill:#e0e0e0"></path><path d="M309.6,257.3a13.62,13.62,0,0,0-12.28,0,5,5,0,0,0-2.36,2.55c-.57-1.6.22-3.31,2.36-4.55a13.56,13.56,0,0,1,12.28,0c2.14,1.24,2.93,3,2.37,4.55A5,5,0,0,0,309.6,257.3Z" style="fill:#e0e0e0"></path><path d="M250.65,291.33a13.56,13.56,0,0,0-12.28,0,5,5,0,0,0-2.37,2.55c-.56-1.6.23-3.31,2.37-4.55a13.56,13.56,0,0,1,12.28,0c2.14,1.24,2.93,3,2.37,4.55A5,5,0,0,0,250.65,291.33Z" style="fill:#e0e0e0"></path><path d="M309.6,255.3a13.56,13.56,0,0,0-12.28,0,6.61,6.61,0,0,0-1.45,1.12V253.3l11.28-6.51,4,2.29v7.39A6.22,6.22,0,0,0,309.6,255.3Z" style="fill:#fafafa"></path><path d="M290,266.64a13.62,13.62,0,0,0-12.28,0,6.63,6.63,0,0,0-1.47,1.14v-3.12l15.23-8.8v11.93A6.66,6.66,0,0,0,290,266.64Z" style="fill:#fafafa"></path><path d="M270.3,278A13.56,13.56,0,0,0,258,278a6.6,6.6,0,0,0-1.5,1.16V276l15.24-8.8v11.89A6.68,6.68,0,0,0,270.3,278Z" style="fill:#fafafa"></path><path d="M250.65,289.33a13.62,13.62,0,0,0-12.28,0,6.59,6.59,0,0,0-1.52,1.19v-3.14l15.23-8.8v11.85A6.73,6.73,0,0,0,250.65,289.33Z" style="fill:#fafafa"></path><g id="freepik--test-tube--inject-10"><path d="M236.85,235.32a3.78,3.78,0,0,1,2.23-3.11,11.91,11.91,0,0,1,10.78,0,3.76,3.76,0,0,1,2.23,3.11v68h0a7.62,7.62,0,0,1-15.24,0h0Z" style="fill:#00EEFF"></path><path d="M236.85,235.32a3.78,3.78,0,0,1,2.23-3.11,11.91,11.91,0,0,1,10.78,0,3.76,3.76,0,0,1,2.23,3.11v68h0a7.62,7.62,0,0,1-15.24,0h0Z" style="fill:#fff;opacity:0.7000000000000001"></path><path d="M239.14,248.11a2.65,2.65,0,0,1,1.56-2.18,8.35,8.35,0,0,1,7.54,0,2.64,2.64,0,0,1,1.57,2.18V303h0a5.34,5.34,0,1,1-10.67,0h0Z" style="fill:#00EEFF"></path><path d="M244.47,308.38a5.34,5.34,0,0,1-5.32-5.07,3.72,3.72,0,0,0,7.29-1h0v-57a6.66,6.66,0,0,1,1.8.68,2.64,2.64,0,0,1,1.57,2.18V303h0A5.34,5.34,0,0,1,244.47,308.38Z" style="opacity:0.1"></path><path d="M239.14,248.11c0,1.7,2.38,3.08,5.33,3.08s5.34-1.38,5.34-3.08-2.39-3.08-5.34-3.08S239.14,246.41,239.14,248.11Z" style="fill:#00EEFF"></path><path d="M239.14,248.11c0,1.7,2.38,3.08,5.33,3.08s5.34-1.38,5.34-3.08-2.39-3.08-5.34-3.08S239.14,246.41,239.14,248.11Z" style="fill:#fff;opacity:0.30000000000000004"></path><path d="M239.14,248.11a2.66,2.66,0,0,1,1.55-2.17c-.13.13-2.29,2.62,1.09,4,3.63,1.51,6.94,0,7.83-1-.62,1.31-2.68,2.27-5.14,2.27C241.52,251.19,239.14,249.81,239.14,248.11Z" style="fill:#fff;opacity:0.5"></path><path d="M239.78,305.41c0,.76-.45,1.12-1,.78a2.71,2.71,0,0,1-.93-2.05v-71a6.27,6.27,0,0,1,1.21-.91c.23-.13.46-.25.7-.36Z" style="fill:#fff;opacity:0.4"></path><path d="M241.25,307.3h-.05a.78.78,0,0,1-.52-.71V231.5c.36-.11.72-.21,1.1-.3v75.68A.41.41,0,0,1,241.25,307.3Z" style="fill:#fff;opacity:0.4"></path><path d="M238.76,239.56a5.14,5.14,0,0,1-1.91-1.76v-2.48a2.57,2.57,0,0,1,.14-.82,5.46,5.46,0,0,1,1.77-1.54,12.79,12.79,0,0,1,10.74-.35V232l.08,0a2.49,2.49,0,0,1,.28.15,5.27,5.27,0,0,1,1.52,1.25,3.47,3.47,0,0,1,.57,1,2.64,2.64,0,0,1,.14.84v3h0v8.82h0v56.21h0a7.61,7.61,0,0,1-14.59,3.06c1.34,2.61,4.94,3.73,8,2.87h0a4.3,4.3,0,0,0,3.09-4.16V240.24A12.8,12.8,0,0,1,238.76,239.56Z" style="fill:#00EEFF;opacity:0.2"></path><path d="M245.25,310.89h0c4.74-.88,5.55-4.74,5.55-7v-71l.1.09a3.92,3.92,0,0,1,.85,1.07l0,.06c0,.08.07.15.1.23l0,.08a2.3,2.3,0,0,1,.14.56V235a2.64,2.64,0,0,1,0,.29v3h0v8.82h0v56.21h0A7.62,7.62,0,0,1,245.25,310.89Z" style="opacity:0.1"></path><path d="M235.75,224.88c0-1.29.85-2.58,2.55-3.56a13.62,13.62,0,0,1,12.34,0c1.7,1,2.55,2.27,2.55,3.56h0v9.58h0c0,1.29-.85,2.58-2.55,3.56a13.62,13.62,0,0,1-12.34,0c-1.7-1-2.55-2.27-2.55-3.56h0v-9.58Z" style="fill:#e0e0e0"></path><path d="M242.38,239.34c4.32,0,6.6-1.37,7.29-2.52.53-.87.62-8.19.62-9.78,0,0,.48-3.63.39-3.64s1-.24,1.87-.42a3.26,3.26,0,0,1,.64,1.9h0v9.58h0c0,1.29-.85,2.58-2.55,3.56A13.44,13.44,0,0,1,242.38,239.34Z" style="opacity:0.1"></path><g style="opacity:0.2"><path d="M245.34,239.45c.14,0,.28,0,.42,0V228.64h-.42Z"></path><path d="M247.26,239.21l.41-.07V228.39h-.41Z"></path><path d="M249.05,238.73l.42-.16v-10.7h-.42Z"></path><path d="M250.68,238l.41-.3V227.07h-.41Z"></path><path d="M253,235.52a3,3,0,0,0,.21-1.06h0v-9.58h0a3.59,3.59,0,0,0-.11-.72H253Z"></path><path d="M252.39,236.54V226H252v11A6,6,0,0,0,252.39,236.54Z"></path><path d="M243.38,239.44l.42,0V228.65h-.42Z"></path><path d="M236.5,236.48a4.48,4.48,0,0,0,.42.46v-10.8h-.42Z"></path><path d="M238,237.78a4.15,4.15,0,0,0,.34.24l.08,0v-10.8H238Z"></path><path d="M235.75,234.46a3,3,0,0,0,.21,1.06v-11h-.15a2.25,2.25,0,0,0-.06.36Z"></path><path d="M239.62,238.64l.42.14V228h-.42Z"></path><path d="M241.45,239.17l.41.07V228.42h-.41Z"></path></g><path d="M250.64,228.44a13.68,13.68,0,0,1-12.34,0c-3.4-2-3.4-5.16,0-7.12a13.62,13.62,0,0,1,12.34,0C254.05,223.28,254.05,226.47,250.64,228.44Z" style="fill:#ebebeb"></path><path d="M237.84,228.14c-2.93-2-2.78-4.95.46-6.82a12.6,12.6,0,0,1,6-1.48,9.7,9.7,0,0,1,3.19,1.09c2.94,1.68,2.94,5,0,6.73A12.06,12.06,0,0,1,237.84,228.14Z" style="fill:#f5f5f5"></path><ellipse cx="244.47" cy="224.88" rx="3.79" ry="2.19" style="fill:#455a64"></ellipse><path d="M252.53,226.81s-2.84,2.85-8.32,2.71-7.67-3.15-8-4.07a3.41,3.41,0,0,1,.74-3.16,3.62,3.62,0,0,0-1.24,2.59v9.58c0,.33-.17,1.45,1.6,2.91a4.29,4.29,0,0,1-1-2.31v-8.4s1.94,3.25,7.9,3.25S252.23,227.3,252.53,226.81Z" style="fill:#fff"></path><g id="freepik--Label--inject-10"><path d="M244.11,265.28a10.75,10.75,0,0,0,6-1.64v29a10.75,10.75,0,0,1-6,1.64,12.62,12.62,0,0,1-3.3-.42v-29A13.07,13.07,0,0,0,244.11,265.28Z" style="opacity:0.1"></path><path d="M244.47,264.72a10.37,10.37,0,0,0,5.94-1.65v29a10.45,10.45,0,0,1-5.94,1.64,12.71,12.71,0,0,1-3.24-.41v-29A12.27,12.27,0,0,0,244.47,264.72Z" style="fill:#fafafa"></path><path d="M249.32,291.51a.3.3,0,0,0,.3-.3V265.4a.31.31,0,0,0-.61,0v25.81A.3.3,0,0,0,249.32,291.51Z" style="fill:#e0e0e0"></path><path d="M246.62,292.27a.35.35,0,0,0,.3-.16V266.3c0-.31-.13-.44-.3-.44a.29.29,0,0,0-.3.3V292A.29.29,0,0,0,246.62,292.27Z" style="fill:#e0e0e0"></path><path d="M243.63,292.27a.37.37,0,0,0,.3-.16V266.3c0-.31-.14-.44-.3-.44a.3.3,0,0,0-.31.3V292A.3.3,0,0,0,243.63,292.27Z" style="fill:#e0e0e0"></path></g></g><g id="freepik--test-tube--inject-10"><path d="M256.52,224a3.81,3.81,0,0,1,2.23-3.11,12,12,0,0,1,10.78,0,3.79,3.79,0,0,1,2.23,3.11v68h0a7.62,7.62,0,0,1-15.24,0h0Z" style="fill:#00EEFF"></path><path d="M256.52,224a3.81,3.81,0,0,1,2.23-3.11,12,12,0,0,1,10.78,0,3.79,3.79,0,0,1,2.23,3.11v68h0a7.62,7.62,0,0,1-15.24,0h0Z" style="fill:#fff;opacity:0.7000000000000001"></path><path d="M258.81,236.76a2.65,2.65,0,0,1,1.56-2.18,8.35,8.35,0,0,1,7.54,0,2.64,2.64,0,0,1,1.57,2.18v54.93h0a5.34,5.34,0,1,1-10.67,0h0Z" style="fill:#00EEFF"></path><path d="M264.14,297a5.34,5.34,0,0,1-5.32-5.07,3.72,3.72,0,0,0,7.29-1h0v-57a6.66,6.66,0,0,1,1.8.68,2.64,2.64,0,0,1,1.57,2.18v54.93h0A5.34,5.34,0,0,1,264.14,297Z" style="opacity:0.1"></path><path d="M258.81,236.76c0,1.7,2.38,3.08,5.33,3.08s5.34-1.38,5.34-3.08-2.39-3.08-5.34-3.08S258.81,235.06,258.81,236.76Z" style="fill:#00EEFF"></path><path d="M258.81,236.76c0,1.7,2.38,3.08,5.33,3.08s5.34-1.38,5.34-3.08-2.39-3.08-5.34-3.08S258.81,235.06,258.81,236.76Z" style="fill:#fff;opacity:0.30000000000000004"></path><path d="M258.81,236.76a2.64,2.64,0,0,1,1.55-2.17c-.13.13-2.29,2.62,1.09,4,3.63,1.5,6.94,0,7.83-1-.62,1.31-2.68,2.27-5.14,2.27C261.19,239.84,258.81,238.46,258.81,236.76Z" style="fill:#fff;opacity:0.5"></path><path d="M259.45,294.06c0,.76-.45,1.12-1,.77a2.68,2.68,0,0,1-.93-2v-71a5.91,5.91,0,0,1,1.21-.92l.7-.35Z" style="fill:#fff;opacity:0.4"></path><path d="M260.92,296l0,0a.76.76,0,0,1-.53-.7V220.15c.36-.11.72-.22,1.1-.3v75.68A.41.41,0,0,1,260.92,296Z" style="fill:#fff;opacity:0.4"></path><path d="M258.43,228.21a5.22,5.22,0,0,1-1.91-1.76V224a2.56,2.56,0,0,1,.14-.81,5.46,5.46,0,0,1,1.77-1.54,12.79,12.79,0,0,1,10.74-.35v-.59l.08,0,.28.14a5.46,5.46,0,0,1,1.52,1.26,3.33,3.33,0,0,1,.57,1,2.74,2.74,0,0,1,.14.84v3h0v8.82h0V292A7.62,7.62,0,0,1,257.17,295c1.34,2.6,4.94,3.73,8,2.87h0a4.31,4.31,0,0,0,3.09-4.17V228.89A12.8,12.8,0,0,1,258.43,228.21Z" style="fill:#00EEFF;opacity:0.2"></path><path d="M264.92,299.54h0c4.74-.89,5.55-4.74,5.55-7v-71l.1.09a3.78,3.78,0,0,1,.85,1.07.21.21,0,0,1,0,.06c0,.07.07.15.1.23l0,.08a2.19,2.19,0,0,1,.14.56.17.17,0,0,1,0,.07,2.64,2.64,0,0,1,0,.28v3h0v8.82h0V292h0A7.62,7.62,0,0,1,264.92,299.54Z" style="opacity:0.1"></path><path d="M255.42,213.52c0-1.28.85-2.57,2.55-3.56a13.68,13.68,0,0,1,12.34,0c1.7,1,2.55,2.28,2.55,3.56h0v9.59h0c0,1.29-.85,2.58-2.55,3.56a13.62,13.62,0,0,1-12.34,0c-1.7-1-2.55-2.27-2.55-3.56h0v-9.59Z" style="fill:#e0e0e0"></path><path d="M262.05,228c4.32,0,6.6-1.37,7.29-2.52.53-.87.62-8.19.62-9.78,0,0,.48-3.63.39-3.64s1-.24,1.87-.42a3.23,3.23,0,0,1,.64,1.89h0v9.59h0c0,1.29-.85,2.58-2.55,3.56A13.44,13.44,0,0,1,262.05,228Z" style="opacity:0.1"></path><g style="opacity:0.2"><path d="M265,228.1c.14,0,.28,0,.42,0V217.29H265Z"></path><path d="M266.93,227.86l.41-.07V217h-.41Z"></path><path d="M268.72,227.38l.42-.16v-10.7h-.42Z"></path><path d="M270.35,226.64c.15-.09.27-.19.41-.29V215.72h-.41Z"></path><path d="M272.65,224.17a3.08,3.08,0,0,0,.21-1.06h0v-9.59h0a3.49,3.49,0,0,0-.11-.71h-.1Z"></path><path d="M272.06,225.19V214.61h-.42v11A6,6,0,0,0,272.06,225.19Z"></path><path d="M263.05,228.08l.42,0V217.3h-.42Z"></path><path d="M256.17,225.13a4.48,4.48,0,0,0,.42.46v-10.8h-.42Z"></path><path d="M257.63,226.43c.12.07.21.16.34.24l.08,0V215.91h-.42Z"></path><path d="M255.42,223.11a3.08,3.08,0,0,0,.21,1.06v-11h-.15a2.14,2.14,0,0,0-.06.35Z"></path><path d="M259.29,227.29l.42.14V216.6h-.42Z"></path><path d="M261.12,227.82l.41.07V217.07h-.41Z"></path></g><path d="M270.31,217.09a13.68,13.68,0,0,1-12.34,0c-3.4-2-3.4-5.16,0-7.13a13.68,13.68,0,0,1,12.34,0C273.72,211.93,273.72,215.12,270.31,217.09Z" style="fill:#ebebeb"></path><path d="M257.51,216.79c-2.93-2-2.78-5,.46-6.83a12.59,12.59,0,0,1,6-1.47,9.7,9.7,0,0,1,3.19,1.09c2.94,1.68,2.94,5,0,6.73A12.06,12.06,0,0,1,257.51,216.79Z" style="fill:#f5f5f5"></path><ellipse cx="264.14" cy="213.52" rx="3.79" ry="2.19" style="fill:#455a64"></ellipse><path d="M272.2,215.46s-2.84,2.85-8.32,2.7-7.67-3.14-8-4.07a3.4,3.4,0,0,1,.74-3.15,3.61,3.61,0,0,0-1.24,2.58v9.59c0,.32-.17,1.45,1.6,2.91a4.29,4.29,0,0,1-1-2.32v-8.39s1.94,3.25,7.9,3.25S271.9,215.94,272.2,215.46Z" style="fill:#fff"></path><g id="freepik--label--inject-10"><path d="M263.78,253.93a10.75,10.75,0,0,0,6-1.64v29a10.75,10.75,0,0,1-6,1.64,12.62,12.62,0,0,1-3.3-.42v-29A13.07,13.07,0,0,0,263.78,253.93Z" style="opacity:0.1"></path><path d="M264.14,253.37a10.45,10.45,0,0,0,5.94-1.65v29a10.45,10.45,0,0,1-5.94,1.64,12.27,12.27,0,0,1-3.24-.42V253A12.7,12.7,0,0,0,264.14,253.37Z" style="fill:#fafafa"></path><path d="M269,280.16a.3.3,0,0,0,.3-.3V254.05a.31.31,0,0,0-.61,0v25.81A.3.3,0,0,0,269,280.16Z" style="fill:#e0e0e0"></path><path d="M266.32,280.81a.3.3,0,0,0,.3-.31V254.69a.3.3,0,0,0-.6,0V280.5A.3.3,0,0,0,266.32,280.81Z" style="fill:#e0e0e0"></path><path d="M263.37,281a.31.31,0,0,0,.3-.31V254.88a.31.31,0,0,0-.61,0v25.81A.31.31,0,0,0,263.37,281Z" style="fill:#e0e0e0"></path></g></g><g id="freepik--test-tube--inject-10"><path d="M276.2,212.6a3.76,3.76,0,0,1,2.23-3.11,11.88,11.88,0,0,1,10.77,0,3.76,3.76,0,0,1,2.23,3.11v68h0a7.62,7.62,0,0,1-15.23,0h0Z" style="fill:#00EEFF"></path><path d="M276.2,212.6a3.76,3.76,0,0,1,2.23-3.11,11.88,11.88,0,0,1,10.77,0,3.76,3.76,0,0,1,2.23,3.11v68h0a7.62,7.62,0,0,1-15.23,0h0Z" style="fill:#fff;opacity:0.7000000000000001"></path><path d="M278.48,225.39a2.66,2.66,0,0,1,1.56-2.18,8.37,8.37,0,0,1,7.55,0,2.66,2.66,0,0,1,1.56,2.18v54.93h0a5.34,5.34,0,0,1-10.67,0h0Z" style="fill:#00EEFF"></path><path d="M283.82,285.66a5.33,5.33,0,0,1-5.32-5.07,3.72,3.72,0,0,0,7.29-1h0v-57a6.78,6.78,0,0,1,1.8.68,2.66,2.66,0,0,1,1.56,2.18v54.93h0A5.34,5.34,0,0,1,283.82,285.66Z" style="opacity:0.1"></path><path d="M278.48,225.39c0,1.7,2.39,3.08,5.34,3.08s5.33-1.38,5.33-3.08-2.39-3.08-5.33-3.08S278.48,223.69,278.48,225.39Z" style="fill:#00EEFF"></path><path d="M278.48,225.39c0,1.7,2.39,3.08,5.34,3.08s5.33-1.38,5.33-3.08-2.39-3.08-5.33-3.08S278.48,223.69,278.48,225.39Z" style="fill:#fff;opacity:0.30000000000000004"></path><path d="M278.48,225.39a2.67,2.67,0,0,1,1.56-2.17c-.14.13-2.3,2.62,1.09,4,3.63,1.51,6.93,0,7.83-1-.62,1.31-2.68,2.27-5.14,2.27C280.87,228.47,278.48,227.09,278.48,225.39Z" style="fill:#fff;opacity:0.5"></path><path d="M279.13,282.69c0,.76-.45,1.12-1,.78a2.7,2.7,0,0,1-.92-2.05v-71a6,6,0,0,1,1.21-.91,7.67,7.67,0,0,1,.7-.36Z" style="fill:#fff;opacity:0.4"></path><path d="M280.59,284.58h0a.78.78,0,0,1-.52-.71V208.79c.35-.12.72-.22,1.09-.31v75.68A.41.41,0,0,1,280.59,284.58Z" style="fill:#fff;opacity:0.4"></path><path d="M278.1,216.84a5.18,5.18,0,0,1-1.9-1.76V212.6a2.56,2.56,0,0,1,.13-.82,5.68,5.68,0,0,1,1.77-1.54,12.79,12.79,0,0,1,10.74-.35v-.59l.09,0c.09,0,.18.09.27.15a5.47,5.47,0,0,1,1.53,1.25,3.47,3.47,0,0,1,.57,1,2.63,2.63,0,0,1,.13.84v3h0v8.82h0V280.6h0a7.61,7.61,0,0,1-14.58,3.06c1.33,2.61,4.93,3.73,8,2.87h0a4.31,4.31,0,0,0,3.08-4.16V217.52A12.76,12.76,0,0,1,278.1,216.84Z" style="fill:#00EEFF;opacity:0.2"></path><path d="M284.6,288.18h0c4.74-.89,5.55-4.75,5.55-7v-71l.1.09a4.12,4.12,0,0,1,.85,1.07l0,.06a2.29,2.29,0,0,1,.1.23l0,.08a3.82,3.82,0,0,1,.14.56.15.15,0,0,0,0,.07,2.81,2.81,0,0,1,0,.29v3h0v8.82h0V280.6h0A7.62,7.62,0,0,1,284.6,288.18Z" style="opacity:0.1"></path><path d="M275.09,202.16c0-1.29.86-2.58,2.56-3.56a13.6,13.6,0,0,1,12.33,0c1.71,1,2.56,2.27,2.56,3.56h0v9.58h0c0,1.29-.85,2.58-2.56,3.56a13.6,13.6,0,0,1-12.33,0c-1.7-1-2.56-2.27-2.56-3.56h0v-9.58Z" style="fill:#e0e0e0"></path><path d="M281.73,216.63c4.32,0,6.59-1.38,7.29-2.53.52-.87.61-8.19.61-9.78,0,0,.49-3.63.39-3.64s1-.24,1.88-.42a3.26,3.26,0,0,1,.64,1.9h0v9.58h0c0,1.29-.85,2.58-2.56,3.56A13.48,13.48,0,0,1,281.73,216.63Z" style="opacity:0.1"></path><g style="opacity:0.2"><path d="M284.69,216.73l.41,0V205.92h-.41Z"></path><path d="M286.6,216.49l.42-.07V205.67h-.42Z"></path><path d="M288.4,216l.41-.16v-10.7h-.41Z"></path><path d="M290,215.28c.16-.1.28-.2.42-.3V204.35H290Z"></path><path d="M292.33,212.8a3,3,0,0,0,.21-1.06h0v-9.58h0a3,3,0,0,0-.12-.72h-.09Z"></path><path d="M291.73,213.82V203.24h-.42v11A3.57,3.57,0,0,0,291.73,213.82Z"></path><path d="M282.72,216.72l.42,0V205.93h-.42Z"></path><path d="M275.85,213.76a4.48,4.48,0,0,0,.42.46v-10.8h-.42Z"></path><path d="M277.3,215.06c.12.08.22.17.35.24l.07,0v-10.8h-.42Z"></path><path d="M275.09,211.74a3,3,0,0,0,.21,1.06v-11h-.15c0,.12-.06.24-.06.36Z"></path><path d="M279,215.92l.42.14V205.23H279Z"></path><path d="M280.79,216.45l.42.07V205.7h-.42Z"></path></g><path d="M290,205.72a13.66,13.66,0,0,1-12.33,0c-3.41-2-3.41-5.16,0-7.12a13.6,13.6,0,0,1,12.33,0C293.39,200.56,293.39,203.75,290,205.72Z" style="fill:#ebebeb"></path><path d="M277.18,205.42c-2.92-2-2.77-4.95.47-6.82a12.45,12.45,0,0,1,6-1.47,9.49,9.49,0,0,1,3.18,1.08c2.95,1.68,2.95,5,0,6.73A12.06,12.06,0,0,1,277.18,205.42Z" style="fill:#f5f5f5"></path><path d="M286.5,203.7a5.89,5.89,0,0,1-5.36,0c-1.48-.85-1.48-2.24,0-3.09a6,6,0,0,1,5.36,0C288,201.46,288,202.85,286.5,203.7Z" style="fill:#455a64"></path><path d="M291.87,204.09S289,207,283.55,206.8s-7.67-3.15-8-4.07a3.44,3.44,0,0,1,.74-3.16,3.66,3.66,0,0,0-1.24,2.59v9.58c0,.33-.16,1.45,1.61,2.91a4.29,4.29,0,0,1-1-2.31V204s1.94,3.24,7.89,3.24S291.57,204.58,291.87,204.09Z" style="fill:#fff"></path><g id="freepik--label--inject-10"><path d="M283.45,242.57a10.81,10.81,0,0,0,6.05-1.65v29a10.81,10.81,0,0,1-6.05,1.64,12.74,12.74,0,0,1-3.3-.42v-29A13.18,13.18,0,0,0,283.45,242.57Z" style="opacity:0.1"></path><path d="M283.82,242a10.32,10.32,0,0,0,5.93-1.65v29a10.39,10.39,0,0,1-5.93,1.64,12.65,12.65,0,0,1-3.24-.41v-29A12.22,12.22,0,0,0,283.82,242Z" style="fill:#fafafa"></path><path d="M288.66,268.79a.29.29,0,0,0,.3-.3V242.68a.3.3,0,0,0-.6,0v25.81A.29.29,0,0,0,288.66,268.79Z" style="fill:#e0e0e0"></path><path d="M285.87,269.44a.31.31,0,0,0,.3-.3V243.33a.31.31,0,1,0-.61,0v25.81A.31.31,0,0,0,285.87,269.44Z" style="fill:#e0e0e0"></path><path d="M282.93,269.44a.3.3,0,0,0,.3-.3V243.33a.3.3,0,1,0-.6,0v25.81A.3.3,0,0,0,282.93,269.44Z" style="fill:#e0e0e0"></path></g></g><g id="freepik--test-tube--inject-10"><path d="M295.87,201.24a3.81,3.81,0,0,1,2.23-3.11,12,12,0,0,1,10.78,0,3.79,3.79,0,0,1,2.23,3.11v68h0a7.62,7.62,0,0,1-15.24,0h0Z" style="fill:#00EEFF"></path><path d="M295.87,201.24a3.81,3.81,0,0,1,2.23-3.11,12,12,0,0,1,10.78,0,3.79,3.79,0,0,1,2.23,3.11v68h0a7.62,7.62,0,0,1-15.24,0h0Z" style="fill:#fff;opacity:0.7000000000000001"></path><path d="M298.16,214a2.65,2.65,0,0,1,1.56-2.18,8.35,8.35,0,0,1,7.54,0,2.64,2.64,0,0,1,1.57,2.18V269h0a5.34,5.34,0,1,1-10.67,0h0Z" style="fill:#00EEFF"></path><path d="M303.49,274.31a5.34,5.34,0,0,1-5.32-5.07,3.72,3.72,0,0,0,7.29-1h0v-57a6.66,6.66,0,0,1,1.8.68,2.64,2.64,0,0,1,1.57,2.18V269h0A5.34,5.34,0,0,1,303.49,274.31Z" style="opacity:0.1"></path><path d="M298.16,214c0,1.7,2.39,3.08,5.33,3.08s5.34-1.38,5.34-3.08-2.39-3.08-5.34-3.08S298.16,212.34,298.16,214Z" style="fill:#00EEFF"></path><path d="M298.16,214c0,1.7,2.39,3.08,5.33,3.08s5.34-1.38,5.34-3.08-2.39-3.08-5.34-3.08S298.16,212.34,298.16,214Z" style="fill:#fff;opacity:0.30000000000000004"></path><path d="M298.16,214a2.64,2.64,0,0,1,1.55-2.17c-.13.13-2.29,2.62,1.09,4,3.63,1.51,6.94,0,7.83-1-.62,1.31-2.68,2.27-5.14,2.27C300.55,217.12,298.16,215.74,298.16,214Z" style="fill:#fff;opacity:0.5"></path><path d="M298.8,271.34c0,.76-.45,1.12-1,.77a2.68,2.68,0,0,1-.93-2v-71a6.29,6.29,0,0,1,1.21-.92c.23-.12.46-.24.7-.35Z" style="fill:#fff;opacity:0.4"></path><path d="M300.27,273.23l0,0a.76.76,0,0,1-.53-.7V197.43c.36-.11.72-.21,1.1-.3v75.68A.41.41,0,0,1,300.27,273.23Z" style="fill:#fff;opacity:0.4"></path><path d="M297.78,205.49a5.22,5.22,0,0,1-1.91-1.76v-2.49a2.56,2.56,0,0,1,.14-.81,5.46,5.46,0,0,1,1.77-1.54,12.79,12.79,0,0,1,10.74-.35V198l.08,0,.28.14a5.46,5.46,0,0,1,1.52,1.26,3.33,3.33,0,0,1,.57,1,2.74,2.74,0,0,1,.14.84v3h0V213h0v56.22a7.62,7.62,0,0,1-14.59,3.06c1.34,2.6,4.94,3.73,8,2.87h0a4.3,4.3,0,0,0,3.09-4.16V206.17A12.8,12.8,0,0,1,297.78,205.49Z" style="fill:#00EEFF;opacity:0.2"></path><path d="M304.27,276.82h0c4.74-.89,5.55-4.74,5.55-7v-71l.1.09a3.92,3.92,0,0,1,.85,1.07.21.21,0,0,1,0,.06c0,.07.07.15.1.23l0,.08a2.19,2.19,0,0,1,.14.56.17.17,0,0,1,0,.07,2.64,2.64,0,0,1,0,.28v3h0V213h0v56.2h0A7.62,7.62,0,0,1,304.27,276.82Z" style="opacity:0.1"></path><path d="M294.77,190.8c0-1.28.85-2.57,2.55-3.56a13.68,13.68,0,0,1,12.34,0c1.7,1,2.55,2.28,2.55,3.56h0v9.59h0c0,1.29-.85,2.58-2.55,3.56a13.62,13.62,0,0,1-12.34,0c-1.7-1-2.55-2.27-2.55-3.56h0V190.8Z" style="fill:#e0e0e0"></path><path d="M301.4,205.27c4.32,0,6.6-1.37,7.29-2.52.53-.87.62-8.19.62-9.78,0,0,.48-3.63.39-3.64s1-.24,1.87-.42a3.23,3.23,0,0,1,.64,1.89h0v9.59h0c0,1.29-.85,2.58-2.55,3.56A13.44,13.44,0,0,1,301.4,205.27Z" style="opacity:0.1"></path><g style="opacity:0.2"><path d="M304.36,205.38c.14,0,.28,0,.42,0V194.57h-.42Z"></path><path d="M306.28,205.14l.41-.07V194.32h-.41Z"></path><path d="M308.07,204.66l.42-.16V193.8h-.42Z"></path><path d="M309.7,203.92c.15-.09.27-.19.41-.29V193h-.41Z"></path><path d="M312,201.45a3.08,3.08,0,0,0,.21-1.06h0V190.8h0a3.6,3.6,0,0,0-.11-.71H312Z"></path><path d="M311.41,202.47V191.89H311v11A6,6,0,0,0,311.41,202.47Z"></path><path d="M302.4,205.36l.42,0V194.58h-.42Z"></path><path d="M295.52,202.41a4.48,4.48,0,0,0,.42.46v-10.8h-.42Z"></path><path d="M297,203.71c.12.08.21.16.34.24l.08,0V193.19H297Z"></path><path d="M294.77,200.39a3.08,3.08,0,0,0,.21,1.06v-11h-.15a2.33,2.33,0,0,0-.06.35Z"></path><path d="M298.64,204.57l.42.14V193.88h-.42Z"></path><path d="M300.47,205.1l.41.07V194.35h-.41Z"></path></g><path d="M309.66,194.37a13.68,13.68,0,0,1-12.34,0c-3.4-2-3.4-5.16,0-7.13a13.68,13.68,0,0,1,12.34,0C313.07,189.21,313.07,192.4,309.66,194.37Z" style="fill:#ebebeb"></path><path d="M296.86,194.07c-2.93-2-2.78-5,.46-6.83a12.71,12.71,0,0,1,6-1.47,9.7,9.7,0,0,1,3.19,1.09c2.94,1.68,2.94,5,0,6.73A12.06,12.06,0,0,1,296.86,194.07Z" style="fill:#f5f5f5"></path><path d="M306.17,192.35a5.89,5.89,0,0,1-5.36,0c-1.48-.85-1.48-2.24,0-3.09a5.89,5.89,0,0,1,5.36,0C307.65,190.11,307.65,191.5,306.17,192.35Z" style="fill:#455a64"></path><path d="M311.55,192.74s-2.84,2.85-8.32,2.7-7.67-3.14-8-4.06a3.41,3.41,0,0,1,.74-3.16,3.61,3.61,0,0,0-1.24,2.58v9.59c0,.33-.17,1.45,1.6,2.91a4.29,4.29,0,0,1-1-2.32v-8.39s1.94,3.25,7.9,3.25S311.25,193.23,311.55,192.74Z" style="fill:#fff"></path><g id="freepik--label--inject-10"><path d="M303.13,231.21a10.75,10.75,0,0,0,6-1.64v29a10.75,10.75,0,0,1-6,1.64,12.62,12.62,0,0,1-3.3-.42v-29A13.07,13.07,0,0,0,303.13,231.21Z" style="opacity:0.1"></path><path d="M303.49,230.65a10.45,10.45,0,0,0,5.94-1.65v29a10.45,10.45,0,0,1-5.94,1.64,12.27,12.27,0,0,1-3.24-.42v-29A12.7,12.7,0,0,0,303.49,230.65Z" style="fill:#fafafa"></path><path d="M307.69,257.52a.3.3,0,0,0,.3-.3V231.41a.3.3,0,1,0-.6,0v25.81A.3.3,0,0,0,307.69,257.52Z" style="fill:#e0e0e0"></path><path d="M305.08,258.09a.3.3,0,0,0,.3-.31V232a.3.3,0,0,0-.6,0v25.81A.3.3,0,0,0,305.08,258.09Z" style="fill:#e0e0e0"></path><path d="M302.4,258.24a.3.3,0,0,0,.3-.3V232.13a.3.3,0,1,0-.6,0v25.81A.3.3,0,0,0,302.4,258.24Z" style="fill:#e0e0e0"></path></g></g><polygon points="240.83 259.56 324.34 211.35 324.34 213.35 240.83 261.57 223.64 251.64 223.64 249.64 240.83 259.56" style="fill:#e0e0e0"></polygon><path d="M223.64,249.64l17.19,9.92,83.51-48.21-13.22-7.64h0v7.4c1.77,1.9,1.27,4.32-1.51,5.92a13.56,13.56,0,0,1-12.28,0c-2.8-1.62-3.28-4.07-1.45-6v-3.12l-3.34,1.93v1.88a3.27,3.27,0,0,1-.63,1.89,4,4,0,0,1-.47.56v8.23c1.8,1.9,1.31,4.34-1.48,5.94a13.56,13.56,0,0,1-12.28,0c-2.79-1.6-3.28-4-1.47-6v-3.12l-3.34,1.92v1.89a3.29,3.29,0,0,1-.64,1.9,4.7,4.7,0,0,1-.46.56v8.18c1.82,1.9,1.35,4.35-1.45,6a13.58,13.58,0,0,1-12.29,0c-2.78-1.61-3.27-4-1.5-5.93v-3.13l-3.33,1.92v1.89a3.29,3.29,0,0,1-.64,1.9,4.72,4.72,0,0,1-.47.57v8.13c1.86,1.91,1.39,4.37-1.43,6a13.56,13.56,0,0,1-12.28,0c-2.77-1.6-3.27-4-1.53-5.89V242Z" style="fill:#fafafa"></path><polygon points="240.83 304.94 324.34 256.72 324.34 258.72 240.83 306.94 223.64 297.01 223.64 295.01 240.83 304.94" style="fill:#e0e0e0"></polygon><path d="M236.85,287.38v3.14c-1.75,1.9-1.24,4.31,1.52,5.9a13.56,13.56,0,0,0,12.28,0c2.82-1.62,3.29-4.08,1.43-6V278.58l4.44-2.56v3.13c-1.77,1.9-1.28,4.32,1.5,5.93a13.56,13.56,0,0,0,12.28,0c2.81-1.62,3.29-4.07,1.46-6V267.22l4.44-2.56v3.12c-1.81,1.91-1.32,4.34,1.47,6a13.56,13.56,0,0,0,12.28,0c2.79-1.61,3.28-4,1.48-5.94V255.86l4.44-2.56v3.12c-1.83,1.9-1.35,4.35,1.45,6a13.56,13.56,0,0,0,12.28,0c2.78-1.6,3.28-4,1.51-5.92v-7.39h0l13.22,7.64-83.51,48.21L223.64,295Z" style="fill:#fafafa"></path></g></g><g id="freepik--Microscope--inject-10"><g id="freepik--microscope--inject-10"><path id="freepik--shadow--inject-10" d="M196.38,382.93l73-42.16a1.15,1.15,0,0,0,0-2.18L155,272.54a4.19,4.19,0,0,0-3.78,0l-73,42.17a1.15,1.15,0,0,0,0,2.18l114.39,66A4.13,4.13,0,0,0,196.38,382.93Z" style="fill:#e0e0e0"></path><g id="freepik--microscope--inject-10"><path d="M88.56,304.3v7.52l106.17,61.3V365.6c0-4.15-4.15-9.92-9.26-12.87L97.82,302.12c-3.08-1.78-5.81-2.13-7.49-1.23A3.6,3.6,0,0,0,88.56,304.3Z" style="fill:#263238"></path><path d="M150.9,265.93l.13-.08h0c1.68-1,4.45-.63,7.58,1.18l87.66,50.61c5.11,2.95,9.26,8.72,9.26,12.86V338l-60.81,35.1V365.6c0-4.15-4.15-9.92-9.26-12.87L97.82,302.12c-3.08-1.78-5.81-2.13-7.49-1.23Z" style="fill:#455a64"></path><path d="M219.53,308.33c-7.37-4.25-17.38-6-27-5.35l-36.79-21.24L127.42,298.1l36.77,21.23c-1.17,5.55,1.91,11.33,9.29,15.59,12.71,7.34,33.33,7.34,46.05,0S232.25,315.67,219.53,308.33Z" style="fill:#37474f"></path><path d="M120.62,281.64v12.53l21.71,12.54V294.17c0-6.92-4.86-15.34-10.86-18.81-3-1.75-5.77-1.9-7.74-.71S120.62,278.22,120.62,281.64Z" style="fill:#00EEFF"></path><path d="M120.62,281.64v12.53l21.71,12.54V294.17c0-6.92-4.86-15.34-10.86-18.81-3-1.75-5.77-1.9-7.74-.71S120.62,278.22,120.62,281.64Z" style="fill:#fff;opacity:0.6000000000000001"></path><path d="M149.71,259.65l.17-.11c2-1.11,4.66-.94,7.65.78,6,3.46,10.86,11.88,10.86,18.81v12.54l-26.06,15V294.17c0-6.92-4.86-15.34-10.86-18.81-2.87-1.65-5.48-1.88-7.42-.89Z" style="fill:#00EEFF"></path><path d="M149.71,259.65l.17-.11c2-1.11,4.66-.94,7.65.78,6,3.46,10.86,11.88,10.86,18.81v12.54l-26.06,15V294.17c0-6.92-4.86-15.34-10.86-18.81-2.87-1.65-5.48-1.88-7.42-.89Z" style="fill:#fff;opacity:0.7000000000000001"></path><path d="M131.48,286.38c-1.6-.93-2.9-.18-2.9,1.67a6.4,6.4,0,0,0,2.9,5c1.6.93,2.9.18,2.9-1.67A6.4,6.4,0,0,0,131.48,286.38Z" style="fill:#455a64"></path><path d="M115.06,233.38c5.81,19,9.92,27,20.8,41.46l20.19-11.66c-10-15.65-15.46-27.51-18-43.08-4.42-27.09,5.55-50.89,16.11-60.68l-7.85-10.85c-4.73,2.82-20.2,11.66-20.2,11.66l6.59,11C113.83,181.58,109.24,214.4,115.06,233.38Z" style="fill:#37474f"></path><path d="M126.12,160.23c-10.69,6.38-27,25.1-24.6,60.51,1.19,17.28,8.19,38.22,20.54,55.48a4.72,4.72,0,0,1,1.67-1.57c.77-.45,1.94-1.11,2.77-1.6,2-1.19,4.71-1,7.74.72a13.51,13.51,0,0,1,1.63,1.08c-8.75-16.15-17.93-30.32-20.18-45.93-4.89-34,10-53.49,17-57.65Z" style="fill:#263238"></path><path d="M126.12,160.23a37.72,37.72,0,0,1,17.91-5l2.06,11.87s-5.29-.87-13.39,4.15Z" style="fill:#263238"></path><polygon points="177.02 307.48 177.02 297.45 205.36 281.08 205.36 291.11 177.02 307.48" style="fill:#00EEFF"></polygon><polygon points="177.02 307.48 177.02 297.45 205.36 281.08 205.36 291.11 177.02 307.48" style="opacity:0.15"></polygon><polygon points="177.02 307.48 127.42 278.84 127.42 268.81 177.02 297.45 177.02 307.48" style="fill:#00EEFF"></polygon><polygon points="177.02 307.48 127.42 278.84 127.42 268.81 177.02 297.45 177.02 307.48" style="opacity:0.25"></polygon><polygon points="205.36 281.08 155.76 252.45 127.42 268.81 177.02 297.45 205.36 281.08" style="fill:#00EEFF"></polygon><path d="M229.06,301.54v-9.2c0-4.81-3.17-9.63-9.53-13.3-12.72-7.34-33.34-7.34-46.05,0-6.36,3.67-9.54,8.48-9.53,13.29h0v9.21h0c-.09,4.87,3.08,9.76,9.52,13.48,12.71,7.34,33.33,7.34,46.05,0,6.44-3.72,9.61-8.61,9.52-13.48Z" style="fill:#00EEFF"></path><path d="M229.06,301.54v-9.2c0-4.81-3.17-9.63-9.53-13.3-12.72-7.34-33.34-7.34-46.05,0-6.36,3.67-9.54,8.48-9.53,13.29h0v9.21h0c-.09,4.87,3.08,9.76,9.52,13.48,12.71,7.34,33.33,7.34,46.05,0,6.44-3.72,9.61-8.61,9.52-13.48Z" style="opacity:0.25"></path><path d="M173.48,279c12.71-7.34,33.33-7.34,46.05,0s12.72,19.25,0,26.59-33.34,7.34-46.05,0S160.76,286.38,173.48,279Z" style="fill:#00EEFF"></path><path d="M220.92,291.83v-6.9c0-3.6-2.38-7.22-7.15-10-9.54-5.51-25-5.51-34.53,0-4.77,2.75-7.15,6.36-7.15,10h0v6.9h0c-.07,3.66,2.31,7.32,7.14,10.11,9.53,5.51,25,5.51,34.53,0,4.83-2.79,7.2-6.45,7.14-10.11Z" style="fill:#e0e0e0"></path><path d="M179.24,275c9.53-5.51,25-5.51,34.53,0s9.54,14.43,0,19.94-25,5.51-34.53,0S169.7,280.47,179.24,275Z" style="fill:#fafafa"></path><path d="M180.22,275.53c9-5.19,23.57-5.19,32.56,0s9,13.61,0,18.8-23.57,5.19-32.56,0S171.23,280.72,180.22,275.53Z" style="fill:#e6e6e6"></path><path d="M212.78,281.91c-9-5.19-23.57-5.19-32.56,0a13.75,13.75,0,0,0-6.07,6.21,13.75,13.75,0,0,0,6.07,6.21c9,5.19,23.57,5.19,32.56,0a13.78,13.78,0,0,0,6.08-6.21A13.78,13.78,0,0,0,212.78,281.91Z" style="fill:#f0f0f0"></path><path d="M192.37,285.73a9.19,9.19,0,0,1,8.27,0c2.28,1.32,2.28,3.46,0,4.78a9.19,9.19,0,0,1-8.27,0C190.09,289.19,190.09,287.05,192.37,285.73Z" style="fill:#00EEFF"></path><path d="M202.84,290.57a2.82,2.82,0,0,1,2.56,0,.78.78,0,0,1,0,1.48,2.82,2.82,0,0,1-2.56,0A.78.78,0,0,1,202.84,290.57Z" style="fill:#00EEFF"></path><path d="M200.51,287c0,.63-.9,1.14-2,1.14s-2-.51-2-1.14.9-1.14,2-1.14S200.51,286.35,200.51,287Z" style="fill:#fff;opacity:0.6000000000000001"></path><path d="M205.18,291c0,.19-.28.35-.62.35s-.62-.16-.62-.35.27-.35.62-.35S205.18,290.76,205.18,291Z" style="fill:#fff;opacity:0.6000000000000001"></path><path d="M207.11,235.45V210l17.71.05v25.46h0c0,1.3-.88,2.61-2.61,3.6a13.81,13.81,0,0,1-12.52,0C208,238.07,207.11,236.76,207.11,235.45Z" style="fill:#263238"></path><path d="M224.83,230.2c0,1.31-.88,2.61-2.61,3.6a13.84,13.84,0,0,1-12.52,0c-1.73-1-2.59-2.32-2.59-3.63v5.31c0,1.31.86,2.62,2.59,3.62a13.81,13.81,0,0,0,12.52,0c1.73-1,2.6-2.3,2.61-3.6h0V230.2Z" style="fill:#00EEFF"></path><path d="M224.83,230.2c0,1.31-.88,2.61-2.61,3.6a13.84,13.84,0,0,1-12.52,0c-1.73-1-2.59-2.32-2.59-3.63v5.31c0,1.31.86,2.62,2.59,3.62a13.81,13.81,0,0,0,12.52,0c1.73-1,2.6-2.3,2.61-3.6h0V230.2Z" style="fill:#fff;opacity:0.6000000000000001"></path><path d="M185.93,235.45V210l-17.72.05v25.46h0c0,1.3.87,2.61,2.6,3.6a13.83,13.83,0,0,0,12.53,0C185.07,238.07,185.93,236.76,185.93,235.45Z" style="fill:#263238"></path><path d="M168.22,230.2c0,1.31.87,2.61,2.6,3.6a13.86,13.86,0,0,0,12.53,0c1.72-1,2.58-2.32,2.58-3.63v5.31c0,1.31-.86,2.62-2.58,3.62a13.83,13.83,0,0,1-12.53,0c-1.73-1-2.6-2.3-2.6-3.6h0V230.2Z" style="fill:#00EEFF"></path><path d="M168.22,230.2c0,1.31.87,2.61,2.6,3.6a13.86,13.86,0,0,0,12.53,0c1.72-1,2.58-2.32,2.58-3.63v5.31c0,1.31-.86,2.62-2.58,3.62a13.83,13.83,0,0,1-12.53,0c-1.73-1-2.6-2.3-2.6-3.6h0V230.2Z" style="opacity:0.25"></path><path d="M187.64,246.67V221.22l17.71.05v25.46h0c0,1.31-.88,2.61-2.61,3.6a13.86,13.86,0,0,1-12.53,0C188.5,249.29,187.64,248,187.64,246.67Z" style="fill:#37474f"></path><path d="M205.36,241.42c0,1.31-.88,2.61-2.61,3.61a13.9,13.9,0,0,1-12.53,0c-1.72-1-2.58-2.32-2.58-3.63v5.31c0,1.31.86,2.62,2.58,3.63a13.86,13.86,0,0,0,12.53,0c1.73-1,2.6-2.29,2.61-3.6h0v-5.31Z" style="fill:#00EEFF"></path><path d="M226.61,187.83c0-3.58-1.93-7.17-5.87-10.17a38.27,38.27,0,0,1-6.24-6.16L206,161.21a40.19,40.19,0,0,0-42.4-13.3,33.69,33.69,0,0,0-7,3c-6.25,3.59-9.07,8.42-8.45,13.13l-.06,29.57c-.35,4.52,2.46,9.13,8.44,12.6L177,218c11.31,6.58,29.7,6.64,41,.13,5.66-3.25,8.51-7.51,8.54-11.79S226.59,192.11,226.61,187.83Z" style="fill:#37474f"></path><polygon points="155.76 197.56 162.85 201.66 162.85 197.56 155.76 193.47 155.76 197.56" style="fill:#00EEFF"></polygon><path d="M168.63,189.31A40.2,40.2,0,0,0,211,202.6a33.6,33.6,0,0,0,7-3c10.41-6,11.31-15.38,2.67-22a37.63,37.63,0,0,1-6.22-6.14L206,161.21a40.19,40.19,0,0,0-42.4-13.3,33.69,33.69,0,0,0-7,3c-10.41,6-11.3,15.39-2.66,22a38.84,38.84,0,0,1,6.22,6.14Z" style="fill:#455a64"></path><path d="M218.07,214.6c-11.35,6.51-29.74,6.45-41-.13l-20.49-11.83c-5.66-3.29-8.48-7.59-8.47-11.88v3.54c0,4.29,2.81,8.59,8.47,11.88L177,218c11.31,6.58,29.7,6.64,41,.13,5.66-3.25,8.51-7.51,8.54-11.79v-3.54C226.58,207.09,223.73,211.36,218.07,214.6Z" style="fill:#00EEFF"></path><path d="M148.05,162.71V142.57l58.07.18,0,20.14h0c0,4.29-2.86,8.57-8.54,11.82-11.36,6.51-29.74,6.46-41-.12C150.86,171.3,148,167,148.05,162.71Z" style="fill:#37474f"></path><path d="M206.13,142.75l-58.07-.18s0,.19,0,4.48,2.8,8.58,8.46,11.87c11.32,6.59,29.7,6.64,41.06.13,5.68-3.25,8.52-7.53,8.54-11.82S206.13,142.75,206.13,142.75Z" style="fill:#00EEFF"></path><path d="M197.66,130.87c-11.32-6.58-29.7-6.64-41.06-.13s-11.39,17.12-.07,23.7,29.7,6.64,41.05.13S209,137.45,197.66,130.87Z" style="fill:#00EEFF"></path><path d="M197.66,130.87c-11.32-6.58-29.7-6.64-41.06-.13s-11.39,17.12-.07,23.7,29.7,6.64,41.05.13S209,137.45,197.66,130.87Z" style="fill:#fff;opacity:0.5"></path><path d="M164.53,141V104.9l25.09.08V141h0c0,1.85-1.23,3.7-3.69,5.11-4.9,2.81-12.85,2.79-17.74-.06C165.74,144.67,164.53,142.81,164.53,141Z" style="fill:#37474f"></path><path d="M189.63,105l-25.09-.08s0,3.43,0,5.28,1.21,3.72,3.66,5.14c4.89,2.84,12.84,2.87,17.74.05,2.46-1.4,3.69-3.25,3.69-5.11S189.63,105,189.63,105Z" style="fill:#00EEFF"></path><path d="M186,99.84c-4.89-2.84-12.83-2.86-17.74,0s-4.92,7.4,0,10.24,12.83,2.87,17.74.06S190.86,102.69,186,99.84Z" style="fill:#00EEFF"></path><path d="M186,99.84c-4.89-2.84-12.83-2.86-17.74,0s-4.92,7.4,0,10.24,12.83,2.87,17.74.06S190.86,102.69,186,99.84Z" style="opacity:0.25"></path><path d="M183.48,101.27a14.15,14.15,0,0,0-12.77,0c-3.53,2-3.54,5.33,0,7.37a14.07,14.07,0,0,0,12.76,0C187,106.62,187,103.32,183.48,101.27Z" style="fill:#263238"></path><path d="M170.71,106.44a6.89,6.89,0,0,0-1.43,1.09,6.68,6.68,0,0,0,1.41,1.07,14.07,14.07,0,0,0,12.76,0,6.68,6.68,0,0,0,1.44-1.08,6.68,6.68,0,0,0-1.41-1.07A14.12,14.12,0,0,0,170.71,106.44Z" style="fill:#455a64"></path><path d="M174.25,106.94c.1.49-.36,1-1,1.15s-1.31-.13-1.41-.61.35-1,1-1.15A1.13,1.13,0,0,1,174.25,106.94Z" style="fill:#fafafa"></path><path d="M175.84,106.41a.5.5,0,0,1-.38.58.49.49,0,1,1-.2-1A.5.5,0,0,1,175.84,106.41Z" style="fill:#fafafa"></path><path d="M141,147.73c1.73-1.07,4.16-1,6.86.6a16.56,16.56,0,0,1,4.09,3.43c.3.33.59.68.87,1,0,0,0,0,0,.06a23.06,23.06,0,0,1,3.6,6.69,16.85,16.85,0,0,1,.92,5.26c0,3-1,5.06-2.67,6.09l-3.17,1.83a4.48,4.48,0,0,0,1.28-1.18,8,8,0,0,0,1.39-4.9c0-6.07-4.27-13.46-9.52-16.49a8,8,0,0,0-5-1.25,4.44,4.44,0,0,0-1.83.63h0Z" style="fill:#00EEFF"></path><path d="M141,147.73c1.73-1.07,4.16-1,6.86.6a16.56,16.56,0,0,1,4.09,3.43c.3.33.59.68.87,1,0,0,0,0,0,.06a23.06,23.06,0,0,1,3.6,6.69,16.85,16.85,0,0,1,.92,5.26c0,3-1,5.06-2.67,6.09l-3.17,1.83a4.48,4.48,0,0,0,1.28-1.18,8,8,0,0,0,1.39-4.9c0-6.07-4.27-13.46-9.52-16.49a8,8,0,0,0-5-1.25,4.44,4.44,0,0,0-1.83.63h0Z" style="fill:#fff;opacity:0.7000000000000001"></path><path d="M137.84,149.54a4.44,4.44,0,0,1,1.83-.63,8,8,0,0,1,5,1.25c5.25,3,9.52,10.42,9.52,16.49a8,8,0,0,1-1.39,4.9,4.48,4.48,0,0,1-1.28,1.18l-.15.09a4.84,4.84,0,0,1-2.62.61,8.76,8.76,0,0,1-4.08-1.29c-5.26-3-9.53-10.42-9.53-16.48C135.11,152.66,136.15,150.55,137.84,149.54Z" style="fill:#00EEFF"></path><path d="M137.84,149.54a4.44,4.44,0,0,1,1.83-.63,8,8,0,0,1,5,1.25c5.25,3,9.52,10.42,9.52,16.49a8,8,0,0,1-1.39,4.9,4.48,4.48,0,0,1-1.28,1.18l-.15.09a4.84,4.84,0,0,1-2.62.61,8.76,8.76,0,0,1-4.08-1.29c-5.26-3-9.53-10.42-9.53-16.48C135.11,152.66,136.15,150.55,137.84,149.54Z" style="fill:#fff;opacity:0.6000000000000001"></path><path d="M144.64,156.72c-2.12-1.22-3.84-.23-3.84,2.22a8.48,8.48,0,0,0,3.84,6.64c2.11,1.22,3.83.23,3.83-2.21A8.51,8.51,0,0,0,144.64,156.72Z" style="fill:#455a64"></path></g></g></g><g id="freepik--Zoom--inject-10"><g id="freepik--speech-bubble--inject-10"><g id="freepik--speech-bubble--inject-10"><path d="M330,99.08a61.41,61.41,0,1,1-54.4-67.71A61.48,61.48,0,0,1,330,99.08Z" style="fill:#fff"></path><path d="M275.92,28.26a64.53,64.53,0,0,0-40,119.61.58.58,0,0,1,.15.11l-.73,13.18a2.47,2.47,0,0,0,4.2,1.89l9.42-9.24h0A64.54,64.54,0,1,0,275.92,28.26ZM262.28,153.48A61.42,61.42,0,1,1,330,99.08,61.47,61.47,0,0,1,262.28,153.48Z" style="fill:#455a64"></path></g><g id="freepik--Egg--inject-10"><path d="M254.25,82.82a1.48,1.48,0,0,1-.26.3c-.73.64-1.86.41-2.77.73a2.74,2.74,0,0,0-1.66,1.93,4,4,0,0,0,.31,2.58c.73,1.6,1.33,3.16-.07,4.69a25.36,25.36,0,0,1-2.12,1.73,5.89,5.89,0,0,0-1.4,1.88c-1.48,3.2,3.12,5.47,2.79,8.67-.26,2.53-2.29,4.43-.15,6.8,1.12,1.23,3,1.89,3.45,3.5s-.8,3-1.18,4.57a4.41,4.41,0,0,0,3.59,5.27c1.52.17,3.32-.46,4.43.59.88.82.78,2.22,1.24,3.33a3.4,3.4,0,0,0,2.46,2c1.83.34,3.74-.86,5.52-.33,1.31.39,2.17,1.6,3.13,2.59a7.6,7.6,0,0,0,3.73,2.25,4.64,4.64,0,0,0,4.14-1c.54-.5,1-1.18,1.66-1.45a2.84,2.84,0,0,1,2.46.49c1.3.79,2.51,1.66,4,.8,1-.58,1.52-1.34,2.87-1.18,1.67.19,4.09,2.61,5.68,1.18,1.25-1.12.07-3.16.55-4.6a2.92,2.92,0,0,1,1.71-1.87c1.92-.66,4.26,1.2,5.95.07a3.1,3.1,0,0,0,1.13-2.54c0-1-.17-1.93-.1-2.89a2.81,2.81,0,0,1,1.38-2.39c.81-.37,1.76-.13,2.62-.31a3.31,3.31,0,0,0,2.34-2.34,5.8,5.8,0,0,0-.16-3.42,12.34,12.34,0,0,1-1.05-3.71c0-1.85,1.11-2.57,2.45-3.44a6,6,0,0,0,2.49-3.59c.41-2-1.13-3.15-1.61-4.93-.55-2,1.33-3.9,1.74-6,.46-2.32-1.08-4.69-3.14-5.84-1.16-.65-2.46-1-3.63-1.62a4.45,4.45,0,0,1-2.52-2.9c-.24-1.33.44-2.84-.25-4-1.18-2-4.77-.71-6.21-2.51a6.13,6.13,0,0,1-.81-2,6.78,6.78,0,0,0-6.56-4.5,24.62,24.62,0,0,0-4,.81,5.48,5.48,0,0,1-3.95-.37c-1.17-.7-1.8-2-2.87-2.9a5,5,0,0,0-4.94-.59,6.24,6.24,0,0,0-2.66,2.19c-.58.81-.81,1.7-1.79,2.14a4.44,4.44,0,0,1-3.22-.32c-1.87-.68-4.4-1-5.47.64-.47.75-.51,1.75-1.13,2.38-1.68,1.71-3.78-.13-5.73-.12a3.71,3.71,0,0,0-2.88,1.27c-1,1.27-.74,3.13-.09,4.62a10.28,10.28,0,0,1,.76,2A2.26,2.26,0,0,1,254.25,82.82Z" style="fill:#00EEFF"></path><path d="M254.25,82.82a1.48,1.48,0,0,1-.26.3c-.73.64-1.86.41-2.77.73a2.74,2.74,0,0,0-1.66,1.93,4,4,0,0,0,.31,2.58c.73,1.6,1.33,3.16-.07,4.69a25.36,25.36,0,0,1-2.12,1.73,5.89,5.89,0,0,0-1.4,1.88c-1.48,3.2,3.12,5.47,2.79,8.67-.26,2.53-2.29,4.43-.15,6.8,1.12,1.23,3,1.89,3.45,3.5s-.8,3-1.18,4.57a4.41,4.41,0,0,0,3.59,5.27c1.52.17,3.32-.46,4.43.59.88.82.78,2.22,1.24,3.33a3.4,3.4,0,0,0,2.46,2c1.83.34,3.74-.86,5.52-.33,1.31.39,2.17,1.6,3.13,2.59a7.6,7.6,0,0,0,3.73,2.25,4.64,4.64,0,0,0,4.14-1c.54-.5,1-1.18,1.66-1.45a2.84,2.84,0,0,1,2.46.49c1.3.79,2.51,1.66,4,.8,1-.58,1.52-1.34,2.87-1.18,1.67.19,4.09,2.61,5.68,1.18,1.25-1.12.07-3.16.55-4.6a2.92,2.92,0,0,1,1.71-1.87c1.92-.66,4.26,1.2,5.95.07a3.1,3.1,0,0,0,1.13-2.54c0-1-.17-1.93-.1-2.89a2.81,2.81,0,0,1,1.38-2.39c.81-.37,1.76-.13,2.62-.31a3.31,3.31,0,0,0,2.34-2.34,5.8,5.8,0,0,0-.16-3.42,12.34,12.34,0,0,1-1.05-3.71c0-1.85,1.11-2.57,2.45-3.44a6,6,0,0,0,2.49-3.59c.41-2-1.13-3.15-1.61-4.93-.55-2,1.33-3.9,1.74-6,.46-2.32-1.08-4.69-3.14-5.84-1.16-.65-2.46-1-3.63-1.62a4.45,4.45,0,0,1-2.52-2.9c-.24-1.33.44-2.84-.25-4-1.18-2-4.77-.71-6.21-2.51a6.13,6.13,0,0,1-.81-2,6.78,6.78,0,0,0-6.56-4.5,24.62,24.62,0,0,0-4,.81,5.48,5.48,0,0,1-3.95-.37c-1.17-.7-1.8-2-2.87-2.9a5,5,0,0,0-4.94-.59,6.24,6.24,0,0,0-2.66,2.19c-.58.81-.81,1.7-1.79,2.14a4.44,4.44,0,0,1-3.22-.32c-1.87-.68-4.4-1-5.47.64-.47.75-.51,1.75-1.13,2.38-1.68,1.71-3.78-.13-5.73-.12a3.71,3.71,0,0,0-2.88,1.27c-1,1.27-.74,3.13-.09,4.62a10.28,10.28,0,0,1,.76,2A2.26,2.26,0,0,1,254.25,82.82Z" style="fill:#fff;opacity:0.8"></path><path d="M306.4,113A28.27,28.27,0,1,1,292,75.67,28.27,28.27,0,0,1,306.4,113Z" style="fill:#fff"></path><path d="M297,83.64a2.51,2.51,0,0,0-2,1.19,4.88,4.88,0,0,0-.53,4c.62,2.6,4.06,7.19,7.25,5.71A2.64,2.64,0,0,0,303,93.15c1.16-2.6-.85-6-2.62-7.81A4.88,4.88,0,0,0,297,83.64Z" style="fill:#00EEFF"></path><path d="M291,79.42a8.91,8.91,0,0,0-4.42-2.28c-10.11-2.74-19.83,2.26-26.12,10a23.61,23.61,0,0,0-4.1,9,24.76,24.76,0,0,0,3,18.76,23.1,23.1,0,0,0,10.41,9.44,27.46,27.46,0,0,0,19.51,1.12c9.52-3.23,15.32-12.51,16-22.29a5.22,5.22,0,0,0-.72-3.59c-1.09-1.37-3-1.46-4.55-2-5.31-1.85-9.5-7.63-8.56-13.36a8.26,8.26,0,0,0,.25-3.34A3.54,3.54,0,0,0,291,79.42Z" style="fill:#00EEFF"></path><path d="M291,79.42a8.91,8.91,0,0,0-4.42-2.28c-10.11-2.74-19.83,2.26-26.12,10a23.61,23.61,0,0,0-4.1,9,24.76,24.76,0,0,0,3,18.76,23.1,23.1,0,0,0,10.41,9.44,27.46,27.46,0,0,0,19.51,1.12c9.52-3.23,15.32-12.51,16-22.29a5.22,5.22,0,0,0-.72-3.59c-1.09-1.37-3-1.46-4.55-2-5.31-1.85-9.5-7.63-8.56-13.36a8.26,8.26,0,0,0,.25-3.34A3.54,3.54,0,0,0,291,79.42Z" style="fill:#fff;opacity:0.6000000000000001"></path><path d="M274,108.55a7.18,7.18,0,0,0-2.24,5.09c.3,4.46,6.69,7.57,10.4,5.35a6.53,6.53,0,0,0-2-11.92A6.25,6.25,0,0,0,274,108.55Z" style="fill:#00EEFF;opacity:0.6000000000000001"></path><path d="M279.9,111.71a1.66,1.66,0,0,0,.88,2.24,1.44,1.44,0,0,0,2.19-1.08c.16-1.38-1.31-3.1-2.61-1.89A1.81,1.81,0,0,0,279.9,111.71Z" style="fill:#00EEFF"></path><g style="opacity:0.30000000000000004"><path d="M289.26,81.56a.77.77,0,0,1-1.4-.62.77.77,0,0,1,1-.39A.77.77,0,0,1,289.26,81.56Z" style="fill:#00EEFF"></path><path d="M282.78,79.52a.77.77,0,0,1-1,.39.75.75,0,0,1-.39-1,.76.76,0,0,1,1-.39A.77.77,0,0,1,282.78,79.52Z" style="fill:#00EEFF"></path><path d="M275.21,80.36a.77.77,0,1,1-.39-1A.76.76,0,0,1,275.21,80.36Z" style="fill:#00EEFF"></path><path d="M268.93,83.51a.75.75,0,0,1-1,.39.77.77,0,0,1-.39-1,.79.79,0,0,1,1-.39A.76.76,0,0,1,268.93,83.51Z" style="fill:#00EEFF"></path><path d="M264.13,88.16a.77.77,0,0,1-1,.39.75.75,0,0,1-.39-1,.76.76,0,0,1,1-.39A.77.77,0,0,1,264.13,88.16Z" style="fill:#00EEFF"></path><path d="M260.63,94.15a.77.77,0,1,1-.39-1A.77.77,0,0,1,260.63,94.15Z" style="fill:#00EEFF"></path><path d="M259.07,100.07a.78.78,0,0,1-1,.39.77.77,0,0,1,.62-1.4A.77.77,0,0,1,259.07,100.07Z" style="fill:#00EEFF"></path><path d="M259.71,106.16a.75.75,0,0,1-1,.39.76.76,0,0,1-.39-1,.77.77,0,0,1,1.4.62Z" style="fill:#00EEFF"></path><path d="M262,112.76a.77.77,0,1,1-.39-1A.77.77,0,0,1,262,112.76Z" style="fill:#00EEFF"></path><path d="M266.28,117.62a.77.77,0,1,1-.39-1A.77.77,0,0,1,266.28,117.62Z" style="fill:#00EEFF"></path><path d="M272.44,122.39a.78.78,0,0,1-1,.39.77.77,0,0,1,.62-1.4A.77.77,0,0,1,272.44,122.39Z" style="fill:#00EEFF"></path><path d="M280.15,124.62a.77.77,0,0,1-1,.39.77.77,0,1,1,1-.39Z" style="fill:#00EEFF"></path><path d="M287,123.86a.77.77,0,1,1-.39-1A.76.76,0,0,1,287,123.86Z" style="fill:#00EEFF"></path><path d="M293.62,121a.76.76,0,0,1-1,.38.75.75,0,0,1-.39-1,.77.77,0,0,1,1-.39A.79.79,0,0,1,293.62,121Z" style="fill:#00EEFF"></path><path d="M298.84,115.88a.77.77,0,0,1-1.4-.63.77.77,0,1,1,1.4.63Z" style="fill:#00EEFF"></path><path d="M301.83,109.14a.77.77,0,1,1-.39-1A.77.77,0,0,1,301.83,109.14Z" style="fill:#00EEFF"></path><path d="M288.09,88a.77.77,0,0,1-1,.39.75.75,0,0,1-.39-1,.76.76,0,0,1,1-.39A.77.77,0,0,1,288.09,88Z" style="fill:#00EEFF"></path><path d="M290.51,94.4a.77.77,0,0,1-1,.39.79.79,0,0,1-.39-1,.77.77,0,0,1,1-.38A.76.76,0,0,1,290.51,94.4Z" style="fill:#00EEFF"></path><path d="M296.15,99.42a.77.77,0,0,1-1.4-.63.77.77,0,1,1,1.4.63Z" style="fill:#00EEFF"></path><path d="M302.81,102.22a.77.77,0,1,1-.39-1A.76.76,0,0,1,302.81,102.22Z" style="fill:#00EEFF"></path></g><path d="M277.94,67.84a1.63,1.63,0,0,0-.41.75,2.91,2.91,0,0,0,.18,2.45,1,1,0,0,0,1.71-.21,2.88,2.88,0,0,0,.37-1.48,2.64,2.64,0,0,0-.14-1.12A1.06,1.06,0,0,0,277.94,67.84Z" style="fill:#00EEFF;opacity:0.30000000000000004"></path><path d="M278.81,69.34c.49,0,.5-.94,0-1S278.29,69.35,278.81,69.34Z" style="fill:#00EEFF"></path><path d="M265.11,71.86a1.54,1.54,0,0,0-.06.85,2.94,2.94,0,0,0,1.19,2.15,1,1,0,0,0,1.47-.91,2.92,2.92,0,0,0-.29-1.5,2.57,2.57,0,0,0-.59-1A1.06,1.06,0,0,0,265.11,71.86Z" style="fill:#00EEFF;opacity:0.30000000000000004"></path><path d="M266.53,72.85c.43-.22.06-1.06-.4-.87S266.06,73.08,266.53,72.85Z" style="fill:#00EEFF"></path><path d="M250.8,87a1.55,1.55,0,0,0,.59.6,2.94,2.94,0,0,0,2.4.54,1,1,0,0,0,.29-1.7,2.82,2.82,0,0,0-1.31-.78,2.48,2.48,0,0,0-1.11-.19A1.06,1.06,0,0,0,250.8,87Z" style="fill:#00EEFF;opacity:0.30000000000000004"></path><path d="M252.48,86.59c.12-.47-.75-.75-.92-.28S252.34,87.09,252.48,86.59Z" style="fill:#00EEFF"></path><path d="M251.08,97.56a1.77,1.77,0,0,0-.79-.32,3,3,0,0,0-2.41.48,1,1,0,0,0,.41,1.68,3,3,0,0,0,1.52.18,2.58,2.58,0,0,0,1.09-.27A1.06,1.06,0,0,0,251.08,97.56Z" style="fill:#00EEFF;opacity:0.30000000000000004"></path><path d="M249.7,98.61c.08.48,1,.38,1-.12S249.62,98.09,249.7,98.61Z" style="fill:#00EEFF"></path><path d="M249.5,111.14a1.72,1.72,0,0,0,.79.32,2.93,2.93,0,0,0,2.41-.49,1,1,0,0,0-.42-1.67,2.77,2.77,0,0,0-1.51-.18,2.59,2.59,0,0,0-1.1.27A1.07,1.07,0,0,0,249.5,111.14Z" style="fill:#00EEFF;opacity:0.30000000000000004"></path><path d="M250.87,110.09c-.07-.48-1-.39-1,.12S251,110.6,250.87,110.09Z" style="fill:#00EEFF"></path><path d="M255.78,76.72a2.22,2.22,0,0,0,.25,1.15,4.05,4.05,0,0,0,2.42,2.42c1.06.23,1.75-.79,1.62-1.78a4.11,4.11,0,0,0-1-1.89,3.7,3.7,0,0,0-1.17-1.06A1.48,1.48,0,0,0,255.78,76.72Z" style="fill:#00EEFF;opacity:0.30000000000000004"></path><path d="M258.06,77.49c.5-.46-.32-1.44-.87-1S257.53,78,258.06,77.49Z" style="fill:#00EEFF"></path><path d="M256.61,119.16a2.24,2.24,0,0,0-1.15.27,4.1,4.1,0,0,0-2.37,2.47,1.45,1.45,0,0,0,1.82,1.58,4,4,0,0,0,1.87-1,3.55,3.55,0,0,0,1-1.19A1.48,1.48,0,0,0,256.61,119.16Z" style="fill:#00EEFF;opacity:0.30000000000000004"></path><path d="M255.88,121.45c.48.5,1.44-.34,1-.88S255.38,120.93,255.88,121.45Z" style="fill:#00EEFF"></path><path d="M291.43,129.77a1.87,1.87,0,0,0,.07,1,3.53,3.53,0,0,0,1.78,2.36,1.26,1.26,0,0,0,1.6-1.33,3.5,3.5,0,0,0-.6-1.74,3.13,3.13,0,0,0-.87-1A1.27,1.27,0,0,0,291.43,129.77Z" style="fill:#00EEFF;opacity:0.30000000000000004"></path><path d="M293.28,130.71c.49-.34-.1-1.27-.62-1S292.77,131.06,293.28,130.71Z" style="fill:#00EEFF"></path><path d="M304.08,126a2,2,0,0,0-.37-.95,3.51,3.51,0,0,0-2.39-1.73,1.25,1.25,0,0,0-1.14,1.74,3.49,3.49,0,0,0,1.08,1.48,3,3,0,0,0,1.14.74A1.27,1.27,0,0,0,304.08,126Z" style="fill:#00EEFF;opacity:0.30000000000000004"></path><path d="M302,125.64c-.37.46.47,1.19.88.74S302.42,125.15,302,125.64Z" style="fill:#00EEFF"></path><path d="M313.87,102.67a1.68,1.68,0,0,0-.71-.49,3,3,0,0,0-2.51-.07,1.07,1.07,0,0,0,0,1.77,2.93,2.93,0,0,0,1.47.52,2.62,2.62,0,0,0,1.15,0A1.09,1.09,0,0,0,313.87,102.67Z" style="fill:#00EEFF;opacity:0.30000000000000004"></path><path d="M312.26,103.41c0,.5.9.61,1,.1S312.3,102.88,312.26,103.41Z" style="fill:#00EEFF"></path><path d="M303.8,78.51a1.72,1.72,0,0,0-.86.17,3,3,0,0,0-1.8,1.75c-.18.78.56,1.29,1.29,1.21a3,3,0,0,0,1.4-.69,2.64,2.64,0,0,0,.79-.84A1.08,1.08,0,0,0,303.8,78.51Z" style="fill:#00EEFF;opacity:0.30000000000000004"></path><path d="M303.2,80.18c.33.37,1.06-.22.75-.63S302.85,79.78,303.2,80.18Z" style="fill:#00EEFF"></path><path d="M310.57,117a1.87,1.87,0,0,0-.59-.83,3.53,3.53,0,0,0-2.76-1.07,1.24,1.24,0,0,0-.66,2A3.47,3.47,0,0,0,308,118.2a3.13,3.13,0,0,0,1.29.43A1.27,1.27,0,0,0,310.57,117Z" style="fill:#00EEFF;opacity:0.30000000000000004"></path><path d="M308.5,117.14c-.23.54.76,1,1,.5S308.75,116.57,308.5,117.14Z" style="fill:#00EEFF"></path><path d="M309,93.13a2.65,2.65,0,0,0,1.36.28c1.29,0,3-.39,3.75-1.5a1.71,1.71,0,0,0-1.17-2.58,4.75,4.75,0,0,0-2.5.16,4.2,4.2,0,0,0-1.69.77A1.73,1.73,0,0,0,309,93.13Z" style="fill:#00EEFF;opacity:0.30000000000000004"></path><path d="M310.89,91c-.27-.76-1.71-.33-1.5.47S311.17,91.83,310.89,91Z" style="fill:#00EEFF"></path><path d="M293.72,74.82a1.64,1.64,0,0,0,.71-.51,3,3,0,0,0,.93-2.35,1.07,1.07,0,0,0-1.68-.58,2.92,2.92,0,0,0-1,1.21,2.71,2.71,0,0,0-.37,1.1A1.09,1.09,0,0,0,293.72,74.82Z" style="fill:#00EEFF;opacity:0.30000000000000004"></path><path d="M293.58,73c-.47-.2-.89.64-.43.89S294.07,73.26,293.58,73Z" style="fill:#00EEFF"></path><path d="M263.85,126.53a1.69,1.69,0,0,0-.75.49,3.12,3.12,0,0,0-1.05,2.39,1.11,1.11,0,0,0,1.71.65,3.06,3.06,0,0,0,1.08-1.2,2.73,2.73,0,0,0,.42-1.12A1.12,1.12,0,0,0,263.85,126.53Z" style="fill:#00EEFF;opacity:0.30000000000000004"></path><path d="M263.93,128.36c.47.23.93-.63.47-.9S263.44,128.12,263.93,128.36Z" style="fill:#00EEFF"></path><path d="M276.8,134.57a1.64,1.64,0,0,0,.4-.8,3.1,3.1,0,0,0-.28-2.58,1.1,1.1,0,0,0-1.81.28,3,3,0,0,0-.33,1.58,2.79,2.79,0,0,0,.19,1.18A1.12,1.12,0,0,0,276.8,134.57Z" style="fill:#00EEFF;opacity:0.30000000000000004"></path><path d="M275.81,133c-.51,0-.49,1,0,1S276.36,133,275.81,133Z" style="fill:#00EEFF"></path><path d="M286.94,133.37a1.47,1.47,0,0,0,.23-.75,2.73,2.73,0,0,0-.64-2.19A1,1,0,0,0,285,131a2.6,2.6,0,0,0,0,1.41,2.48,2.48,0,0,0,.34,1A1,1,0,0,0,286.94,133.37Z" style="fill:#00EEFF;opacity:0.30000000000000004"></path><path d="M285.86,132.19c-.44.11-.28.94.18.87S286.33,132.07,285.86,132.19Z" style="fill:#00EEFF"></path></g><g id="freepik--Sperms--inject-10"><path d="M243,71a3,3,0,0,1-1-.6,3.94,3.94,0,0,1-.69-.89c-.41-.69-.71-1.42-1.15-2.09a4.63,4.63,0,0,0-1.65-1.58,4.81,4.81,0,0,0-1.9-.48,10.75,10.75,0,0,1-2-.26A2.84,2.84,0,0,1,233,63.89c-.41-.59-.69-1.26-1.05-1.88a5.14,5.14,0,0,0-1.59-1.69,6.45,6.45,0,0,0-2.55-.94,8.76,8.76,0,0,1-1.35-.29,2.18,2.18,0,0,1-1.23-.86s0,0,0,0a2.06,2.06,0,0,0,.8.88,3.86,3.86,0,0,0,1.13.42c.41.1.83.16,1.24.27a4.93,4.93,0,0,1,1.1.43,4.68,4.68,0,0,1,1.79,1.63c.4.62.7,1.3,1.08,1.94a3.78,3.78,0,0,0,1.45,1.49,4.78,4.78,0,0,0,1.86.44,10.1,10.1,0,0,1,2.05.27,3.73,3.73,0,0,1,1.83,1.4c.55.74.86,1.61,1.34,2.39a3,3,0,0,0,2,1.59A.23.23,0,0,0,243,71Z" style="fill:#00EEFF"></path><path d="M245.52,74.15l-3.18-2.49c-.48-.38.42-1.53.9-1.15L246.43,73Z" style="fill:#00EEFF"></path><path d="M245.52,74.15l-3.18-2.49c-.48-.38.42-1.53.9-1.15L246.43,73Z" style="fill:#fff;opacity:0.6000000000000001"></path><path d="M247.36,71.54a5,5,0,0,1,1.75,3.2,1.48,1.48,0,0,1-.3,1.06,1.45,1.45,0,0,1-1,.54,4.86,4.86,0,0,1-3.53-.94l-.1-.07-.09-.08a2.46,2.46,0,0,1,3-3.87l.1.08Z" style="fill:#00EEFF"></path><path d="M247.36,71.54a5,5,0,0,1,1.75,3.2,1.48,1.48,0,0,1-.3,1.06,1.45,1.45,0,0,1-1,.54,4.86,4.86,0,0,1-3.53-.94l-.1-.07-.09-.08a2.46,2.46,0,0,1,3-3.87l.1.08Z" style="fill:#fff;opacity:0.6000000000000001"></path><path d="M257.42,61c-.21-1-1-1.51-1.55-2.31-.93-1.35.76-1.87,1.16-3a2.09,2.09,0,0,0-.6-2.17c-.9-.89-2.23-.91-3.24-1.59a1.67,1.67,0,0,1-.69-2.16,3.31,3.31,0,0,1,2.28-1.58c.83-.23,1.78-.28,2.31-1.06,1.12-1.63-.22-3.73-1.18-5.06,0-.06-.16,0-.13.08a7.1,7.1,0,0,1,1.43,3.1,1.91,1.91,0,0,1-1,2.17,14.55,14.55,0,0,1-1.88.38c-1.58.46-3.19,2.16-2.28,3.89a4.41,4.41,0,0,0,2.58,1.71,3,3,0,0,1,1.75,1.23c.41.79-.16,1.27-.66,1.79a2,2,0,0,0-.67,2.13c.36,1,1.58,1.58,1.82,2.67C257,61.67,257.5,61.34,257.42,61Z" style="fill:#00EEFF"></path><path d="M258.29,65.34l-1.59-3.59c-.24-.55,1.06-1.12,1.3-.58l1.59,3.6Z" style="fill:#00EEFF"></path><path d="M258.29,65.34l-1.59-3.59c-.24-.55,1.06-1.12,1.3-.58l1.59,3.6Z" style="fill:#fff;opacity:0.6000000000000001"></path><path d="M261.06,63.94a4.76,4.76,0,0,1,0,3.54,1.4,1.4,0,0,1-1.81.81,4.76,4.76,0,0,1-2.6-2.42.54.54,0,0,1-.05-.11.61.61,0,0,1-.05-.12A2.39,2.39,0,0,1,261,63.71l.05.11Z" style="fill:#00EEFF"></path><path d="M261.06,63.94a4.76,4.76,0,0,1,0,3.54,1.4,1.4,0,0,1-1.81.81,4.76,4.76,0,0,1-2.6-2.42.54.54,0,0,1-.05-.11.61.61,0,0,1-.05-.12A2.39,2.39,0,0,1,261,63.71l.05.11Z" style="fill:#fff;opacity:0.6000000000000001"></path><path d="M239.08,90.8c-.91-.13-1.53.57-2.25,1-1,.59-2.07,0-3.13-.2-2.22-.32-3.63,1.66-5.2,2.83a4,4,0,0,1-3.12.84A3.45,3.45,0,0,1,223,93.35c-.89-1.87.16-4.41-1.54-6s-4.38-.18-6,.8c-.06,0,0,.2,0,.16,1.63-.92,5.09-2.44,6.16,0a10.68,10.68,0,0,1,.39,3.39,4.57,4.57,0,0,0,1,2.55,4.18,4.18,0,0,0,4.9,1.14c1.89-.86,3.09-3.25,5.31-3.38,1.12-.07,2.15.68,3.28.45,1-.2,1.68-1.35,2.7-1.19C239.58,91.39,239.37,90.85,239.08,90.8Z" style="fill:#00EEFF"></path><path d="M242,91.08l-3.85.83c-.57.13-.88-1.26-.3-1.38l3.84-.84Z" style="fill:#00EEFF"></path><path d="M242,91.08l-3.85.83c-.57.13-.88-1.26-.3-1.38l3.84-.84Z" style="fill:#fff;opacity:0.6000000000000001"></path><path d="M241.17,88.08a4.84,4.84,0,0,1,3.49.68,1.38,1.38,0,0,1,.61.88,1.41,1.41,0,0,1-.19,1,4.74,4.74,0,0,1-2.89,2.06l-.12,0-.12,0a2.39,2.39,0,0,1-1-4.67l.12,0Z" style="fill:#00EEFF"></path><path d="M241.17,88.08a4.84,4.84,0,0,1,3.49.68,1.38,1.38,0,0,1,.61.88,1.41,1.41,0,0,1-.19,1,4.74,4.74,0,0,1-2.89,2.06l-.12,0-.12,0a2.39,2.39,0,0,1-1-4.67l.12,0Z" style="fill:#fff;opacity:0.6000000000000001"></path></g></g></g><g id="freepik--pregnancy-test--inject-10"><g id="freepik--pregnancy-test--inject-10"><path d="M310.61,335.6c-6.13-3.54-17.73-2.59-25.9,2.14a18.55,18.55,0,0,0-5.52,4.6c-1.53,2-3.59,5.13-5.77,6.39L214.6,380.87l-8.29,3.75v8.55l17.36,10,5.74-5.24,59.22-36a32.63,32.63,0,0,1,8.46-2.87,32.51,32.51,0,0,0,9.83-3.62c4.84-2.79,7.39-6.28,7.39-9.4,0-1.45,0-3.46,0-4.95C314.3,339,313.09,337,310.61,335.6Z" style="fill:#e6e6e6"></path><path d="M284.71,337.74a18.55,18.55,0,0,0-5.52,4.6c-1.53,2-3.59,5.13-5.77,6.39L214.6,380.87l-8.29,3.75,17.36,10,5.74-5.24L288.63,357a32.63,32.63,0,0,1,8.46-2.87,32.49,32.49,0,0,0,9.83-3.61c8.17-4.72,9.82-11.42,3.69-15S292.88,333,284.71,337.74Z" style="fill:#f5f5f5"></path><path d="M301,334.47a18.38,18.38,0,0,1,9.09,2c2.09,1.2,3.2,2.82,3.2,4.67,0,2.85-2.58,6-6.89,8.53a31.62,31.62,0,0,1-9.51,3.5,33.09,33.09,0,0,0-8.75,3l-59.23,32.37-.11.06-.09.08-5.18,4.74-15-8.67,6.49-2.94,0,0h0l58.84-32.15c2-1.15,3.79-3.59,5.24-5.55L280,343a17.67,17.67,0,0,1,5.22-4.33A32.84,32.84,0,0,1,301,334.47m0-1a33.77,33.77,0,0,0-16.3,4.28,18.55,18.55,0,0,0-5.52,4.6c-1.53,2-3.59,5.13-5.77,6.39L214.6,380.87l-8.29,3.75,17.36,10,5.74-5.24L288.63,357a32.63,32.63,0,0,1,8.46-2.87,32.49,32.49,0,0,0,9.83-3.61c8.17-4.72,9.82-11.42,3.69-15a19.55,19.55,0,0,0-9.6-2.14Z" style="fill:#e0e0e0"></path><path d="M287.88,348.74c-3.29-1.9-2.4-5.5,2-8s10.6-3,13.89-1.15,2.4,5.49-2,8S291.17,350.63,287.88,348.74Z" style="fill:#ebebeb"></path><polygon points="229.41 389.41 229.41 397.96 223.67 403.2 223.67 394.65 229.41 389.41" style="opacity:0.1"></polygon><path d="M244.22,372.32a8.47,8.47,0,0,0,7.64-.14l3.21-1.86c2.18-1.26,2.29-3.23.25-4.41a8.46,8.46,0,0,0-7.65.14l-3.21,1.85C242.28,369.16,242.17,371.14,244.22,372.32Z" style="fill:#e0e0e0"></path><path d="M255.32,367.31a8.46,8.46,0,0,0-7.65.14l-3.21,1.85a3.55,3.55,0,0,0-1.56,1.61,3,3,0,0,0,1.31,1.41,8.49,8.49,0,0,0,7.65-.14l3.21-1.86a3.41,3.41,0,0,0,1.56-1.61A2.89,2.89,0,0,0,255.32,367.31Z" style="fill:#fafafa"></path><path d="M248.61,367.08a6.57,6.57,0,0,0-.94.37l0,0,6.19,3.57.84-.48Z" style="fill:#00EEFF"></path><path d="M223.67,394.65l-17.36-10-31.45,19.06a3.38,3.38,0,0,0-1.92,2.83c0,1,0,7.53,0,8.55a3.43,3.43,0,0,0,2,2.73l5.34,3.08a11,11,0,0,0,9.57.19l33.84-17.86Z" style="fill:#00EEFF"></path><path d="M223.67,394.65l-17.36-10-31.45,19.06a3.38,3.38,0,0,0-1.92,2.83c0,1,0,7.53,0,8.55a3.43,3.43,0,0,0,2,2.73l5.34,3.08a11,11,0,0,0,9.57.19l33.84-17.86Z" style="opacity:0.1"></path><path d="M185,397.54v24.52a10.39,10.39,0,0,0,4.84-1l33.84-17.86v-8.55l-17.36-10Z" style="opacity:0.1"></path><path d="M189.83,412.51a11,11,0,0,1-9.57-.19l-5.34-3.08a3,3,0,0,1-.06-5.56l31.45-19.06,17.36,10Z" style="fill:#00EEFF"></path></g></g><g id="freepik--character-3--inject-10"><g id="freepik--Character--inject-10"><g id="freepik--Bottom--inject-10"><path d="M444.08,390.25c-1-12.92,0-18.35-1.2-38.53h0c-.13-5.17-.35-10.72-.74-15.64-1.31-16.57-4-22.22-4.23-25.42,0,0,.13-19.86-1.21-56.11-.63-17.05-5.75-22.2-9.87-31.23l-51.24.22C372.75,246.09,372.66,288,373,311c.15,11.73,4.93,68.75,5,70.19.38,5.12-.07,7.15-2.12,9.31-4.3,4.53-10.54,8.86-15.94,12.82.8,2,7.71,3.22,10.93,1.67a82.23,82.23,0,0,0,12-7.51c4.44-3.22,10.11-5.82,10.15-10.7a4.29,4.29,0,0,1,.15-.87c.06-2.85,6.73-40.44,7.23-50.19.44-8.38-.7-22.6-.7-22.6l4.75-28.87s2.81,15.06,6.37,29.37c2.9,11.65,8,27,11.3,41.37h0c3.15,16.52,7.71,28.27,8.54,36.55.24,2,2.67,21.36,3.64,25.8s10.94,4.51,11.53-3.13C446.22,409.1,444.28,392.69,444.08,390.25Z" style="fill:#ffbda7"></path><path d="M351.15,409.8c-.28,0-.71,2.95.79,4.22,1.72,1.46,6.78,3.87,13.49,3.07s10.34-2.8,13-5,6.46-5.22,9.5-5.85c2.82-.59,5.88-1.81,6.79-2.65s.8-4.61.8-4.61Z" style="fill:#263238"></path><path d="M393.29,384.51s.51,0,.67.89c.21,1,.41,4.06.85,5.76a29.68,29.68,0,0,1,.61,9.15c-.37,1.92-5,3.24-7.91,4.3a37.89,37.89,0,0,0-9.54,5.78,28.1,28.1,0,0,1-14.17,5c-6.67.05-11-1.73-12.3-4.07-1.64-2.89-.73-5.87,7-9.28,1.45-.64,6.56-3.54,8.3-4.6a39.55,39.55,0,0,0,5.24-3.74,31,31,0,0,0,2.35-2.23,10.59,10.59,0,0,0,1.95-2.4c.09-.2.15-.43.23-.63a10.6,10.6,0,0,0,.5-1.75c.13-.61.21-1.52.82-1.88,1.06-.64,2.64.14,3.71.44s2,.64,3,1,1.94.55,2.46,1.37a5.26,5.26,0,0,1,.62,2.7c0,.44,0,.87,0,1.31,0,.18-.08.52.18.44s.55-.72.65-.94c.21-.48.35-1,.58-1.48a8,8,0,0,1,1-1.57,7.69,7.69,0,0,1,1.22-1.2,11.7,11.7,0,0,0,1.32-.82A2.89,2.89,0,0,0,393.29,384.51Z" style="fill:#37474f"></path><path d="M357.22,402.64c9.65.71,13,7.84,13.45,11.43a23.5,23.5,0,0,1-6.87,1.36c-6.67.05-11.25-1.73-12.57-4.07C349.68,408.63,350.36,405.13,357.22,402.64Z" style="fill:#fafafa"></path><path d="M372.08,404.14a.47.47,0,0,0,.3-.1.45.45,0,0,0,.07-.64c-1.34-1.61-5.59-5.07-9.1-4.72a.47.47,0,0,0-.43.5.46.46,0,0,0,.52.41c3.28-.31,7.22,3.11,8.28,4.38A.48.48,0,0,0,372.08,404.14Z" style="fill:#f0f0f0"></path><path d="M376.25,401.81a.47.47,0,0,0,.3-.1.45.45,0,0,0,.07-.64c-1.34-1.61-5.6-5.08-9.1-4.72a.47.47,0,0,0-.43.5.46.46,0,0,0,.52.41c3.28-.32,7.22,3.11,8.28,4.38A.48.48,0,0,0,376.25,401.81Z" style="fill:#f0f0f0"></path><path d="M380.12,399.14a.44.44,0,0,0,.3-.1.45.45,0,0,0,.07-.64c-1.34-1.61-5.61-5.07-9.11-4.72a.46.46,0,1,0,.1.92c3.27-.32,7.21,3.1,8.27,4.37A.46.46,0,0,0,380.12,399.14Z" style="fill:#f0f0f0"></path><path d="M383.91,396.48a.46.46,0,0,0,.29-.1.44.44,0,0,0,.08-.64c-1.84-2.29-6.4-5.12-9.91-4.77a.46.46,0,0,0-.42.5.47.47,0,0,0,.52.41c3.16-.31,7.44,2.4,9.07,4.42A.46.46,0,0,0,383.91,396.48Z" style="fill:#f0f0f0"></path><path d="M431.19,420.79c.29,4.43,1,7.36,2.65,9.95s4.68,3.39,7.77,2.62,7-2.82,7.88-6.65,1.36-6.44.64-10.54Z" style="fill:#263238"></path><path d="M444,388.67c1.27.09,1.68,6,2.45,12,.83,6.37,2.8,9,3.54,14.23.84,6-.16,8.65-2.29,12.27s-9.74,7.21-13.53,2c-3.09-4.21-3.24-8.89-3-14.86a128.75,128.75,0,0,0-.51-15.12c-.27-4.47-1.32-9-.22-9.49.09.66.18,1.5.27,2.14a10.62,10.62,0,0,0,.43,2.38c.13.34.42.68.53.14a3.76,3.76,0,0,0,0-1.11c-.2-1.65.66-1.79,1.12-1.92a56,56,0,0,1,5.89-.83c1-.07,4.33-.23,4.77.31a3.6,3.6,0,0,1,.44,1.72c.11.9.33,1.56.35,1.28.06-.65-.08-2.32-.1-2.72s-.08-.92-.09-1.31S444,389.05,444,388.67Z" style="fill:#37474f"></path><path d="M450.33,418.35a14.53,14.53,0,0,1-2.32,9.1c-2.13,3.62-10.35,7.21-14.14,2.05-1.88-2.56-2.4-5.61-2.68-8.71C433.42,416.79,446.76,415,450.33,418.35Z" style="fill:#fafafa"></path><path d="M433.92,414.28l.16,0c.05,0,5.92-2.42,11.66-1.16a.46.46,0,0,0,.56-.34.45.45,0,0,0-.35-.55,22.71,22.71,0,0,0-12.28,1.22.45.45,0,0,0-.22.61A.47.47,0,0,0,433.92,414.28Z" style="fill:#f0f0f0"></path><path d="M445.43,408.63a.46.46,0,0,0,.1-.89c-5.72-1.85-12,1-12.27,1.11a.45.45,0,0,0-.19.62.47.47,0,0,0,.64.19c.05,0,6.2-2.78,11.52-1.05A.44.44,0,0,0,445.43,408.63Z" style="fill:#f0f0f0"></path><path d="M445.2,404.43a.46.46,0,0,0,.11-.89c-6.29-2.16-12.28.95-12.5,1.08a.45.45,0,0,0-.15.63.47.47,0,0,0,.64.16c.05,0,5.84-3,11.69-1A.5.5,0,0,0,445.2,404.43Z" style="fill:#f0f0f0"></path><path d="M444.86,400.3a.47.47,0,0,0,.39-.3.46.46,0,0,0-.27-.59c-5.9-2.11-12.34,1.07-12.58,1.21a.44.44,0,0,0-.17.63.47.47,0,0,0,.64.16c.06,0,6.31-3.1,11.78-1.14A.51.51,0,0,0,444.86,400.3Z" style="fill:#ebebeb"></path><path d="M430.42,223.45c5.78,10.12,7.79,18.4,8.56,48.55s0,32.68.12,36.32,2.36,10.12,4.39,28a181.12,181.12,0,0,1,.24,34.76s-1.3,2.89-8.34,3.54c-6.49.59-9.73-1.77-9.73-1.77s-9.48-30.34-12-41.12-9.17-40.3-9.17-40.3L401,313.58s2,9.87.16,25.59a229.92,229.92,0,0,1-4.84,27.13,31.52,31.52,0,0,1-10.5,1.87,20.54,20.54,0,0,1-9.67-2.58s-4.82-41.87-4.94-59.67,1.58-60.65,3.2-82Z" style="fill:#37474f"></path><path d="M437.56,322.24c-.23-1-.46-2-.67-2.95-1.84-8.32-1.14-13.3-1.2-27.09,0-4.17,0-8.48-.11-13.06-.27-18-1.82-38.06-11.25-51l-.74.52c6.33,8.69,9.05,20.74,10.23,33.19-9.28-1.16-11.37-10.06-14.21-22.3-.39-1.68-.79-3.41-1.23-5.19l-.89.21c.43,1.77.83,3.5,1.22,5.17,2.84,12.22,5.09,21.91,15.19,23,.48,5.48.68,11,.76,16.37.07,4.58.09,8.89.11,13.05.06,13.85-.64,18.87,1.23,27.28.2.94.43,1.92.67,3,2.46,10.76,6.51,22.41,4.9,50.57a10.2,10.2,0,0,0,1-.61C444.06,344.52,440,333,437.56,322.24Zm-55.24-68.8c1.33,5.92,8.43,9.18,12.85,10.19l.86,3.82c-.2,3.21-.41,6.57-.63,10.05-1.23,19.15-1.9,32.31-.86,36.77,2.72,11.75,2,19.21.65,32.76-.14,1.38-.28,2.83-.43,4.35-.76,7.87-1.7,11.14-2.25,16.09l.95-.23c.56-5,1.48-8.07,2.22-15.78.14-1.52.29-3,.42-4.35,1.35-13.63,2.09-21.15-.67-33-1-4.33-.28-18.31.89-36.51q.21-3.31.41-6.48l4.07,21.21.21,21.29,3.47-22.13-6-31.45A23.58,23.58,0,0,1,382.32,253.44Z" style="fill:#263238"></path></g><g id="freepik--Top--inject-10"><path d="M341.3,186c-.81-.47-7.83-5.31-11.3-7.25A42.74,42.74,0,0,0,312.83,174L310,173.9c-.46,0-.92-.08-1.37-.11-.71,0-.89,0-1,.37a1.78,1.78,0,0,0,0,1.14c.36,1.23,2.17,2,3.39,2.39s2.65.68,3.89,1c.95.26.06.95-.4,1.22-2.3,1.29-7.49,1.57-10.07,1.5a34.54,34.54,0,0,0-5.08-.21,5.21,5.21,0,0,0-2.88,1.19c-.53.48-.85,1.1-.19,1.7a3.63,3.63,0,0,0,1.52.64,3.83,3.83,0,0,1,2.68,1.66,9.23,9.23,0,0,0,1.17,2c.68.7,1.7.94,2.46,1.56s.93,1.39,1.51,2a7.16,7.16,0,0,0,2.74,1.18,23.52,23.52,0,0,0,6.06,1,25.67,25.67,0,0,0,7-.4c1.69-.28,3.83-1.18,6.21.39a78,78,0,0,1,6.14,4.9C338.73,196.49,341.9,192.37,341.3,186Z" style="fill:#ffbda7"></path><path d="M317.15,182.09a17,17,0,0,0,8.58,3.93,7.08,7.08,0,0,1-4.91,0A6.59,6.59,0,0,1,317.15,182.09Z" style="fill:#f0997a"></path><path d="M382.06,159.85c-4,.91-6.27,1-12.6,10.67-5.24,8-14.72,22.63-14.72,22.63l-15.24-8.62s-.26,9.73-7.69,13.13a170.68,170.68,0,0,0,13.92,12.71c7.4,5.95,10,7.52,13.34,7.19,4.08-.39,23.49-23.8,23.49-23.8Z" style="fill:#37474f"></path><g id="freepik--top--inject-10"><path id="freepik--Chest--inject-10" d="M415.49,157,432,159.87s3.94,10.85,3.68,36.53c0,3.8-1.48,15.85-1.49,23.75,0,4.48,1.54,11.44,2.49,18.58,0,0-10.69,9.29-36.68,8.56-20.41-.58-26.77-9.17-26.77-9.17s.32-28.51.15-43.53c-.23-19.72,4.43-31.1,8.66-34.74L395.3,157Z" style="fill:#455a64"></path><g id="freepik--Head--inject-10"><path d="M423,119.29a7.7,7.7,0,0,0-4.16-3.75h0c-.89-4.39-6.62-9.49-17.42-9.77-8.85-.23-13.69,3.1-16.88,8.18-3.32,5.31-.72,11.86-.72,11.86l26.29-2.44a14.93,14.93,0,0,0-.06,4.38c.48,3.92,5,7.8,5,7.8l-.14,5.47v7.85a5.07,5.07,0,0,0,2.86-2.42,41.13,41.13,0,0,0,4.6-11.4C424.9,124.76,424.07,121.22,423,119.29Z" style="fill:#263238"></path><path d="M422.15,143.11c-4,2.08-5.95-1.08-5.95-1.08l.55,16.21c-7.51,10.66-29.16,7.43-20.83-.62l-.09-3.69a24.16,24.16,0,0,1-3.53-.25c-3.61-.47-6.19-2.78-7.37-6.65-1.74-5.72-1.59-18.22-.83-25.06a7.07,7.07,0,0,1,3.21-5.13c4.26-2.25,8.34.72,14.41,2.9,2.52.9,8.58,1.16,10.15.37-2,2.38-1.82,9.69,1.36,12.58a6.85,6.85,0,0,0,1.6,2c1.35,1.11,2.34-1.88,3.42-3.07a4.54,4.54,0,0,1,7.09,1.43A7.4,7.4,0,0,1,422.15,143.11Z" style="fill:#ffbda7"></path><path d="M399.51,142.38a3.71,3.71,0,0,0-1.1-.28,5.29,5.29,0,0,0-1.05-.06,5.6,5.6,0,0,0-1.09.13c-.31.06-.81.14-1,.43,0,.06,0,.18.06.2a1.43,1.43,0,0,0,.58,0,4.51,4.51,0,0,1,.53-.09,6.46,6.46,0,0,1,1-.07,8.72,8.72,0,0,1,1,.06c.35.05.69.16,1,.21S399.67,142.46,399.51,142.38Z" style="fill:#b16668"></path><path d="M395.83,153.93c4.72-.16,8.89-.86,11.65-2.11s5.12-5.08,5.82-8.84c.09,3-1.09,8.38-5.25,10.71s-9.07,2.58-12.16,2.73Z" style="fill:#f0997a"></path><path d="M402.72,125.46l-4.21-1a2.26,2.26,0,0,0,1.66,2.67A2.12,2.12,0,0,0,402.72,125.46Z" style="fill:#263238"></path><path d="M390,124.14,386,126a2.09,2.09,0,0,0,2.83,1.11A2.29,2.29,0,0,0,390,124.14Z" style="fill:#263238"></path><path d="M403,131a1.77,1.77,0,1,1-1.68-1.85A1.77,1.77,0,0,1,403,131Z" style="fill:#263238"></path><path d="M389.88,131.09a1.77,1.77,0,1,1-1.68-1.84A1.78,1.78,0,0,1,389.88,131.09Z" style="fill:#263238"></path><path d="M395.68,128.72,395.23,140l-6.53-1.88A26.26,26.26,0,0,1,395.68,128.72Z" style="fill:#f0997a"></path></g></g><path d="M406.54,265.25a10.51,10.51,0,0,1,2.16-3.13s-2.05,1.68-2.77.83-.68-1.87.66-3.51a36.08,36.08,0,0,0,4.69-5.92c.6-.9,1.05-1.86,1.58-2.78a20.93,20.93,0,0,0,1.62-3c.07-.2.14-.44,0-.6-.4-.44-2.3,1-2.71,1.15a6.7,6.7,0,0,1-3.24.85,3,3,0,0,1-1.38-.36,2.11,2.11,0,0,1-.88-1.09c-.4-1,1.09-1.76,1.93-2.23,3.33-1.89,5.75-4.45,9.56-5.36,1.21-.29,3.19-.85,3.91-1.87,4.34-6.11,14.4-26.91,16.42-31.93l-6.62-21.18s-2.61-17.88,1-24.64c15.54,1.63,18.24,21.48,24.19,42.85,1.11,4,1.37,8.05-2.28,13.55-6,9.06-12.9,17.7-19.33,26.26a36.56,36.56,0,0,0-4.66,7.72,36.8,36.8,0,0,1-13.26,15.66c-3.24,2.16-3.88.58-3.88.58-1.89,1.64-3.69.7-4.08.07a11.05,11.05,0,0,1-1.28.65C406.77,268.19,406.19,266.73,406.54,265.25Z" style="fill:#ffbda7"></path><path d="M408.81,262a23.78,23.78,0,0,0,7.46-8C413.89,256.86,411.44,259.5,408.81,262Zm.37,5.15c4.51-2.92,8.87-6.64,11.28-11.53C417.47,260.19,413.3,263.71,409.18,267.19Zm13.08-8.57a48.67,48.67,0,0,1-9,8.5A21.88,21.88,0,0,0,422.26,258.62Z" style="fill:#f0997a"></path><path d="M432,159.87c9.63,2.18,13.16,2.22,17.86,16.19,3.91,11.59,8.05,25.62,8.34,28.75.6,6.35,0,6.73-2,10.32-3.3,5.81-17.27,23-17.27,23s-.73-2.68-5.46-5.31-7.92-1.8-7.92-1.8l12.17-24.48s-5.15-14.42-7-20.81C429,177.38,429.12,164.11,432,159.87Z" style="fill:#37474f"></path></g></g></g><g id="freepik--character-2--inject-10"><g id="freepik--character--inject-10"><g id="freepik--bottom--inject-10"><path d="M359.58,353.61a11.76,11.76,0,0,1,6.65,3.76c2.42,3.07,7.79,12.29,8.84,13.31a7.57,7.57,0,0,1-2.39,2.52L369.81,370c-.71-.58-1-1.23-1,.68s.31,3.89.26,6.73c0,2.25.43,6.52-3.43,10.84-3.62,4-7.5,6-10.19,6.36-1.61.22-4.44-.15-4.26-3.36.1-1.7.87-7.28,1.14-10.38S359.58,353.61,359.58,353.61Z" style="fill:#263238"></path><path d="M360.24,354.48c-.54-.68-2.24-3.56-3.06-4.9a186.79,186.79,0,0,1-8.5-19.27c-5.48-14-14.6-24.3-17.43-29.56a111.07,111.07,0,0,1-7.95-17.88L312,290.43,297,290.16c-.16,2.22.75,5.17,2.42,8.62h0l0,.09c.15.31.32.63.48.95,3.33,6.55,9,14.47,15.36,22.47l.15.19.23.28c6.11,7.74,12.83,15.61,18.69,22.42V345c6.3,7.3,11.4,13.22,13.22,16.19,5.31,8.7,4.71,17.21,4.74,21.85,0,2.9,2.28,3.45,5.32.92a15.51,15.51,0,0,0,5.92-12.75C364.24,361.31,363.37,358.45,360.24,354.48Z" style="fill:#ffbda7"></path><path d="M323,290.64l-26-.48a8.71,8.71,0,0,0,0,.89l0,.35c0,.2,0,.4.07.61s.05.31.08.47.07.36.11.55.09.38.14.57.09.34.14.51a.88.88,0,0,0,.05.15c.1.08,6.57,4.5,18.72,6.57,0,0,.38,19.39,3.59,27.21l0,0,0,0c1.2,1.47,2.4,2.92,3.61,4.38C324.07,320.82,323,290.64,323,290.64Z" style="fill:#f0997a"></path><path d="M341.17,374.35a13,13,0,0,1,3.54,7.29c.36,4.2-.14,15.67.19,17.22a7.24,7.24,0,0,1-3.38.87l-.65-4.61c-.28-.95-.18-1.71-1.19,0s-1.85,3.69-3.43,6.23c-1.26,2-3.18,6.15-8.78,7.79-5.23,1.54-9.54,1-12-.21-1.47-.74-3.64-2.73-1.75-5.52,1-1.48,4.68-6.08,6.6-8.72S341.17,374.35,341.17,374.35Z" style="fill:#263238"></path><path d="M327,374.22c.26-11-10.07-61.13-7.28-84.7l29.44-.35a128.71,128.71,0,0,0-3,20.82c-.48,6.4,1.58,21.07-1.42,36.93a218,218,0,0,0-3.33,22.39c0,1.69-.17,5.29-.09,6.23.47,5.41-.36,8.5-6.31,17.09-1.15,1.66-3.91,7-11.9,8.06-3.92.51-5.52-1.31-4-3.95C321.57,392.53,326.7,385.19,327,374.22Z" style="fill:#ffbda7"></path><path d="M346.09,310c-.06,2.49.09,5,.22,7.46s.24,5,.31,7.46a120.53,120.53,0,0,1-.54,15c-.26,2.49-.67,4.95-1.12,7.4l-1.36,7.32q-.66,3.66-1.24,7.34c-.39,2.45-.78,4.9-1,7.38A144.71,144.71,0,0,1,343,354.48c.72-4.93,1.85-9.77,2.29-14.7.3-2.46.45-4.94.57-7.41s.12-5,.14-7.45,0-5-.09-7.46S345.86,312.47,346.09,310Z" style="fill:#f0997a"></path><path d="M319.26,302.64a93.16,93.16,0,0,1,.43-13.12l29.44-.35a95.41,95.41,0,0,0-1.88,9.9h0S335.93,304.78,319.26,302.64Z" style="fill:#f0997a"></path><path d="M297.52,241.61a174.35,174.35,0,0,1,3.19-20.13c1.18-5.09,2.27-9.49,3.05-13.38,8.56,5.7,29.83,6.21,39.63-.2,1.64,2.56,9,8.68,11.36,18.27,2.1,8.38,3.75,12.73,3.59,22.62-.14,9-4.18,35.62-7.86,47-10,5.52-45.58,3.28-55.46-6.6C295,289.17,296.34,251,297.52,241.61Z" style="fill:#455a64"></path></g><g id="freepik--top--inject-10"><path d="M314.49,164.56c-4.65.46-10.57,1.41-14.83,10.07-5.44,11.09-12.79,26.07-13.77,38.94-.51,6.67,10.82-1.68,10.82-1.68l9.73-16Z" style="fill:#ffbda7"></path><path d="M294.29,198.05A32.43,32.43,0,0,0,299,191.8c-2.53-6,1.91-12.63,7.11-17l3.78,7.74-3.42,13.3-9.73,16s-10.38,7.65-10.82,2.44c0-.25,0-.49,0-.76.08-1.14.22-2.28.38-3.41C287.33,204.35,292,200.3,294.29,198.05Z" style="fill:#f0997a"></path><g id="freepik--chest--inject-10"><path d="M303.82,197.33c.18,2.36-.91,12.15-.91,12.15a180.8,180.8,0,0,0-3.72,19.69c10.71,10.46,46.92,9.66,56.21-1-2.33-9.88-3-13.38-3.14-16.19s3-18.61,3-18.61-8.42-12.51-7.51-26.75c0,0-9.44-3.22-18.12-3.22a97.7,97.7,0,0,0-15.11,1.12c-2.36,2.16-5.68,6.28-9.7,12.13C300,183.71,298,190.77,303.82,197.33Z" style="fill:#00EEFF"></path></g><path d="M317.49,174.65a24,24,0,0,1-3.73,2.53,13.37,13.37,0,0,0-3,1.85,16.41,16.41,0,0,0-4.75,6.28c-2.39,5.6-5.64,8.94-8.88,12.16s-8.81,6.55-10.54,12.81c-1.15,4.18-.92,8.59,1.63,10.65,1.06.85,6.64-.59,10.47-4.07,5-4.52,10.52-16.44,12.17-19.28,1.34-2.3,3.78-3.55,5.27-5.68a14.49,14.49,0,0,0,2.57-7.24c.11-1.41,0-2.84.13-4.25a26,26,0,0,0,.44-4.95,2,2,0,0,0-.25-.86.79.79,0,0,0-.77-.37,1.3,1.3,0,0,0-.44.22Z" style="fill:#ffbda7"></path><path d="M307.87,188a18.43,18.43,0,0,1,1.6-5.33c.41-.84,1.11-1,1.73-1.59s.65-1.15,1.1-1.61a4.71,4.71,0,0,1,2-.88,3.64,3.64,0,0,0,1.68-1.23c.43-.47,1-1,1.61-.85a1.24,1.24,0,0,1,.84.88,3.62,3.62,0,0,1,.08,1.27,68.4,68.4,0,0,0-.12,7.3c0,.21,0,.41,0,.62a14.42,14.42,0,0,1-2.32,5.36c-1.48,2.13-3.92,3.38-5.26,5.68-.25.43-.55,1-.9,1.77a38,38,0,0,1-1.59-5.73A17.15,17.15,0,0,1,307.87,188Z" style="fill:#f0997a"></path><path d="M347.72,166.66c5.58,1.6,11.33,5.18,9.72,16.29-1.51,10.45-9.32,36-10.93,39.43-2.57,5.46-6,8.91-9.46,9.71a7.51,7.51,0,0,1-5.91-1.36c-7.25-5-13.9-19.88-16.76-26a48.5,48.5,0,0,1-4-11.46,16.12,16.12,0,0,1-.43-5.4,17.09,17.09,0,0,1,1.52-5.09c.39-.8,1.06-1,1.65-1.52s.62-1.09,1.06-1.54a4.42,4.42,0,0,1,1.87-.84,3.32,3.32,0,0,0,1.59-1.17c.42-.45.95-1,1.55-.81a1.19,1.19,0,0,1,.8.84,3.5,3.5,0,0,1,.07,1.21,64.85,64.85,0,0,0-.11,7,10.23,10.23,0,0,0,.95,4.26,1,1,0,0,0,.57.58.68.68,0,0,0,.56-.14,1.46,1.46,0,0,0,.38-.47c.44-.76.79-1.59,1.2-2.37a5.65,5.65,0,0,1,2.17-2.37,2.19,2.19,0,0,1,1.13-.34,1.1,1.1,0,0,1,1,.59,1.91,1.91,0,0,1-.28,1.52,29.31,29.31,0,0,0-1.88,7c-.25,1.17-1,2.71-1.32,3.85-.41,1.47,1.13,4.17,2,5.57a37.35,37.35,0,0,0,6.8,8.29l5.22-20.27s-1-10.83,2.93-18.79C343.85,167.54,347.72,166.66,347.72,166.66Z" style="fill:#ffbda7"></path><path d="M333.14,211.84c3.46,1.57,6.42,4.78,7,6.62,0,0,.39-5.8-6.41-8.9Z" style="fill:#f0997a"></path><path d="M310.75,157.65a3.67,3.67,0,0,0-.5,2.5,9.07,9.07,0,0,1-6.71-8.93c.14-3.2,2-6.06,2.77-9.16a11.09,11.09,0,0,0-.8-8.11c-1.21-2.73-3.38-5.54-2.38-8.69,1.7-5.35,7.17-9,12.16-10.9a27.5,27.5,0,0,1,10-1.63c6.21.14,14.62,2.73,16.75,9.09a8.36,8.36,0,0,1,4.36,2.53c3.06,3,3,7,3.2,9.43.22,3.18.11,4.56.43,7.72a26.39,26.39,0,0,0,1.24,4.82c.48,1.88,1.53,3.59,1.9,5.5,1,5.38-3.54,9.31-8.59,9.67a7,7,0,0,0,1.49-3.31,6.49,6.49,0,0,1-2.15,2.57,11.41,11.41,0,0,1-3,1.61,29.16,29.16,0,0,1-11.83,2.3c-5.35.08-7.82-.23-11.49-1.29a16.1,16.1,0,0,1-4.55-2.1A5.6,5.6,0,0,1,310.75,157.65Z" style="fill:#263238"></path><g id="freepik--head--inject-10"><path d="M337.5,160.11c0-5.7.15-8.38.15-8.38.6,1,4.21,2.72,7.58-.36a7.21,7.21,0,0,0,.86-9.52c-2.15-2.6-5.56-2.37-7.72,1.13-.13.2-1.1,0-1.28-.12a1.73,1.73,0,0,1-.86-.74,3,3,0,0,1-.37-1.38,7.07,7.07,0,0,1,.15-1.6A36.5,36.5,0,0,1,324.87,133c-4.31-3.75-6.82-9.58-6.65-10.31a18,18,0,0,0-4.49,2.31,12.58,12.58,0,0,0-3.56,4.81c-.76,2.07-.28,3.86-.41,5.92-.08,1.25-.7,3.73-.75,5-.35,9.25.62,13.63,3.88,16.32a12.64,12.64,0,0,0,7.31,2.48s0,.79,0,2.74c0,1.53-.63,1.49-2.29,1.84-1.8,2-4.63,9,4.21,10.56,9.19,1.59,17.67-5.29,19.06-9.79C339,164.42,337.47,163.92,337.5,160.11Z" style="fill:#ffbda7"></path><path d="M324.51,149.3a2,2,0,0,0-1-.39,8,8,0,0,0-1.19-.12,10.14,10.14,0,0,0-1.23.07,3.2,3.2,0,0,0-1.22.32c-.18.11,0,.44.16.44.41,0,.81-.1,1.22-.14a8.16,8.16,0,0,1,1.21,0,8.93,8.93,0,0,1,1.16.1,1.79,1.79,0,0,0,.89,0C324.62,149.51,324.56,149.34,324.51,149.3Z" style="fill:#b16668"></path><path d="M320.2,159.53c6.5.12,11.72-1.8,14.8-6.11,0,0-.57,3.44-3.11,5.12a20.9,20.9,0,0,1-11.68,3.2Z" style="fill:#f0997a"></path><polygon points="321.83 134.38 320.84 146.35 315.15 144.08 321.83 134.38" style="fill:#f0997a"></polygon><path d="M312.61,138a1.58,1.58,0,0,0,3.14-.3,1.59,1.59,0,0,0-1.73-1.42A1.57,1.57,0,0,0,312.61,138Z" style="fill:#263238"></path><path d="M324.48,138.21a1.58,1.58,0,1,0,1.42-1.73A1.59,1.59,0,0,0,324.48,138.21Z" style="fill:#263238"></path><path d="M316.23,130.06l-3.86,2a2.09,2.09,0,0,0,2.86,1A2.26,2.26,0,0,0,316.23,130.06Z" style="fill:#263238"></path><path d="M325.64,131l4.11,1.56a2.13,2.13,0,0,1-2.78,1.3A2.28,2.28,0,0,1,325.64,131Z" style="fill:#263238"></path></g></g></g></g><g id="freepik--Heart--inject-10"><g id="freepik--broken-heart--inject-10"><path d="M397.08,75l4.73,6-1.46,7.18-6.93-4.38c-.28-.22-.65-.47-1.07-.76-4.71-3.27-15.75-10.92-15.75-23.92A11.76,11.76,0,0,1,400,56.74l-3.25,6.1,5.11,5.94Z" style="fill:#e0e0e0"></path><path d="M427.73,59.12c0,13.1-10.66,20.8-15.22,24.09-.3.22-.58.41-.81.59l-6.93,4.38L406.24,81l-4.73-6,4.73-6.23-5.11-5.94,3.24-6.1a11.77,11.77,0,0,1,23.36,2.38Z" style="fill:#e0e0e0"></path></g></g><g id="freepik--character-1--inject-10"><g id="freepik--character--inject-10"><g id="freepik--bottom--inject-10"><g id="freepik--bottom--inject-10"><polygon points="101.27 405.38 104.86 403.67 101.33 402.67 101.27 405.38" style="fill:#263238"></polygon><path d="M136.78,412.15S94.6,393,94.06,395.82a4,4,0,0,0,0,1.69l-.12-.15.75,5.26a12.66,12.66,0,0,0,6.57,2.77c0-.26,0-1.82.06-2.71a22,22,0,0,1,3.72,2c2.7,1.8,4.42,4.91,7.27,8.53,2.08,2.64,5.81,3.88,11.35,4.7,6,.88,11.22-.22,12.71-1.79C137.57,414.84,137,412.51,136.78,412.15Z" style="fill:#263238"></path><path d="M135.62,411.17a54.79,54.79,0,0,0-3.93-3.88,78.78,78.78,0,0,0-6.07-5.18,23.09,23.09,0,0,1-3-2.49c-.73-.79-1.43-1.61-2.08-2.46a44.7,44.7,0,0,1-5-8.59,19.62,19.62,0,0,1-1.75-4.5,27.92,27.92,0,0,1-.47-5c0-7.54.17-8.74.24-14.48l-17.88.47c.57,3.18,1.43,7.53,1.72,11.15.43,5.5.57,6.72-1.64,12.19C95,390,94.07,391.56,94,393.29c-.15,2.81,2.07,5.26,4.56,6.65,2.06,1.15,4.45,1.66,6.45,2.89a20.61,20.61,0,0,1,5.23,5.14c1.41,1.81,2.54,3.94,4.53,5.22a18.64,18.64,0,0,0,6.88,2.4,37.51,37.51,0,0,0,9.25.52C135.28,415.8,138.56,414.25,135.62,411.17Z" style="fill:#ffc4c3"></path><path d="M133.21,408.08c-1.81-1.53-4.38-3.71-7.48-6.17a8.06,8.06,0,0,0-6.57.54c-6.31,3.22-7.41,7.84-7.41,7.84a9,9,0,0,0,5.1,4.47c7.24,3.18,20.24,2.27,20.4-1C137.34,411.63,135.41,409.93,133.21,408.08ZM96.1,387.22s-.43,1.08-1.55,3.2a5.88,5.88,0,0,0,0,6.37,9.63,9.63,0,0,0,6.33,4.31C103,394.85,98.61,388.59,96.1,387.22Z" style="fill:#37474f"></path><path d="M61.68,392.86c1.17,1.9-.31,9,0,14.08.26,4.61,1.51,12.64.13,17.19-1.64,5.38-5,11.63-11.29,6.55-3.9-3.15-6.15-7.2-6.71-13.84-.39-4.61,1.41-11,3-16.62,1.8-6.6,2.48-10.12,2.48-10.12Z" style="fill:#263238"></path><path d="M49.05,358.78c-.47,10.75.81,18.3.88,25.18a47.36,47.36,0,0,1-1,9.3c-.92,4.39-2.48,10.5-3.13,13.35-.92,4-1.62,6.48-.21,10.94a5,5,0,0,0,.45,1c2,3.68,6.93,6.45,8.52,6a2.79,2.79,0,0,0,2.8,1,3.16,3.16,0,0,0,.53-.13,2.66,2.66,0,0,0,.53-.21,5.33,5.33,0,0,0,2.65-3.38,8,8,0,0,0,.26-1,40.55,40.55,0,0,0,.52-11.42c0-3,0-5.87.25-9.91s.89-16.37,2.31-22.42c1.06-4.23,2.38-9.53,3.78-15.18Z" style="fill:#ffc4c3"></path><path d="M44.83,411.78c3.92-1.69,15.29-1.93,17.1,3.5,0,5.12.08,8.59-3.21,13-4.37,5.91-10.08-.36-12.27-4.34S44.29,414.54,44.83,411.78Z" style="fill:#37474f"></path><path d="M63.87,218.36c-5.54,9.74-10,18-11.45,43.71C50.79,291.13,51,302.19,50.9,305.7s-2.45,9.94-4.4,27.21.1,59.14.1,59.14,1.38,2.82,8.11,3.46c6.21.59,9.85-1.55,9.85-1.55s9.87-55,12.3-65.37S86.39,284,86.39,284l2.33,32.63s-2,9.52-.18,24.69,6.35,43.84,6.35,43.84,2.64,2.62,10.76,2.46c8.63-.16,10.43-2.52,10.43-2.52s1.93-61.66,2.06-78.84S119.28,244.49,114,219Z" style="fill:#455a64"></path><path d="M92.18,251l-5.79,33,2.33,32.63v-33l5.15-27.07c4.23-1,13.87-5.86,16.56-12.94C103.89,250.29,92.18,251,92.18,251ZM72.6,231.58c.77-2.77,1.57-5.53,2.48-8.3a40.65,40.65,0,0,0-3.86,7.86,74.43,74.43,0,0,0-2.59,8.34A86.6,86.6,0,0,0,67,248a56.12,56.12,0,0,0-.65,8.69c.73-2.82,1.41-5.62,2.08-8.42s1.34-5.6,2-8.39S71.85,234.35,72.6,231.58Zm-4.22-2.12c1-1.68,1.93-3.37,2.82-5.16a32.06,32.06,0,0,0-4,4.38,42.9,42.9,0,0,0-3.3,4.94,37,37,0,0,0-2.5,5.38,22.45,22.45,0,0,0-1.4,5.76l2.73-5.18c.92-1.7,1.84-3.4,2.8-5.07S67.42,231.16,68.38,229.46ZM64.05,339.74q-2.56,13.41-4.77,26.87,3.27-13.26,6.19-26.58c2-8.89,3.83-17.76,5.68-26.7s2.92-18,3.88-27,1.72-18.11,2.34-27.18c-1.34,9-2.55,18-3.78,27s-2.52,18-4.27,26.87S65.72,330.81,64.05,339.74Zm46.28-44.28c.15,3.94.36,7.9.27,11.8s.07,11.43-.16,15.37c0,0-.23,23.22.47,32,1-7.86,1.22-39.38,1.55-47.35,0-8-.6-15.88-1.26-23.79s-1.6-15.77-2.78-23.6l1.33,23.7C109.94,287.56,110.17,291.51,110.33,295.46Z" style="fill:#37474f"></path></g></g><g id="freepik--top--inject-10"><path d="M69.23,127.66a8.22,8.22,0,0,1-2,1.34c-1,.31-2.11-.27-3.19-.44a4.28,4.28,0,0,0-4.53,2.65c-.29.8-.63,3-2,2.67a1,1,0,0,1-.63-1.44,2.88,2.88,0,0,0-.67,3.53,2.65,2.65,0,0,0-4.41,1.08,1.38,1.38,0,0,1,1.45.94c.4,1.16-.47,1.82-1.18,2.53a3.68,3.68,0,0,0-.15,4.87,4.69,4.69,0,0,1,.85,1c.43.86-.06,1.88-.44,2.76a6.64,6.64,0,0,0-.58,3.86,3.63,3.63,0,0,0,2.44,2.86c1,.27,2.24,0,3.12.58a1.77,1.77,0,0,1-1.54,3.14,2.18,2.18,0,0,0,4.23.3,7.42,7.42,0,0,0,1.45,2.34,2.12,2.12,0,0,0,2.62.44,6.34,6.34,0,0,1,1.93-.83c1-.16,1.54.35,2.29.94a5.19,5.19,0,0,0,1,.7,2.79,2.79,0,0,0,3.15-.63,2.32,2.32,0,0,1-1.73-1.39,3.13,3.13,0,0,0,2.84-.5c1.21-.9,1.53-2.45,2.73-3.41.45-.35,1-.58,1.46-.89A4.79,4.79,0,0,0,80,152.72c0-1.56-1-3-1-4.58,0-1.87,1.11-3.62,1.09-5.49,0-3.05-3.08-5.59-2.66-8.6.37-2.67-.27-3.39-2.35-4.87C73.17,127.88,71.64,126.05,69.23,127.66Z" style="fill:#f0997a"></path><path d="M67.45,121.13c-.07.37-1.18,1.11-1.49,1.46a13.74,13.74,0,0,0-1.77,2.24,11.59,11.59,0,0,0-1.54,5.72,17.9,17.9,0,0,0,2.47,8.79,52.62,52.62,0,0,0,5.35,7.52l5,6.2a3.19,3.19,0,0,0,1.3,1.12,3.12,3.12,0,0,0,1.52,0c2.59-.39,5.18-.83,7.76-1.3a36.79,36.79,0,0,0,7-1.79,20.23,20.23,0,0,0,9.24-7.53c1-1.53,2.39-3.68,2.58-5.56.09-.85-.31-1.58-.1-2.45.27-1.13,1.14-2,1.62-3.06a15.55,15.55,0,0,0,1.6-7.75c-.51-5.49-3.9-12.62-14-14.67C85.56,108.37,69.5,110.21,67.45,121.13Z" style="fill:#f0997a"></path><path d="M193.41,175.67a5.11,5.11,0,0,0-3-.57,34.15,34.15,0,0,0-4.77,1.15,37.57,37.57,0,0,1-5,.94,19,19,0,0,1-4.63-.31.93.93,0,0,1-.39-.12.32.32,0,0,1-.14-.35c.15-.36,1.53-.86,1.9-1.06a14.67,14.67,0,0,0,2.07-1.2,4.33,4.33,0,0,0,1.91-3c0-.41,0-1.13-.58-1.09a11.16,11.16,0,0,0-2,.25l-2.66.67c-5.17,1.35-10.45,3.13-14.33,6.9a84.25,84.25,0,0,0-6.55,5.89C152.21,186.44,134,195.9,134,195.9s-9.9-14.21-13.28-19a27.21,27.21,0,0,0-17-11.61l7.52,29.8S123.12,208.57,125.1,211c3,3.59,7.57,3.82,12,1.42A87.38,87.38,0,0,0,152.58,202c7.69-6.09,10-7.83,12.24-9.43s5.55-1.63,7.19-1.68a24.93,24.93,0,0,0,6.71-.94,22.74,22.74,0,0,0,5.54-2.09,7.07,7.07,0,0,0,2.36-1.61,20.76,20.76,0,0,1,1-2.12c.59-.72,1.51-1.14,2-1.92a8.45,8.45,0,0,0,.72-2c.36-1.1,1.23-1.55,2.21-2.05a3.56,3.56,0,0,0,1.32-.88C194.44,176.53,194,176,193.41,175.67Z" style="fill:#ffc4c3"></path><path d="M101.6,163.64c6.11,1.86,10.08,1.61,15.38,7.69s18.32,23,18.32,23l16.49-8.7s-.29,2.81,2.46,7.34c2.16,3.55,4.74,4,4.74,4s-13.19,12-18.65,15-9.16,3.41-11.2,2.8-4-2.62-10.64-9.44c-6.08-6.3-14.61-16.76-14.61-16.76Z" style="fill:#ebebeb"></path><path d="M174.27,177.61a11.34,11.34,0,0,1-7.35,5.28,6.87,6.87,0,0,0,4.64-.94A6.24,6.24,0,0,0,174.27,177.61Z" style="fill:#ffa8a7"></path><path id="freepik--chest--inject-10" d="M57.59,231.66c-3.24-2.63-.54-6.25.62-22.21.3-4.12-1.11-14.32-1.11-14.32s6.08-8.9,3.62-28.77l13.92-4,19.17.15,7.51,2.19c2.54,2.24,7.21,5.78,10.91,11.15,5.34,7.75,6.15,16.17.38,22.33-.08,1.22,1.23,15.38,1.76,20.17.72,6.63,3.29,9.78-.56,13.06C102.55,241,72.86,241.65,57.59,231.66Z" style="fill:#00EEFF"></path><path id="freepik--chest--inject-10" d="M57.59,231.66c-3.24-2.63-.54-6.25.62-22.21.3-4.12-1.11-14.32-1.11-14.32s6.08-8.9,3.62-28.77l13.92-4,19.17.15,7.51,2.19c2.54,2.24,7.21,5.78,10.91,11.15,5.34,7.75,6.15,16.17.38,22.33-.08,1.22,1.23,15.38,1.76,20.17.72,6.63,3.29,9.78-.56,13.06C102.55,241,72.86,241.65,57.59,231.66Z" style="fill:#fff;opacity:0.6000000000000001"></path><g id="freepik--head--inject-10"><g id="freepik--head--inject-10"><g id="freepik--head--inject-10"><path d="M72.22,149.36a6.31,6.31,0,0,1-5.65-2.11c-3-3.22-3.27-6.49-1.88-8.67,1.14-1.8,4-2.94,5.92-1.73s2.18,2.35,3,3.82,2.84.31,2.15-5.57c4.1-1.9,3.43-8.63,5.65-11.38,3.46-4.31,9.16-3.19,11-2.18a7.53,7.53,0,0,1,7.77-.49c2.75,1.44,4.58,4.48,5.56,14.94,1,10.67-.88,17.78-3.38,20-1.73,1.56-4.94,2.61-8.76,2.4l0,4s11,11.29-3,10.28a22.21,22.21,0,0,1-16-8.87l-.09-16.17S74.32,149,72.22,149.36Z" style="fill:#ffc4c3"></path><path d="M99.36,126.88l3.77,2a2.07,2.07,0,0,1-2.85.9A2.19,2.19,0,0,1,99.36,126.88Z" style="fill:#b16668"></path><path d="M84.6,129.25l4.09-2a2.14,2.14,0,0,1-.92,3A2.43,2.43,0,0,1,84.6,129.25Z" style="fill:#b16668"></path><path d="M86.05,135.76a1.67,1.67,0,1,0,1.66-1.67A1.66,1.66,0,0,0,86.05,135.76Z" style="fill:#263238"></path><circle cx="101.13" cy="135.25" r="1.67" style="fill:#263238"></circle><path d="M107.84,130.41l-.81,0a24.49,24.49,0,0,0-8,.59c-2.5.85-3.34,1.72-4.75,1.79S91.79,132,89,131.39a28.08,28.08,0,0,0-8.55.14l-.86.13a1.25,1.25,0,0,0-.85,1.39,3.15,3.15,0,0,0,.92,1.53,2,2,0,0,1,.33.62,26.65,26.65,0,0,0,1.33,4.29,5.69,5.69,0,0,0,1.2,1.51,6.46,6.46,0,0,0,.59.44l.34.19a5.89,5.89,0,0,0,1,.39l.17,0a2,2,0,0,0,.26.06l.27,0a5.54,5.54,0,0,0,.85.09l.37,0h.45c3.51-.14,4.87-1.8,5.62-3.48s.38-4,2-4.06h.15l.15,0C96,135,96,137.1,96.8,138.6a6.88,6.88,0,0,0,1.26,1.62l.29.25.16.12.16.11.15.09.15.09.13.07.08,0a5.42,5.42,0,0,0,1.44.48l.13,0a7.81,7.81,0,0,0,1.72.09c3.28-.16,4.28-2,4.74-3.23a25.74,25.74,0,0,0,.71-4.38,1.24,1.24,0,0,1,.26-.58,2.83,2.83,0,0,0,.63-1.63A1.38,1.38,0,0,0,107.84,130.41Zm-16.41,6.87a4.65,4.65,0,0,1-1.06,2.35h0a4.92,4.92,0,0,1-3.73,1.47,4.45,4.45,0,0,1-3.79-1.51,1,1,0,0,1-.13-.16l-.12-.15-.1-.15a1,1,0,0,1-.08-.14l-.07-.11,0-.09-.09-.16h0c-.08-.17-.15-.32-.21-.48h0c0-.1-.07-.19-.11-.28s-.11-.32-.15-.46l0-.09s0-.06,0-.08c-.35-1.14-.83-3.38-.26-3.92s2.13-1.13,4.75-1h.28c.41,0,.81.08,1.21.14l.47.09a12.11,12.11,0,0,1,1.19.31,3.82,3.82,0,0,1,.36.13l.4.16.08,0a.61.61,0,0,1,.14.07,2.39,2.39,0,0,1,.83.57C91.7,134.5,91.64,136,91.43,137.28Zm15.19-1.15c-.14.9-.44,2.86-2.21,3.78a4.55,4.55,0,0,1-1.92.49,4.46,4.46,0,0,1-4-1.55h0l-.08-.11-.09-.11a.25.25,0,0,0,0-.07l-.11-.17-.12-.21,0-.1,0-.06,0-.08s0-.05,0-.07a6,6,0,0,1-.31-.85c-.36-1.26-.6-2.74-.16-3.47s2.32-1.58,4.16-1.88a10.92,10.92,0,0,1,1.19-.14h1.06l.33,0,.61.07.14,0h0l.1,0,.15,0,.17.05.29.1h.06a2.72,2.72,0,0,1,.67.36C107,132.7,106.8,135,106.62,136.13Z" style="fill:#37474f"></path><path d="M100.15,142.09l-6,2.54-1.27-7.52c.22-1.12.44-2.28,1.41-2.37Z" style="fill:#ffa8a7"></path><path d="M94.87,148.57a2,2,0,0,0-.54-.57,4.86,4.86,0,0,0-.92-.57,9.92,9.92,0,0,0-1.36-.55,8.87,8.87,0,0,0-1.53-.33q-.36,0-.72-.06a3.72,3.72,0,0,0-.74.08c-.11,0-.1.25,0,.26a17,17,0,0,1,3,.71,9.33,9.33,0,0,1,1.33.6c.19.1.37.22.57.32a3.09,3.09,0,0,0,.82.39C94.93,148.87,94.9,148.64,94.87,148.57Z" style="fill:#b16668"></path><path d="M79.8,132.53l-9.19,4.32A9.73,9.73,0,0,1,72,138l8-3.56Z" style="fill:#37474f"></path></g></g><path d="M93.6,158.43c-5.5-.2-12.88-2.12-14.86-5.61,1.1,3.76,5,5.7,8.07,6.56a33.07,33.07,0,0,0,6.75,1.14Z" style="fill:#ffa8a7"></path></g><path d="M74.63,160.76s4.32,11.05,4.11,28.9-2.3,71.55-3.42,98.55c-18.44-1.08-27.09-8.58-27.09-8.58s1.58-19.2,2.84-35.73c1.29-17,4.56-25.57,3.75-36.82-2.3-32.08,5.9-40.72,5.9-40.72Z" style="fill:#f5f5f5"></path><path d="M93.56,160.52l.07,1.93s12.68,9,15.29,21.93S114,287.13,114,287.13s5.28-1.25,8.49-3.84c-2.31-33.19-7-85.73-7-85.73a18.19,18.19,0,0,0,2.85-10.21c-.19-5.93-5.52-15.19-16.72-23.71Z" style="fill:#f5f5f5"></path><path d="M111.25,213.94c1.91-11,3.12-23.9,3.12-23.9l-2.16-3.29h2.68s-4.15-11.59-9.3-18.34a31.14,31.14,0,0,0-12-9.42v3.86s10.45,8.33,13.47,17.63S111.25,213.94,111.25,213.94Z" style="fill:#e6e6e6"></path><path d="M74.61,158.41a20.86,20.86,0,0,1-4.43,3.46c-2.58,1.46-4.6,2.53-4.6,2.53l6.41,25,2.62-.75-2,5.11,5.59,18s1.36-19.28.87-30.67a62.75,62.75,0,0,0-4.42-20.34Z" style="fill:#e6e6e6"></path><path d="M135.3,194.32a13.64,13.64,0,0,0-6.76,9.41c-.53-8.25,5.63-10.86,5.63-10.86Z" style="fill:#e0e0e0"></path><polygon points="145.79 204.84 106.03 215.03 91.35 259.97 92.13 260.96 130 250.52 146.57 205.84 145.79 204.84" style="fill:#00EEFF"></polygon><polygon points="106.81 216.02 92.13 260.96 91.35 259.97 106.03 215.03 106.81 216.02" style="opacity:0.35000000000000003"></polygon><polygon points="146.57 205.84 106.81 216.02 92.13 260.96 130 250.52 146.57 205.84" style="opacity:0.25"></polygon><g style="opacity:0.1"><path d="M134.12,214.2s.2-.67.46-1.51-2.06-.58-5.15.55l-7.14,1.49c-3.09,1.14-6,1.93-6.24,2.77l-.46,1.51Z"></path></g><path d="M137,207.45c.16-.52-.73-.49-2-.27l-2.29.56s1.1-2.15-4.28-1.2c-5.92,1.06-6.3,3.93-6.3,3.93a24.51,24.51,0,0,1-2.87.77c-2,.45-2.22.81-2.42,1.33l-.37,1,20.26-5.18S136.87,208,137,207.45Z" style="fill:#37474f"></path><path d="M134.7,210.22c-1.89.66-2.68,1-3.07,2.28-.44,1.47-.56,2.09-.56,2.09l-10.6,3.13s.75-2.15,1-2.88-1.15-.84-3-.18l.58-1.8,16.44-4.51Z" style="fill:#37474f"></path><path d="M134.65,214.28l.45-1.51c.25-.84-2-.59-5.14.55l-7.15,1.49c-3.09,1.13-6,1.93-6.24,2.76l-.45,1.51Z" style="fill:#37474f"></path><path d="M45.86,186.66c3.62-14.5,6.5-17.8,14.75-19.32,7.34,11.72,4.34,30,4.34,30l-5,22.23c1.35,1.18,21.7,14.24,25.3,15.51,1.31.45,3.79,0,5.11-.42,3.54-1.12,6-.71,9.4-.48L98.2,239a23.77,23.77,0,0,0,4.39,1.1,26.18,26.18,0,0,0,7.13.08c2.15-.21,4.51-.61,6.31.57.43.28.84.76.68,1.25s-.45.53-.74.74a4.37,4.37,0,0,0-1.61,2.06,7.4,7.4,0,0,1-2.88,3.9,25.59,25.59,0,0,1-3.62,2.41,25.32,25.32,0,0,1-7.24,2,12.89,12.89,0,0,1-2.7.28c-3.52-.14-6.84-1.28-10.17-2.29-4.1-1.25-6.45-2.33-9.77-3.42-2.22-.73-6.49-2.3-8.68-3.12-12.74-4.78-30.06-11-31-17.14S42.12,201.64,45.86,186.66Z" style="fill:#ffc4c3"></path><path d="M40.23,207.52c.9-4.79,4.91-22.31,7.52-29.52,2.69-7.45,3.6-8.77,13-11.64,4.86,3.39,6.42,24.86,4.9,31.35l-4.91,21.48L80,231.73a10.92,10.92,0,0,0-7.31,6.64c-1.9,5.37-1,7.59-1,7.59s-19.61-7-25-9.65-10-4.89-9.33-12A148.58,148.58,0,0,1,40.23,207.52Z" style="fill:#ebebeb"></path><path d="M60.71,219.19c-4.46-1.93-11.79-.46-14.21,2.61,2.42-7.26,13.25-5.87,14.77-5.06Z" style="fill:#e0e0e0"></path></g></g></g><g id="freepik--speech-bubble--inject-10"><g id="freepik--speech-bubble--inject-10"><g id="freepik--speech-bubble--inject-10"><path d="M133.53,77.74a27.39,27.39,0,0,1-14.47,14.1l-3,1A27.5,27.5,0,0,1,96.56,41.67l2.92-1.19a27.5,27.5,0,0,1,34.05,37.26Z" style="fill:#fff"></path><path d="M120.57,39.22A29.85,29.85,0,0,0,91.9,91.35l-.46,9.26a1.73,1.73,0,0,0,3,1.32L101,95.39a29.85,29.85,0,0,0,19.6-56.17Zm13,38.48a27.4,27.4,0,0,1-14.44,14.13l-3,1A27.49,27.49,0,0,1,96.52,41.7l2.91-1.2a27.5,27.5,0,0,1,34.12,37.2Z" style="fill:#455a64"></path></g><path d="M113.38,66.49l8.22-8.22a3.51,3.51,0,0,0-5-5l-8.21,8.21-8.21-8.21a3.51,3.51,0,0,0-5,5l8.21,8.22L95.24,74.7a3.51,3.51,0,0,0,5,5l8.21-8.21,8.21,8.21a3.51,3.51,0,1,0,5-5Z" style="fill:#00EEFF"></path></g></g></svg>
